<?xml version="1.0" encoding="UTF-8" ?>
<!DOCTYPE svg PUBLIC "-//W3C//DTD SVG 1.1//EN" "http://www.w3.org/Graphics/SVG/1.1/DTD/svg11.dtd">
<svg width="500" height="499" viewBox="0 0 500 499" version="1.1" xmlns="http://www.w3.org/2000/svg">
<g id="#ffffffff">
<path fill="#ffffff" opacity="1.00" d=" M 0.00 0.00 L 500.00 0.00 L 500.00 499.00 L 0.00 499.00 L 0.00 0.00 M 235.07 130.88 C 193.27 134.21 153.08 153.82 124.51 184.49 C 100.37 210.02 84.28 243.17 79.67 278.03 C 74.78 278.26 69.88 277.95 64.99 278.17 C 62.51 278.31 60.41 280.52 60.75 283.07 C 60.67 302.37 60.73 321.67 60.70 340.97 C 60.73 342.67 60.64 344.39 61.02 346.07 C 61.99 348.40 64.70 348.98 66.96 348.82 C 189.31 348.80 311.66 348.85 434.01 348.80 C 436.71 349.06 439.61 346.97 439.25 344.06 C 439.35 323.69 439.35 303.33 439.23 282.96 C 439.57 280.46 437.49 278.35 435.08 278.18 C 430.16 277.95 425.24 278.24 420.32 278.04 C 416.24 246.93 402.89 217.19 383.00 192.99 C 361.34 166.59 331.65 146.89 298.89 137.24 C 278.25 131.31 256.48 128.69 235.07 130.88 M 48.14 359.94 C 44.43 361.87 44.87 368.11 49.28 368.79 C 54.32 369.03 59.43 369.12 64.46 368.74 C 68.78 367.98 69.26 361.43 65.12 360.05 C 59.47 359.70 53.80 359.94 48.14 359.94 M 90.23 359.96 C 89.21 361.17 87.59 362.20 87.81 364.02 C 87.39 366.90 90.24 369.08 92.92 368.95 C 101.98 368.99 111.04 368.97 120.10 368.93 C 122.82 369.13 125.68 366.92 125.35 364.02 C 125.43 362.21 123.96 361.11 122.85 359.95 C 111.98 359.85 101.11 359.84 90.23 359.96 M 147.40 360.32 C 143.52 362.27 144.89 368.47 149.14 368.85 C 158.43 369.11 167.73 368.89 177.03 368.95 C 179.09 369.07 181.41 368.24 182.30 366.24 C 184.19 363.51 181.23 359.36 178.03 359.90 C 169.38 359.85 160.73 359.92 152.08 359.87 C 150.54 360.00 148.83 359.61 147.40 360.32 M 205.14 359.94 C 201.40 361.85 201.81 368.09 206.21 368.79 C 216.11 369.13 226.06 368.99 235.97 368.85 C 240.81 368.64 241.63 361.11 236.96 360.00 C 226.36 359.76 215.74 359.91 205.14 359.94 M 262.40 360.15 C 258.32 362.03 259.51 368.54 263.99 368.87 C 273.66 369.07 283.34 368.97 293.00 368.89 C 296.66 368.89 298.87 364.27 296.55 361.43 C 294.99 359.31 292.20 360.00 289.96 359.87 C 280.78 360.07 271.55 359.53 262.40 360.15 M 319.36 360.44 C 317.85 361.56 316.40 363.74 317.39 365.62 C 318.15 367.93 320.63 369.16 322.96 368.96 C 332.25 368.90 341.56 369.12 350.85 368.85 C 355.41 368.48 356.42 361.61 352.09 360.05 C 342.73 359.65 333.35 360.02 323.99 359.87 C 322.47 360.04 320.69 359.54 319.36 360.44 M 377.15 359.96 C 376.03 361.12 374.56 362.23 374.65 364.04 C 374.33 366.94 377.16 369.12 379.88 368.95 C 389.27 368.94 398.67 369.08 408.05 368.86 C 412.69 368.54 413.56 362.15 409.77 359.96 C 398.90 359.85 388.02 359.85 377.15 359.96 M 432.97 367.09 C 435.47 369.99 439.73 368.68 443.08 368.96 C 446.27 368.67 449.89 369.75 452.73 367.86 C 455.48 365.83 454.61 361.54 451.86 359.94 C 446.53 359.88 441.20 359.82 435.88 359.95 C 432.54 359.99 430.70 364.68 432.97 367.09 Z" />
<path fill="#ffffff" opacity="1.00" d=" M 187.67 221.71 C 208.20 205.65 235.11 198.03 261.00 201.01 C 284.76 203.47 307.44 214.73 323.84 232.10 C 336.12 244.82 344.59 260.94 348.99 278.01 C 283.00 278.20 217.00 278.16 151.01 278.02 C 156.51 255.86 169.52 235.61 187.67 221.71 Z" />
</g>
<g id="#060d15ff">
<path fill="#060d15" opacity="1.00" d=" M 235.07 130.88 C 256.48 128.69 278.25 131.31 298.89 137.24 C 331.65 146.89 361.34 166.59 383.00 192.99 C 402.89 217.19 416.24 246.93 420.32 278.04 C 425.24 278.24 430.16 277.95 435.08 278.18 C 437.49 278.35 439.57 280.46 439.23 282.96 C 439.35 303.33 439.35 323.69 439.25 344.06 C 439.61 346.97 436.71 349.06 434.01 348.80 C 311.66 348.85 189.31 348.80 66.96 348.82 C 64.70 348.98 61.99 348.40 61.02 346.07 C 60.64 344.39 60.73 342.67 60.70 340.97 C 60.73 321.67 60.67 302.37 60.75 283.07 C 60.41 280.52 62.51 278.31 64.99 278.17 C 69.88 277.95 74.78 278.26 79.67 278.03 C 84.28 243.17 100.37 210.02 124.51 184.49 C 153.08 153.82 193.27 134.21 235.07 130.88 M 212.08 143.78 C 182.79 150.70 155.57 166.03 134.40 187.41 C 110.08 211.73 93.80 243.96 88.86 278.01 C 106.48 278.02 124.11 278.03 141.73 278.01 C 146.72 254.96 159.50 233.75 177.34 218.35 C 194.24 203.65 215.69 194.21 237.99 191.93 C 263.26 189.07 289.43 195.32 310.68 209.30 C 334.65 224.88 352.22 250.04 358.25 278.01 C 375.88 278.04 393.51 278.02 411.14 278.01 C 407.56 253.61 398.26 230.07 384.21 209.80 C 365.48 182.57 338.28 161.24 307.29 149.70 C 277.09 138.28 243.46 136.27 212.08 143.78 M 187.67 221.71 C 169.52 235.61 156.51 255.86 151.01 278.02 C 217.00 278.16 283.00 278.20 348.99 278.01 C 344.59 260.94 336.12 244.82 323.84 232.10 C 307.44 214.73 284.76 203.47 261.00 201.01 C 235.11 198.03 208.20 205.65 187.67 221.71 M 69.81 287.51 C 69.88 304.85 69.84 322.18 69.83 339.52 C 77.74 339.62 85.65 339.54 93.57 339.56 C 93.66 332.72 93.40 325.88 93.68 319.05 C 94.22 314.05 102.26 314.01 102.87 318.96 C 103.23 325.84 102.74 332.75 103.11 339.64 C 110.12 339.48 117.13 339.59 124.14 339.58 C 124.33 334.78 123.96 329.97 124.32 325.19 C 125.05 320.74 132.09 320.40 133.34 324.71 C 133.97 329.61 133.41 334.61 133.60 339.55 C 139.05 339.59 144.51 339.54 149.97 339.58 C 150.17 332.74 149.82 325.88 150.13 319.04 C 150.74 314.05 158.79 313.99 159.37 319.03 C 159.65 325.86 159.39 332.71 159.48 339.56 C 166.55 339.57 173.61 339.56 180.67 339.56 C 180.80 334.72 180.43 329.86 180.84 325.02 C 181.73 320.57 188.95 320.50 189.88 324.96 C 190.31 329.81 189.93 334.70 190.06 339.56 C 195.49 339.57 200.91 339.57 206.34 339.56 C 206.39 333.02 206.27 326.48 206.38 319.94 C 206.30 317.45 208.47 315.08 211.01 315.18 C 213.57 315.08 215.91 317.39 215.75 319.97 C 215.84 326.49 215.75 333.01 215.77 339.53 C 222.84 339.60 229.90 339.55 236.97 339.56 C 237.08 334.73 236.74 329.89 237.13 325.08 C 237.95 320.52 245.31 320.52 246.20 325.03 C 246.56 329.86 246.23 334.72 246.35 339.56 C 250.81 339.57 255.27 339.56 259.73 339.57 C 259.79 333.03 259.68 326.49 259.77 319.96 C 259.66 317.62 261.60 315.40 263.93 315.21 C 266.65 314.81 269.33 317.22 269.18 319.98 C 269.28 326.50 269.16 333.04 269.22 339.57 C 276.26 339.56 283.30 339.58 290.34 339.56 C 290.45 334.81 290.14 330.05 290.47 325.31 C 291.11 320.81 298.13 320.32 299.50 324.61 C 300.16 329.54 299.59 334.58 299.78 339.55 C 305.75 339.58 311.72 339.56 317.69 339.57 C 317.71 333.70 317.71 327.84 317.68 321.97 C 317.64 319.98 317.64 317.66 319.33 316.28 C 321.85 313.94 326.59 315.54 326.98 319.02 C 327.25 325.86 327.00 332.71 327.09 339.56 C 334.15 339.57 341.22 339.57 348.29 339.56 C 348.48 334.60 347.91 329.58 348.56 324.66 C 349.74 320.62 356.24 320.63 357.41 324.67 C 358.02 329.59 357.48 334.60 357.67 339.56 C 362.89 339.57 368.11 339.57 373.33 339.56 C 373.37 333.03 373.28 326.51 373.36 319.98 C 373.19 317.45 375.48 315.10 378.01 315.18 C 380.60 315.04 382.82 317.44 382.75 319.97 C 382.84 326.48 382.76 333.00 382.76 339.51 C 389.81 339.63 396.86 339.54 403.91 339.56 C 404.03 334.72 403.67 329.86 404.08 325.03 C 405.08 320.55 412.21 320.54 413.22 325.03 C 413.58 329.86 413.25 334.72 413.37 339.56 C 418.97 339.52 424.57 339.67 430.17 339.48 C 430.06 322.13 430.19 304.78 430.11 287.43 C 310.01 287.49 189.91 287.33 69.81 287.51 Z" />
<path fill="#060d15" opacity="1.00" d=" M 248.19 145.21 C 250.93 143.96 254.56 146.00 254.63 149.08 C 254.77 157.35 254.73 165.63 254.65 173.90 C 254.69 177.07 250.87 179.35 248.06 177.91 C 246.17 177.11 245.14 175.04 245.30 173.04 C 245.28 165.35 245.27 157.65 245.31 149.96 C 245.19 147.98 246.26 145.89 248.19 145.21 Z" />
<path fill="#060d15" opacity="1.00" d=" M 192.19 156.18 C 194.70 154.56 198.22 155.94 199.19 158.70 C 202.48 165.42 206.04 172.00 209.25 178.76 C 210.50 181.28 208.69 184.64 205.93 185.10 C 203.81 185.61 201.45 184.42 200.62 182.41 C 197.30 175.73 193.82 169.13 190.54 162.43 C 189.22 160.33 190.13 157.42 192.19 156.18 Z" />
<path fill="#060d15" opacity="1.00" d=" M 302.45 156.46 C 304.74 154.60 308.59 155.56 309.67 158.33 C 310.89 160.70 309.09 163.03 308.15 165.13 C 304.91 171.24 302.02 177.55 298.65 183.59 C 295.75 187.34 289.10 184.00 290.50 179.45 C 292.93 173.73 296.12 168.36 298.78 162.74 C 299.97 160.64 300.66 158.14 302.45 156.46 Z" />
<path fill="#060d15" opacity="1.00" d=" M 152.30 176.47 C 154.52 175.06 157.49 175.95 158.88 178.08 C 163.47 183.88 168.20 189.58 172.76 195.40 C 174.50 197.48 173.83 201.04 171.41 202.31 C 169.36 203.67 166.52 202.86 165.15 200.92 C 160.42 194.95 155.53 189.10 150.86 183.08 C 149.21 181.01 150.11 177.77 152.30 176.47 Z" />
<path fill="#060d15" opacity="1.00" d=" M 343.24 179.18 C 345.78 177.49 349.65 178.95 350.29 181.98 C 351.11 184.60 348.95 186.68 347.50 188.56 C 343.11 193.80 339.04 199.32 334.53 204.46 C 330.88 208.13 324.37 202.71 327.51 198.45 C 332.67 191.98 337.69 185.32 343.24 179.18 Z" />
<path fill="#060d15" opacity="1.00" d=" M 48.14 359.94 C 53.80 359.94 59.47 359.70 65.12 360.05 C 69.26 361.43 68.78 367.98 64.46 368.74 C 59.43 369.12 54.32 369.03 49.28 368.79 C 44.87 368.11 44.43 361.87 48.14 359.94 Z" />
<path fill="#060d15" opacity="1.00" d=" M 90.23 359.96 C 101.11 359.84 111.98 359.85 122.85 359.95 C 123.96 361.11 125.43 362.21 125.35 364.02 C 125.68 366.92 122.82 369.13 120.10 368.93 C 111.04 368.97 101.98 368.99 92.92 368.95 C 90.24 369.08 87.39 366.90 87.81 364.02 C 87.59 362.20 89.21 361.17 90.23 359.96 Z" />
<path fill="#060d15" opacity="1.00" d=" M 147.40 360.32 C 148.83 359.61 150.54 360.00 152.08 359.87 C 160.73 359.92 169.38 359.85 178.03 359.90 C 181.23 359.36 184.19 363.51 182.30 366.24 C 181.41 368.24 179.09 369.07 177.03 368.95 C 167.73 368.89 158.43 369.11 149.14 368.85 C 144.89 368.47 143.52 362.27 147.40 360.32 Z" />
<path fill="#060d15" opacity="1.00" d=" M 205.14 359.94 C 215.74 359.91 226.36 359.76 236.96 360.00 C 241.63 361.11 240.81 368.64 235.97 368.85 C 226.06 368.99 216.11 369.13 206.21 368.79 C 201.81 368.09 201.40 361.85 205.14 359.94 Z" />
<path fill="#060d15" opacity="1.00" d=" M 262.40 360.15 C 271.55 359.53 280.78 360.07 289.96 359.87 C 292.20 360.00 294.99 359.31 296.55 361.43 C 298.87 364.27 296.66 368.89 293.00 368.89 C 283.34 368.97 273.66 369.07 263.99 368.87 C 259.51 368.54 258.32 362.03 262.40 360.15 Z" />
<path fill="#060d15" opacity="1.00" d=" M 319.36 360.44 C 320.69 359.54 322.47 360.04 323.99 359.87 C 333.35 360.02 342.73 359.65 352.09 360.05 C 356.42 361.61 355.41 368.48 350.85 368.85 C 341.56 369.12 332.25 368.90 322.96 368.96 C 320.63 369.16 318.15 367.93 317.39 365.62 C 316.40 363.74 317.85 361.56 319.36 360.44 Z" />
<path fill="#060d15" opacity="1.00" d=" M 377.15 359.96 C 388.02 359.85 398.90 359.85 409.77 359.96 C 413.56 362.15 412.69 368.54 408.05 368.86 C 398.67 369.08 389.27 368.94 379.88 368.95 C 377.16 369.12 374.33 366.94 374.65 364.04 C 374.56 362.23 376.03 361.12 377.15 359.96 Z" />
<path fill="#060d15" opacity="1.00" d=" M 432.97 367.09 C 430.70 364.68 432.54 359.99 435.88 359.95 C 441.20 359.82 446.53 359.88 451.86 359.94 C 454.61 361.54 455.48 365.83 452.73 367.86 C 449.89 369.75 446.27 368.67 443.08 368.96 C 439.73 368.68 435.47 369.99 432.97 367.09 Z" />
</g>
<g id="#ee7155ff">
<path fill="#ee7155" opacity="1.00" d=" M 212.08 143.78 C 243.46 136.27 277.09 138.28 307.29 149.70 C 338.28 161.24 365.48 182.57 384.21 209.80 C 398.26 230.07 407.56 253.61 411.14 278.01 C 393.51 278.02 375.88 278.04 358.25 278.01 C 352.22 250.04 334.65 224.88 310.68 209.30 C 289.43 195.32 263.26 189.07 237.99 191.93 C 215.69 194.21 194.24 203.65 177.34 218.35 C 159.50 233.75 146.72 254.96 141.73 278.01 C 124.11 278.03 106.48 278.02 88.86 278.01 C 93.80 243.96 110.08 211.73 134.40 187.41 C 155.57 166.03 182.79 150.70 212.08 143.78 M 248.19 145.21 C 246.26 145.89 245.19 147.98 245.31 149.96 C 245.27 157.65 245.28 165.35 245.30 173.04 C 245.14 175.04 246.17 177.11 248.06 177.91 C 250.87 179.35 254.69 177.07 254.65 173.90 C 254.73 165.63 254.77 157.35 254.63 149.08 C 254.56 146.00 250.93 143.96 248.19 145.21 M 192.19 156.18 C 190.13 157.42 189.22 160.33 190.54 162.43 C 193.82 169.13 197.30 175.73 200.62 182.41 C 201.45 184.42 203.81 185.61 205.93 185.10 C 208.69 184.64 210.50 181.28 209.25 178.76 C 206.04 172.00 202.48 165.42 199.19 158.70 C 198.22 155.94 194.70 154.56 192.19 156.18 M 302.45 156.46 C 300.66 158.14 299.97 160.64 298.78 162.74 C 296.12 168.36 292.93 173.73 290.50 179.45 C 289.10 184.00 295.75 187.34 298.65 183.59 C 302.02 177.55 304.91 171.24 308.15 165.13 C 309.09 163.03 310.89 160.70 309.67 158.33 C 308.59 155.56 304.74 154.60 302.45 156.46 M 152.30 176.47 C 150.11 177.77 149.21 181.01 150.86 183.08 C 155.53 189.10 160.42 194.95 165.15 200.92 C 166.52 202.86 169.36 203.67 171.41 202.31 C 173.83 201.04 174.50 197.48 172.76 195.40 C 168.20 189.58 163.47 183.88 158.88 178.08 C 157.49 175.95 154.52 175.06 152.30 176.47 M 343.24 179.18 C 337.69 185.32 332.67 191.98 327.51 198.45 C 324.37 202.71 330.88 208.13 334.53 204.46 C 339.04 199.32 343.11 193.80 347.50 188.56 C 348.95 186.68 351.11 184.60 350.29 181.98 C 349.65 178.95 345.78 177.49 343.24 179.18 Z" />
</g>
<g id="#f2925fff">
<path fill="#f2925f" opacity="1.00" d=" M 69.81 287.51 C 189.91 287.33 310.01 287.49 430.11 287.43 C 430.19 304.78 430.06 322.13 430.17 339.48 C 424.57 339.67 418.97 339.52 413.37 339.56 C 413.25 334.72 413.58 329.86 413.22 325.03 C 412.21 320.54 405.08 320.55 404.08 325.03 C 403.67 329.86 404.03 334.72 403.91 339.56 C 396.86 339.54 389.81 339.63 382.76 339.51 C 382.76 333.00 382.84 326.48 382.75 319.97 C 382.82 317.44 380.60 315.04 378.01 315.18 C 375.48 315.10 373.19 317.45 373.36 319.98 C 373.28 326.51 373.37 333.03 373.33 339.56 C 368.11 339.57 362.89 339.57 357.67 339.56 C 357.48 334.60 358.02 329.59 357.41 324.67 C 356.24 320.63 349.74 320.62 348.56 324.66 C 347.91 329.58 348.48 334.60 348.29 339.56 C 341.22 339.57 334.15 339.57 327.09 339.56 C 327.00 332.71 327.25 325.86 326.98 319.02 C 326.59 315.54 321.85 313.94 319.33 316.28 C 317.64 317.66 317.64 319.98 317.68 321.97 C 317.71 327.84 317.71 333.70 317.69 339.57 C 311.72 339.56 305.75 339.58 299.78 339.55 C 299.59 334.58 300.16 329.54 299.50 324.61 C 298.13 320.32 291.11 320.81 290.47 325.31 C 290.14 330.05 290.45 334.81 290.34 339.56 C 283.30 339.58 276.26 339.56 269.22 339.57 C 269.16 333.04 269.28 326.50 269.18 319.98 C 269.33 317.22 266.65 314.81 263.93 315.21 C 261.60 315.40 259.66 317.62 259.77 319.96 C 259.68 326.49 259.79 333.03 259.73 339.57 C 255.27 339.56 250.81 339.57 246.35 339.56 C 246.23 334.72 246.56 329.86 246.20 325.03 C 245.31 320.52 237.95 320.52 237.13 325.08 C 236.74 329.89 237.08 334.73 236.97 339.56 C 229.90 339.55 222.84 339.60 215.77 339.53 C 215.75 333.01 215.84 326.49 215.75 319.97 C 215.91 317.39 213.57 315.08 211.01 315.18 C 208.47 315.08 206.30 317.45 206.38 319.94 C 206.27 326.48 206.39 333.02 206.34 339.56 C 200.91 339.57 195.49 339.57 190.06 339.56 C 189.93 334.70 190.31 329.81 189.88 324.96 C 188.95 320.50 181.73 320.57 180.84 325.02 C 180.43 329.86 180.80 334.72 180.67 339.56 C 173.61 339.56 166.55 339.57 159.48 339.56 C 159.39 332.71 159.65 325.86 159.37 319.03 C 158.79 313.99 150.74 314.05 150.13 319.04 C 149.82 325.88 150.17 332.74 149.97 339.58 C 144.51 339.54 139.05 339.59 133.60 339.55 C 133.41 334.61 133.97 329.61 133.34 324.71 C 132.09 320.40 125.05 320.74 124.32 325.19 C 123.96 329.97 124.33 334.78 124.14 339.58 C 117.13 339.59 110.12 339.48 103.11 339.64 C 102.74 332.75 103.23 325.84 102.87 318.96 C 102.26 314.01 94.22 314.05 93.68 319.05 C 93.40 325.88 93.66 332.72 93.57 339.56 C 85.65 339.54 77.74 339.62 69.83 339.52 C 69.84 322.18 69.88 304.85 69.81 287.51 Z" />
</g>
</svg>
