<?xml version="1.0" standalone="no"?>
<!DOCTYPE svg PUBLIC "-//W3C//DTD SVG 20010904//EN"
 "http://www.w3.org/TR/2001/REC-SVG-20010904/DTD/svg10.dtd">
<svg version="1.0" xmlns="http://www.w3.org/2000/svg"
 width="500.000000pt" height="500.000000pt" viewBox="0 0 500.000000 500.000000"
 preserveAspectRatio="xMidYMid meet">

<g transform="translate(0.000000,500.000000) scale(0.100000,-0.100000)"
fill="#000000" stroke="none">
<path d="M3229 2220 c-9 -5 -33 -53 -54 -105 -20 -52 -41 -97 -46 -100 -5 -4
-9 -15 -9 -25 0 -10 -6 -25 -13 -32 -7 -7 -29 -42 -49 -78 -43 -78 -120 -185
-185 -259 -61 -68 -207 -191 -270 -227 -26 -15 -65 -37 -85 -50 -21 -13 -45
-24 -55 -24 -12 0 -14 -3 -6 -11 22 -22 204 64 321 153 68 51 234 217 227 228
-3 4 2 10 10 14 24 9 195 280 200 316 0 3 6 14 12 26 21 38 55 128 59 157 3
22 0 27 -19 27 -12 0 -29 -5 -38 -10z"/>
<path d="M2922 2179 c-13 -5 -27 -7 -31 -4 -4 2 -27 -30 -51 -73 -119 -212
-282 -374 -463 -456 -88 -40 -133 -49 -247 -49 -153 -1 -242 33 -341 128 -70
67 -94 101 -144 201 -34 69 -48 88 -65 89 -22 2 -22 1 -5 -12 11 -7 14 -13 8
-13 -8 0 -9 -9 -1 -32 5 -18 10 -41 10 -50 -1 -10 3 -18 9 -18 5 0 9 -7 9 -16
0 -30 68 -139 140 -227 23 -29 146 -117 162 -117 8 0 18 -4 23 -9 20 -19 128
-39 213 -39 80 -1 180 17 220 38 10 4 46 23 82 40 157 78 311 226 431 415 28
45 83 157 94 195 7 22 6 23 -8 12 -8 -7 -17 -9 -19 -4 -2 6 -13 6 -26 1z"/>
<path d="M1845 1916 c10 -14 19 -26 22 -26 7 0 -17 39 -28 46 -6 3 -3 -5 6
-20z"/>
<path d="M2410 1290 c0 -5 7 -7 15 -4 8 4 15 8 15 10 0 2 -7 4 -15 4 -8 0 -15
-4 -15 -10z"/>
<path d="M2335 1280 c-16 -7 -17 -9 -3 -9 9 -1 20 4 23 9 7 11 7 11 -20 0z"/>
</g>
</svg>
