<?xml version="1.0" encoding="utf-8"?>
<!-- Generator: Adobe Illustrator 18.0.0, SVG Export Plug-In . SVG Version: 6.00 Build 0)  -->
<!DOCTYPE svg PUBLIC "-//W3C//DTD SVG 1.1//EN" "http://www.w3.org/Graphics/SVG/1.1/DTD/svg11.dtd">
<svg version="1.1" id="Layer_1" xmlns="http://www.w3.org/2000/svg" xmlns:xlink="http://www.w3.org/1999/xlink" x="0px" y="0px"
	 width="1400px" height="1400px" viewBox="0 0 1400 1400" enable-background="new 0 0 1400 1400" xml:space="preserve">
<rect fill="#E6F9FF" width="1400" height="1400"/>
<g>
	<g>
		<path fill="#1B66B3" d="M1054.4,455.6c-197-113.7-515.3-113.7-711,0c-195.7,113.7-194.7,298.1,2.3,411.8
			c197,113.7,515.3,113.7,711,0C1252.5,753.7,1251.4,569.3,1054.4,455.6z"/>
		<g>
			<path fill="#00A79D" d="M199.5,709.5c-1.5,8.8-2.2,17.7-2.3,26.5l0.2-76.9c0.1-8.9,0.8-17.7,2.3-26.5
				C199.6,658.2,199.5,683.9,199.5,709.5z"/>
		</g>
		<path fill="#1E1B69" d="M1200.4,633.8c-11.1-65-59.7-128.4-146-178.2c-197-113.7-515.3-113.7-711,0
			c-85.2,49.5-133.1,112.3-143.8,177c-0.1,25.6-0.1,51.3-0.2,76.9c10.7-64.6,58.6-127.5,143.8-177c195.7-113.7,514-113.7,711,0
			c86.2,49.8,134.9,113.1,146,178.2c1.7,10,2.5,20.1,2.4,30.2c0.1-23.1,0.2-53.8,0.2-76.9C1202.9,653.9,1202.1,643.8,1200.4,633.8z"
			/>
		<g>
			<path fill="#00BCAA" d="M1202.9,663l-0.2,76.9c-0.2,74-48.9,148-146.1,204.5c-195.7,113.7-514,113.7-711,0
				C246.4,887.1,196.9,812,197.1,737l0.2-76.9c-0.2,75,49.3,150.1,148.4,207.4c197,113.7,515.3,113.7,711,0
				C1154,811,1202.6,737,1202.9,663z"/>
		</g>
		<g>
			<path fill="#1E1B69" d="M1261.3,663.1l-0.2,76.9c-0.2,82.7-54.6,165.2-163.1,228.2c-218.4,126.9-573.8,126.9-793.6,0
				c-110.6-63.9-165.9-147.7-165.7-231.4l0.2-76.9c-0.2,83.7,55,167.6,165.7,231.4c219.9,126.9,575.2,126.9,793.6,0
				C1206.7,828.3,1261.1,745.8,1261.3,663.1z"/>
		</g>
		<path fill="#379ADD" d="M1095.6,431.7c-219.9-126.9-575.2-126.9-793.6,0C83.6,558.6,84.7,764.5,304.6,891.4
			c219.9,126.9,575.2,126.9,793.6,0C1316.7,764.4,1315.5,558.6,1095.6,431.7z M1056.8,867.5c-195.7,113.7-514,113.7-711,0
			c-197-113.7-198-298.1-2.3-411.8c195.7-113.7,514-113.7,711,0C1251.4,569.3,1252.5,753.7,1056.8,867.5z"/>
		<g>
			<g>
				<g>
					<path fill="#FFFFFF" d="M619,490.4l8,17.2l0.6,1.3l-6.3,1l-0.6-1.3l-8-17.2C614.8,491,616.9,490.7,619,490.4z"/>
				</g>
				<g>
					<path fill="#FFFFFF" d="M451.3,585.6l-3.3,3.3l-2-0.7l-26.7-8.9c1.1-1.1,2.1-2.2,3.2-3.3l26.7,8.9L451.3,585.6z"/>
				</g>
				<g>
					<path fill="#FFFFFF" d="M778.9,831.9l0.6,1.3l8,17.2c-2.1,0.3-4.2,0.7-6.3,1l-8-17.2l-0.6-1.3L778.9,831.9z"/>
				</g>
				<g>
					<path fill="#FFFFFF" d="M785.5,491.4l-7.8,17.2l-0.6,1.3l-6.3-1l0.6-1.3l7.9-17.2C781.3,490.7,783.4,491,785.5,491.4z"/>
				</g>
				<g>
					<path fill="#FFFFFF" d="M862.9,510.4l-15.3,15.4l-1.1,1.1l-5.7-1.9l1.1-1.2l15.3-15.4C859.1,509.2,861,509.8,862.9,510.4z"/>
				</g>
				<g>
					<path fill="#FFFFFF" d="M541.2,508.5l15.4,15.4l1.2,1.2l-5.7,1.9l-1.2-1.1l-15.5-15.4C537.4,509.8,539.3,509.2,541.2,508.5z"/>
				</g>
				<g>
					<path fill="#FFFFFF" d="M976.6,576c1.1,1.1,2.2,2.2,3.3,3.3l-26.6,8.9l-2,0.7l-3.3-3.3l2-0.7L976.6,576z"/>
				</g>
				<g>
					<path fill="#FFFFFF" d="M1009.7,620.8c0.6,1.2,1.2,2.4,1.7,3.7l-29.6,4.6l-2.2,0.3l-1.7-3.7l2.2-0.3L1009.7,620.8z"/>
				</g>
				<g>
					<path fill="#FFFFFF" d="M421.8,625.7l-1.7,3.7l-2.2-0.3l-29.7-4.6c0.5-1.2,1.1-2.5,1.7-3.7l29.7,4.6L421.8,625.7z"/>
				</g>
				<g>
					<path fill="#FFFFFF" d="M980.9,762.4c-1.1,1.1-2.2,2.2-3.3,3.3l-26.7-8.9l-2-0.7l3.3-3.3l2,0.7L980.9,762.4z"/>
				</g>
				<g>
					<path fill="#FFFFFF" d="M448.9,752.8l3.3,3.3l-2,0.7l-26.6,8.9c-1.1-1.1-2.2-2.2-3.3-3.3l26.6-8.9L448.9,752.8z"/>
				</g>
				<g>
					<path fill="#FFFFFF" d="M1011.9,717.3c-0.5,1.2-1.1,2.4-1.7,3.7l-29.7-4.6l-2.2-0.3l1.7-3.7l2.2,0.3L1011.9,717.3z"/>
				</g>
				<g>
					<path fill="#FFFFFF" d="M420.6,712.3l1.7,3.7l-2.2,0.3l-29.6,4.6c-0.6-1.2-1.2-2.4-1.7-3.7l29.6-4.6L420.6,712.3z"/>
				</g>
				<g>
					<path fill="#FFFFFF" d="M848.1,814.7l1.2,1.1l15.5,15.4c-1.9,0.6-3.8,1.3-5.7,1.9l-15.5-15.4l-1.2-1.1L848.1,814.7z"/>
				</g>
				<g>
					<path fill="#FFFFFF" d="M559.4,816.6l-1.1,1.1L543,833.2c-1.9-0.6-3.8-1.2-5.7-1.9l15.3-15.4l1.1-1.1L559.4,816.6z"/>
				</g>
				<g>
					<path fill="#FFFFFF" d="M629.5,832.9l-0.6,1.3l-7.9,17.2c-2.1-0.3-4.2-0.6-6.3-1l7.9-17.2l0.6-1.3L629.5,832.9z"/>
				</g>
			</g>
			<g>
				<g>
					<g>
						<path fill="#10BCF9" d="M602.1,690.7l-106,83.8c-41.9-27.6-65.7-62.3-67.7-99.1L602.1,690.7z"/>
					</g>
					<g>
						<path fill="#10BCF9" d="M971.8,666.3L798.1,651l106-83.8C946,594.7,969.8,629.4,971.8,666.3z"/>
					</g>
					<g>
						<path fill="#10BCF9" d="M707.1,513.5c63.6,1,123.6,14.7,171.3,38.9L734.1,614L707.1,513.5z"/>
					</g>
					<g>
						<path fill="#10BCF9" d="M520.4,552.4c47.5-24.2,107.3-37.8,170.9-38.9L665.5,614L520.4,552.4z"/>
					</g>
					<g>
						<path fill="#10BCF9" d="M428.4,666.3c1.6-36.8,25-71.5,66.6-99.1L601.9,651L428.4,666.3z"/>
					</g>
					<g>
						<path fill="#10BCF9" d="M971.8,675.4c-1.6,36.8-25,71.5-66.6,99.1l-106.9-83.8L971.8,675.4z"/>
					</g>
					<g>
						<path fill="#10BCF9" d="M879.8,789.3c-47.5,24.2-107.3,37.8-170.9,38.9l25.9-100.5L879.8,789.3z"/>
					</g>
					<g>
						<path fill="#10BCF9" d="M693.1,828.2c-63.6-1-123.6-14.7-171.3-38.9l144.3-61.6L693.1,828.2z"/>
					</g>
				</g>
				<g>
					<g>
						<path fill="#F74A06" d="M696.9,627.4c-18.2,0.4-36.2,4.7-50.1,12.7l-153.1-88.4l-70.3-40.6l81.2,34.5l3.6,1.5l10.3,4.4
							l1.9,0.8l145,61.6L696.9,627.4z"/>
					</g>
					<g>
						<path fill="#F74A06" d="M974.9,511.2l-59.3,46.9l-2.6,2.1l-7.5,5.9l-1.4,1.1l-106,83.8l-23,18.2c-0.8-10.6-8.1-21-22.1-29
							l152.1-88.4L974.9,511.2z"/>
					</g>
					<g>
						<path fill="#13548E" d="M775.2,672.6c0.1-1.1,0.1-2.3,0-3.5l23-18.2l173.6,15.3l2.3,0.2l12.5,1.1l4.4,0.4l11.2,1l19.6,1.7
							l1.9,0.2l-1.9,0.2l-19.6,1.7l-11.2,1l-4.4,0.4l-12.5,1.1l-2.3,0.2l-173.5,15.3L775.2,672.6z"/>
					</g>
					<path fill="#FFFFFF" d="M775.2,669.1c-0.8-10.6-8.1-21-22.1-29c-14-8.1-32-12.3-50.2-12.7c-2,0-4,0-6,0
						c-18.2,0.4-36.2,4.7-50.1,12.7c-13.9,8.1-21.1,18.5-21.8,29c-0.1,1.1-0.1,2.3,0,3.5c0.8,10.6,8.2,21,22.1,29
						c14,8.1,32,12.3,50.2,12.7c2,0,4,0,5.9,0c18.2-0.4,36.2-4.7,50.1-12.7c13.9-8.1,21.1-18.5,21.8-29
						C775.3,671.4,775.3,670.3,775.2,669.1z M741.6,694.8c-22.8,13.2-59.8,13.2-82.7,0c-22.9-13.2-23-34.7-0.3-47.9
						c22.8-13.2,59.8-13.2,82.7,0C764.3,660.1,764.4,681.6,741.6,694.8z"/>
					<g>
						<path fill="#13548E" d="M625,669.1c-0.1,1.1-0.1,2.3,0,3.5l-23,18.2l-173.6-15.3l-2.3-0.2l-12.5-1.1l-4.4-0.4l-11.2-1
							l-19.6-1.7l-1.9-0.2l1.9-0.2l19.6-1.7l11.2-1l4.4-0.4l12.5-1.1l2.3-0.2L601.9,651L625,669.1z"/>
					</g>
					<g>
						<path fill="#FFFFFF" d="M425.3,833.6c-0.9-0.7-1.9-1.4-3-2c-3.9-2.2-7.8-3.4-11.8-3.6c-4-0.2-7.6,0.6-10.8,2.5
							c-1.7,1-2.9,2-3.5,3.2c-0.6,1.1-0.8,2.3-0.7,3.5c0.2,1.2,0.8,2.7,2,4.6c1.2,2,2,3.4,2.3,4.2c0.3,0.7,0.3,1.4,0.2,1.9
							c-0.2,0.5-0.6,1-1.3,1.4c-1.3,0.7-2.7,1-4.2,0.9c-1.6-0.2-3.2-0.7-4.9-1.7c-1.4-0.8-2.7-1.8-4-3.1c-1.3-1.2-2.6-2.9-3.9-4.9
							l-7.1,4.1c1.5,2.6,4.2,5,8.1,7.2c4.2,2.4,8.5,3.8,12.7,4.1c4.2,0.3,8-0.5,11.3-2.4c2.4-1.4,3.7-2.9,4.1-4.6
							c0.4-1.7-0.4-4-2.1-6.9c-1.4-2.2-2.1-3.6-2.4-4.3c-0.2-0.7-0.2-1.2,0-1.7c0.2-0.5,0.6-0.9,1.3-1.3c1.1-0.6,2.4-0.9,3.8-0.9
							c1.5,0.1,2.9,0.5,4.4,1.4c1.2,0.7,2.3,1.5,3.3,2.4c1,0.9,2,2.2,3.2,3.7l3.2-0.8L425.3,833.6z"/>
					</g>
					<g>
						<path fill="#F74A06" d="M625.1,672.6c0.8,10.6,8.2,21,22.1,29L495.1,790l-69.8,40.6l59.3-46.9l2.6-2.1l7.5-5.9l1.4-1.1
							l106-83.8L625.1,672.6z"/>
					</g>
					<g>
						<path fill="#13548E" d="M704.4,845.8l-2.9,11.3l-0.3,1.1l-0.3-1.1l-3-11.3l-1.7-6.5l-0.7-2.5l-1.9-7.2l-0.4-1.3l-27-100.5
							l31.3-13.4c2,0,4,0,5.9,0l31.4,13.4l-25.9,100.5l-0.3,1.3l-1.9,7.2l-0.7,2.5L704.4,845.8z"/>
					</g>
					<g>
						<path fill="#FF9100" d="M697.4,714.3l-31.3,13.4l-144.3,61.7l-1.9,0.8l-10.2,4.4l-3.6,1.5l-80.8,34.5l69.8-40.6l152.1-88.4
							C661.1,709.7,679.2,713.9,697.4,714.3z"/>
					</g>
					<g>
						<path fill="#FFFFFF" d="M446.5,501.6L401,517.3l-8.8-5.1l14.1-13.9c0.5-0.5,1.6-1.5,3.3-3c1.7-1.5,2.8-2.5,3.5-2.9
							c-1,0.5-2.7,1.2-5,2.1c-2.4,0.9-4.1,1.6-5.1,1.9l-23.9,8.2l-8.8-5.1l26.9-26.4l7.6,4.4l-15.1,14.2c-2.8,2.6-5.4,4.8-7.7,6.5
							c1-0.5,2.7-1.2,5.1-2.1c2.3-0.9,4.2-1.6,5.6-2.1l25.6-8.7l7.3,4.2l-15,14.8c-0.7,0.7-1.8,1.6-3.3,2.9c-1.5,1.3-2.9,2.4-4,3.3
							c1.5-0.7,3.3-1.4,5.6-2.3c2.3-0.9,4.2-1.6,5.7-2.1l24.4-8.8L446.5,501.6z"/>
					</g>
					<g>
						<path fill="#FFFFFF" d="M1025.4,501.6l-36.2,21l-9.8-5.7l11.5-25.1l-0.2-0.1c-4.5,3-7.8,5.1-9.9,6.3l-17,9.9l-6.9-4l36.2-21
							l9.7,5.6l-11.3,24.9l0.2,0.1c4.4-2.9,7.6-4.9,9.6-6l17.1-10L1025.4,501.6z"/>
					</g>
					<g>
						<path fill="#13548E" d="M706.8,512.2l0.4,1.3l27,100.5l-31.3,13.4c-2,0-4,0-6,0L665.5,614l25.9-100.5l0.3-1.3l1.9-7.2l0.7-2.5
							l1.7-6.5l2.9-11.3l0.3-1.1l0.3,1.1l3,11.3l1.7,6.5l0.7,2.5L706.8,512.2z"/>
					</g>
					<g>
						<path fill="#FF9100" d="M974.9,511.2l-69.8,40.6l-152.1,88.4c-14-8.1-32-12.3-50.2-12.7l31.3-13.4l144.3-61.6l1.9-0.8
							l10.2-4.4l3.6-1.5L974.9,511.2z"/>
					</g>
					<g>
						<path fill="#FF9100" d="M646.8,640.1c-13.9,8.1-21.1,18.5-21.8,29L601.9,651L495,567.2l-1.4-1.1l-7.6-5.9l-2.7-2.1l-59.9-46.9
							l70.3,40.6L646.8,640.1z"/>
					</g>
					<g>
						<path fill="#10BCF9" d="M741.3,646.9c22.9,13.2,23,34.7,0.3,47.9s-59.8,13.2-82.7,0s-23-34.7-0.3-47.9
							C681.4,633.7,718.4,633.7,741.3,646.9z"/>
					</g>
					<g>
						<path fill="#FF9100" d="M775.2,672.6l23.2,18.2l106.9,83.8l1.4,1.1l7.6,5.9l2.7,2.1l59.9,46.9L753.4,701.6
							C767.3,693.6,774.5,683.1,775.2,672.6z"/>
					</g>
					<g>
						<path fill="#F74A06" d="M976.7,830.6L895.5,796l-3.6-1.5l-10.3-4.4l-1.9-0.8l-145-61.7l-31.4-13.4
							c18.2-0.4,36.2-4.7,50.1-12.7L976.7,830.6z"/>
					</g>
					<g>
						<polygon fill="#FFFFFF" points="1017.7,831.4 1011.4,835.1 998.2,827.4 990.2,832.1 1002.6,839.2 996.3,842.8 984,835.7 
							974.6,841.1 987.9,848.8 981.5,852.5 960.6,840.4 996.7,819.3 						"/>
					</g>
				</g>
			</g>
		</g>
	</g>
	<g>
		<g>
			<path fill="#FFB600" d="M719.6,655.8l-32.4,18.8c0.4-0.2,0.8-0.6,1.1-1.1l32.4-18.8C720.4,655.2,720.1,655.6,719.6,655.8z"/>
		</g>
		<g>
			<path fill="#FFB600" d="M660.6,484.1l32.4-18.8c-5.8,3.4-9.3,10.5-9.4,20.6c-0.1,20.4,14.3,45.2,32,55.5l-32.4,18.8
				c-17.7-10.2-32.1-35.1-32-55.5C651.3,494.5,654.9,487.4,660.6,484.1z"/>
		</g>
		<g>
			<path fill="#FFB600" d="M738.5,543.6l-32.4,18.8c-5.8,3.4-13.9,2.9-22.9-2.2l32.4-18.8C724.6,546.5,732.7,547,738.5,543.6z"/>
		</g>
		<g>
			<polygon fill="#FFB600" points="742.7,586.6 775,567.8 720.7,654.8 688.4,673.6 			"/>
		</g>
		<g>
			<path fill="#FFB600" d="M638.4,445.8l32.4-18.8c11-6.4,26.1-6,43.4,3.5c0.6,0.3,1.2,0.7,1.7,1c0.6,0.3,1.2,0.7,1.8,1l-32.4,18.8
				c-0.6-0.4-1.2-0.7-1.8-1c-0.6-0.3-1.2-0.7-1.7-1C664.5,439.9,649.4,439.4,638.4,445.8z"/>
		</g>
		<g>
			<path fill="#FFB600" d="M685.3,451.4l32.4-18.8c44.7,27.1,74.1,97.1,57.3,135.2l-32.4,18.8C759.4,548.4,730.1,478.5,685.3,451.4z
				"/>
		</g>
		<path fill="#FFE000" d="M685.3,451.4c-0.6-0.4-1.2-0.7-1.8-1c-0.6-0.3-1.2-0.7-1.7-1c-44.7-24.5-74.4,11.3-57.9,68.7l53.6,149.3
			c1.1,3.2,3.3,5.6,5.4,6.9c2.1,1.2,4.3,1.2,5.4-0.6l54.3-87C759.4,548.4,730.1,478.5,685.3,451.4z M683.3,560.1
			c-17.7-10.2-32.1-35.1-32-55.5c0.1-20.4,14.5-28.6,32.2-18.4c17.7,10.2,32.1,35.1,32,55.5C715.5,562.2,701,570.4,683.3,560.1z"/>
	</g>
</g>
</svg>
