<?xml version="1.0" encoding="UTF-8" ?>
<!DOCTYPE svg PUBLIC "-//W3C//DTD SVG 1.1//EN" "http://www.w3.org/Graphics/SVG/1.1/DTD/svg11.dtd">
<svg width="500" height="500" viewBox="0 0 500 500" version="1.1" xmlns="http://www.w3.org/2000/svg">
<g id="#340b0fff">
<path fill="#340b0f" opacity="1.00" d=" M 233.24 84.17 C 237.71 76.92 247.07 73.17 255.28 75.69 C 265.37 78.25 272.15 89.46 269.54 99.60 C 268.51 105.69 263.71 109.87 259.06 113.37 C 259.41 117.41 260.57 121.34 261.61 125.24 C 264.73 126.00 267.96 125.93 271.14 125.68 C 269.36 132.23 266.48 138.42 264.78 144.99 C 270.86 145.85 276.97 146.61 282.88 148.33 C 301.90 152.62 319.51 161.71 335.37 172.88 C 351.85 186.18 366.06 202.53 375.52 221.57 C 391.10 252.35 394.60 288.96 385.37 322.18 C 383.80 329.20 380.29 335.66 379.36 342.85 C 377.30 343.32 376.82 345.44 375.98 347.03 C 375.81 347.48 375.45 348.38 375.28 348.83 C 371.99 356.44 366.91 363.11 362.21 369.89 C 361.04 370.22 360.31 370.97 360.03 372.15 L 359.84 372.51 C 343.61 392.10 322.53 407.91 298.48 416.51 C 291.08 419.54 283.20 421.02 275.48 422.96 C 240.52 428.94 203.28 421.88 173.58 402.28 C 149.90 386.78 130.91 364.11 120.25 337.86 C 114.84 324.52 111.42 310.35 110.20 296.01 C 109.63 281.68 109.66 267.12 113.37 253.17 C 122.12 213.35 149.73 178.40 185.90 159.83 C 193.23 155.97 201.01 153.08 208.81 150.35 C 207.22 146.88 205.82 143.24 205.76 139.37 C 205.73 135.17 205.76 130.98 205.88 126.79 C 206.84 117.24 211.69 108.17 218.86 101.81 C 222.00 98.79 225.86 96.71 229.48 94.32 C 230.70 90.94 230.92 87.09 233.24 84.17 M 237.79 87.71 C 235.01 91.69 235.27 96.97 237.02 101.31 C 239.71 105.43 243.88 109.12 249.05 109.25 C 256.95 110.00 264.47 102.86 264.32 94.97 C 264.43 87.74 257.94 80.71 250.62 80.84 L 251.34 80.58 C 245.94 80.32 240.53 82.99 237.79 87.71 M 228.41 101.40 C 228.43 101.68 228.46 102.23 228.48 102.51 C 230.30 104.19 232.32 100.24 230.39 99.39 C 229.17 98.02 226.08 100.93 228.41 101.40 M 220.56 107.02 L 221.16 106.60 C 221.71 107.14 222.80 108.22 223.34 108.75 C 224.43 106.91 228.45 105.02 225.59 102.90 C 225.73 102.61 226.01 102.04 226.15 101.76 C 223.99 103.12 221.42 104.42 220.56 107.02 M 220.12 124.05 C 217.98 131.63 219.33 139.56 221.40 146.99 C 226.00 146.26 230.60 145.52 235.20 144.80 C 233.11 138.37 230.61 132.08 228.72 125.58 C 231.98 125.62 235.24 125.52 238.49 125.44 C 238.53 124.99 238.61 124.08 238.64 123.62 C 239.39 120.08 240.63 116.66 241.27 113.10 C 238.05 111.09 235.19 108.61 232.78 105.67 C 226.45 109.88 221.99 116.73 220.12 124.05 M 215.09 113.31 C 216.38 113.93 217.67 114.57 218.96 115.21 C 219.85 113.73 220.72 112.23 221.62 110.75 C 220.99 109.93 220.39 109.09 219.71 108.31 L 219.66 108.37 C 217.12 108.61 215.82 111.16 215.09 113.31 M 210.63 123.75 C 212.27 123.98 213.88 124.32 215.50 124.67 C 216.20 122.23 216.98 119.81 217.84 117.41 C 216.72 116.84 215.59 116.28 214.48 115.71 L 214.54 114.42 C 212.39 117.10 211.15 120.37 210.63 123.75 M 246.41 115.15 C 245.91 118.39 245.27 121.60 244.67 124.82 L 244.74 125.94 C 248.34 126.09 251.99 126.23 255.53 125.39 C 254.58 122.01 254.64 118.17 253.00 115.08 C 250.81 114.86 248.60 115.03 246.41 115.15 M 210.12 125.76 C 210.13 129.56 208.37 134.02 210.67 137.42 L 210.64 135.71 L 211.07 137.10 C 212.04 136.83 213.98 136.29 214.94 136.02 C 215.00 132.96 215.08 129.89 215.20 126.83 C 214.53 126.93 213.19 127.12 212.52 127.21 L 212.77 126.50 C 212.11 126.31 210.79 125.95 210.12 125.76 M 236.61 131.21 C 237.09 132.34 237.58 133.47 238.07 134.60 C 246.02 134.57 253.97 134.57 261.93 134.60 C 262.41 133.47 262.89 132.34 263.38 131.21 C 254.46 131.18 245.54 131.18 236.61 131.21 M 238.87 137.01 C 239.68 139.50 240.47 141.99 241.24 144.50 C 247.09 144.29 252.95 144.32 258.80 144.48 C 259.53 141.97 260.32 139.49 261.12 137.00 C 253.70 137.00 246.29 136.99 238.87 137.01 M 211.00 145.08 C 211.60 146.89 212.12 149.22 214.47 149.37 C 215.66 148.68 216.87 148.01 218.08 147.33 L 216.31 147.19 C 217.33 146.40 217.50 144.02 216.13 143.57 C 215.74 141.72 216.08 139.17 213.74 138.55 C 213.71 139.01 213.66 139.94 213.63 140.41 C 212.93 140.08 211.52 139.43 210.81 139.10 L 210.67 138.60 C 209.65 140.68 210.39 142.99 211.00 145.08 M 217.99 154.81 C 218.27 155.17 218.83 155.90 219.12 156.26 C 219.18 157.03 219.29 158.58 219.35 159.36 C 218.46 158.81 217.56 158.25 216.67 157.70 C 216.45 157.12 216.01 155.95 215.79 155.37 C 211.54 156.30 207.49 157.87 203.47 159.49 C 196.83 161.10 191.15 165.23 184.73 167.47 C 184.92 168.90 185.16 170.33 185.41 171.76 L 184.33 172.54 C 184.17 171.93 183.84 170.70 183.68 170.08 C 183.63 169.68 183.52 168.88 183.46 168.48 C 182.24 169.29 181.03 170.12 179.83 170.96 C 179.65 171.86 179.46 172.77 179.26 173.67 C 178.95 173.99 178.34 174.61 178.03 174.92 C 176.20 174.77 174.14 174.11 172.64 175.60 C 169.08 178.27 165.39 180.85 162.23 184.01 C 149.90 194.61 139.37 207.54 132.06 222.09 C 131.01 223.16 130.33 224.53 130.09 226.01 C 128.88 228.25 127.75 230.53 126.54 232.77 C 126.92 233.09 127.69 233.73 128.07 234.05 C 129.81 236.29 131.64 238.46 133.59 240.52 C 140.45 221.90 152.20 205.19 166.92 191.93 C 169.50 189.76 172.19 187.68 174.12 184.88 C 178.79 183.10 182.00 178.86 185.03 175.07 C 187.66 173.59 190.94 174.89 193.65 173.64 C 210.71 164.91 229.86 160.24 249.03 160.17 C 273.77 159.82 298.43 167.34 319.07 180.94 C 320.90 178.53 322.77 176.15 324.71 173.83 C 314.34 166.82 303.02 161.14 291.03 157.51 C 289.17 158.45 287.35 159.66 285.25 159.92 C 282.91 157.66 281.21 153.35 277.27 154.04 C 257.88 149.10 237.34 150.22 217.99 154.81 M 237.58 165.79 C 198.73 169.66 162.71 193.97 144.58 228.55 C 131.55 252.84 127.07 281.87 133.05 308.84 C 139.78 343.24 162.97 373.79 193.90 390.14 C 216.36 402.19 242.77 406.81 267.98 402.91 C 275.66 401.25 283.51 400.00 290.79 396.95 C 308.88 390.48 325.24 379.38 338.19 365.21 C 364.55 336.73 375.78 294.81 366.17 257.10 C 357.91 220.54 330.90 188.95 296.33 174.60 C 277.92 166.72 257.50 163.74 237.58 165.79 M 320.95 182.37 C 322.61 183.56 324.28 184.74 325.96 185.92 C 328.55 184.14 331.03 182.21 333.56 180.35 C 331.28 178.64 329.08 176.84 326.84 175.11 C 325.04 177.66 323.13 180.13 320.95 182.37 M 328.02 187.63 C 341.79 198.61 352.88 212.67 361.18 228.16 C 362.20 230.57 363.04 233.61 365.83 234.55 C 365.92 234.68 366.11 234.93 366.21 235.06 C 365.83 236.87 365.42 238.77 366.36 240.50 C 372.33 255.42 374.68 271.59 374.71 287.60 C 374.11 291.75 374.23 295.96 373.67 300.12 C 373.03 306.52 370.93 312.67 370.03 319.04 C 369.75 322.25 367.82 324.94 366.75 327.91 C 355.70 358.71 331.55 384.32 301.89 397.99 C 303.66 400.51 305.29 403.12 306.90 405.75 C 316.31 401.10 325.58 395.81 333.48 388.84 C 335.96 387.09 338.29 385.12 340.51 383.06 L 340.79 382.89 L 341.09 382.35 C 350.41 374.18 357.83 364.13 364.64 353.84 C 364.97 352.94 365.29 352.05 365.59 351.16 C 368.93 347.15 370.62 342.12 372.83 337.47 C 372.56 336.90 372.02 335.76 371.75 335.19 C 371.83 333.40 373.85 332.86 375.02 331.88 C 377.88 324.82 380.03 317.48 381.25 309.96 C 380.01 308.94 378.12 308.32 378.07 306.40 C 379.17 306.52 381.38 306.74 382.48 306.86 C 381.72 305.71 380.93 304.61 380.10 303.53 C 380.75 303.25 382.07 302.68 382.72 302.40 C 385.58 280.71 382.96 258.36 375.27 237.89 C 374.02 234.69 373.39 230.74 370.11 228.91 C 368.10 228.17 368.63 226.04 368.70 224.37 C 367.15 220.15 365.04 216.16 362.52 212.45 C 355.15 201.06 346.08 190.74 335.63 182.09 C 333.12 183.97 330.54 185.76 328.02 187.63 M 125.57 235.38 C 124.54 238.43 123.51 241.49 122.51 244.56 C 125.18 246.18 127.78 247.92 130.39 249.63 C 131.04 247.50 131.69 245.37 132.39 243.26 C 130.19 240.57 127.90 237.95 125.57 235.38 M 119.47 255.50 C 122.52 255.97 125.58 256.44 128.64 256.91 C 128.95 255.60 129.27 254.29 129.59 252.98 C 126.88 251.25 124.11 249.60 121.32 247.99 C 120.64 250.48 120.04 252.98 119.47 255.50 M 118.96 258.22 C 116.38 270.03 115.61 282.17 116.47 294.22 C 117.36 294.84 118.22 295.51 119.05 296.21 C 119.45 300.45 119.02 304.70 118.61 308.91 C 121.11 324.99 127.49 340.31 135.74 354.26 C 136.34 355.16 136.84 356.22 137.81 356.79 C 139.88 361.29 143.25 364.99 146.18 368.94 C 149.12 372.36 151.94 375.94 155.46 378.81 C 159.72 384.07 165.40 388.08 170.64 392.34 C 173.00 394.57 176.65 394.71 178.77 397.23 C 180.22 398.86 182.09 400.00 184.01 401.00 C 207.47 414.38 235.08 420.43 261.98 418.02 C 272.53 416.53 283.25 415.10 293.23 411.15 C 292.04 408.44 290.96 405.68 289.92 402.91 C 285.29 404.24 280.64 405.49 275.92 406.41 C 256.01 411.07 234.99 409.90 215.39 404.35 C 212.14 403.28 208.56 403.57 205.48 401.97 C 201.32 400.10 197.59 397.41 193.38 395.62 C 173.58 385.58 156.65 370.02 144.74 351.30 C 127.58 324.41 121.42 290.74 128.03 259.54 C 125.00 259.10 121.98 258.66 118.96 258.22 M 292.39 401.78 C 293.53 404.64 294.58 407.53 295.61 410.44 C 298.30 409.47 300.96 408.43 303.59 407.33 C 301.70 404.83 300.05 402.18 298.42 399.51 C 296.41 400.26 294.40 401.02 292.39 401.78 Z" />
<path fill="#340b0f" opacity="1.00" d=" M 247.09 193.04 C 247.49 189.99 252.52 189.97 252.91 193.05 C 254.06 204.48 254.56 215.98 255.46 227.44 C 262.68 228.56 270.07 229.94 276.43 233.75 C 277.59 232.94 278.64 231.88 280.05 231.50 C 281.88 232.62 281.61 234.93 281.83 236.76 C 283.97 238.41 286.11 240.05 288.28 241.67 C 290.94 239.54 293.32 237.05 296.13 235.09 C 298.26 233.60 301.12 236.57 299.60 238.61 C 297.55 241.35 295.12 243.78 293.07 246.53 C 300.97 255.68 306.18 267.13 307.14 279.24 C 318.38 280.08 329.65 280.72 340.89 281.65 C 343.33 281.45 344.99 284.59 343.43 286.48 C 341.99 287.88 339.83 287.80 337.99 288.04 C 327.71 288.74 317.43 289.47 307.15 290.18 C 306.49 295.25 305.59 300.33 303.85 305.16 C 302.11 309.08 300.19 312.94 297.91 316.57 C 296.34 318.75 294.63 320.83 293.02 322.97 C 295.13 325.54 297.47 327.94 299.47 330.61 C 301.12 332.52 298.71 335.54 296.45 334.53 C 293.54 332.49 291.04 329.94 288.25 327.76 C 279.02 335.53 267.64 340.95 255.51 341.81 C 254.67 352.60 253.98 363.39 253.22 374.19 C 253.17 375.95 252.62 378.24 250.62 378.66 C 248.56 379.19 246.87 377.12 246.90 375.21 C 245.99 364.08 245.41 352.92 244.48 341.79 C 232.25 341.02 221.00 335.35 211.59 327.78 C 208.89 330.03 206.41 332.57 203.50 334.54 C 201.22 335.50 198.89 332.47 200.55 330.58 C 202.54 327.93 204.86 325.54 206.97 322.99 C 199.14 313.75 193.81 302.34 192.85 290.17 C 182.54 289.48 172.22 288.73 161.91 288.03 C 160.10 287.81 158.01 287.86 156.60 286.51 C 155.45 285.21 156.00 283.20 157.19 282.15 C 158.71 281.52 160.37 281.52 161.98 281.37 C 171.42 280.77 180.85 280.07 190.28 279.42 C 190.92 279.38 192.20 279.29 192.84 279.25 C 193.80 267.02 199.21 255.62 207.00 246.27 L 206.40 245.70 C 204.35 243.40 202.27 241.11 200.43 238.64 C 198.84 236.61 201.78 233.52 203.89 235.11 C 206.69 237.06 209.07 239.55 211.74 241.68 C 220.91 233.70 232.43 228.68 244.54 227.44 C 245.43 215.98 245.94 204.48 247.09 193.04 M 213.81 243.55 C 223.10 251.29 232.05 259.44 241.42 267.09 C 242.33 254.72 243.70 242.39 244.35 230.00 C 233.13 231.26 222.18 235.92 213.81 243.55 M 255.65 230.01 C 256.30 242.40 257.67 254.72 258.58 267.09 C 267.94 259.43 276.91 251.30 286.19 243.54 C 277.81 235.93 266.87 231.25 255.65 230.01 M 248.39 238.68 C 248.59 249.48 246.63 260.15 246.19 270.92 C 246.90 270.87 248.33 270.77 249.05 270.72 C 248.94 260.04 249.78 249.29 248.39 238.68 M 250.94 270.72 C 251.66 270.78 253.10 270.90 253.82 270.96 C 253.37 260.68 251.68 250.50 251.56 240.20 C 250.14 250.30 251.08 260.56 250.94 270.72 M 195.29 279.06 C 207.69 278.44 220.02 276.86 232.41 276.13 C 224.77 266.79 216.67 257.83 208.89 248.60 C 201.11 256.83 196.63 267.90 195.29 279.06 M 267.67 276.13 C 280.03 276.89 292.33 278.43 304.71 279.07 C 303.40 267.88 298.84 256.89 291.16 248.57 C 283.37 257.79 275.22 266.71 267.67 276.13 M 219.00 253.83 C 225.06 260.94 231.16 268.04 237.27 275.10 C 238.84 277.26 242.64 273.28 240.27 271.79 C 233.07 265.93 226.38 259.45 219.00 253.83 M 259.74 271.78 C 257.34 273.27 261.16 277.30 262.75 275.09 C 268.84 267.96 275.06 260.94 281.02 253.71 C 273.73 259.49 266.92 265.86 259.74 271.78 M 246.27 276.36 C 243.26 278.14 240.54 281.31 240.94 285.04 C 240.83 288.69 243.70 291.59 246.71 293.20 C 252.54 295.78 259.78 290.25 259.05 283.99 C 258.72 278.06 251.73 273.70 246.27 276.36 M 199.85 283.47 C 211.85 284.25 223.88 283.80 235.90 283.92 C 235.99 283.17 236.19 281.66 236.28 280.91 C 224.11 281.48 212.04 283.22 199.85 283.47 M 263.72 280.91 C 263.82 281.66 264.01 283.17 264.11 283.92 C 276.13 283.80 288.16 284.21 300.16 283.53 C 287.98 283.22 275.89 281.51 263.72 280.91 M 201.70 285.38 C 213.19 286.82 224.79 287.48 236.34 288.50 C 236.20 287.75 235.93 286.25 235.80 285.50 C 224.43 285.53 213.06 285.65 201.70 285.38 M 264.30 285.41 C 264.13 286.19 263.78 287.75 263.61 288.52 C 275.48 287.52 287.37 286.67 299.21 285.42 C 287.57 285.51 275.93 285.62 264.30 285.41 M 195.29 290.37 C 196.57 301.59 201.30 312.42 208.77 320.91 C 216.68 311.71 224.62 302.53 232.50 293.31 C 220.11 292.12 207.71 291.13 195.29 290.37 M 267.51 293.31 C 275.39 302.54 283.32 311.71 291.23 320.91 C 298.69 312.42 303.43 301.60 304.71 290.37 C 292.29 291.13 279.89 292.12 267.51 293.31 M 231.71 300.72 C 227.44 305.87 222.84 310.74 218.72 316.02 C 224.94 310.83 231.01 305.47 237.18 300.23 C 238.64 298.99 240.38 297.89 241.17 296.07 C 240.46 295.08 239.71 294.12 238.92 293.20 C 235.95 295.12 234.11 298.20 231.71 300.72 M 258.85 296.06 C 259.72 298.15 261.83 299.29 263.45 300.74 C 269.32 305.83 275.21 310.88 281.11 315.92 C 276.06 309.33 270.28 303.34 265.03 296.90 C 263.93 295.44 262.55 294.24 261.06 293.20 C 260.28 294.12 259.54 295.07 258.85 296.06 M 248.38 330.47 C 249.78 320.10 249.08 309.56 248.99 299.13 C 248.32 298.86 246.98 298.30 246.30 298.02 C 246.39 308.88 248.62 319.60 248.38 330.47 M 251.02 299.04 C 250.88 309.45 250.40 319.94 251.50 330.32 C 251.55 319.55 253.42 308.92 253.75 298.17 C 253.07 298.39 251.70 298.82 251.02 299.04 M 241.45 302.14 C 232.22 310.05 222.98 317.96 213.82 325.96 C 222.31 333.43 233.15 338.11 244.36 339.42 C 243.72 326.97 242.26 314.58 241.45 302.14 M 258.54 302.14 C 257.75 314.58 256.27 326.97 255.64 339.42 C 266.80 338.01 277.92 333.60 286.12 325.76 C 276.83 317.99 267.79 309.95 258.54 302.14 Z" />
<path fill="#340b0f" opacity="1.00" d=" M 224.30 199.31 C 225.20 197.56 227.57 199.50 226.60 200.93 C 225.67 202.63 223.28 200.75 224.30 199.31 Z" />
<path fill="#340b0f" opacity="1.00" d=" M 329.24 256.43 C 330.66 255.23 332.44 257.66 330.95 258.70 C 329.53 259.84 327.69 257.45 329.24 256.43 Z" />
<path fill="#340b0f" opacity="1.00" d=" M 166.62 315.09 C 168.39 313.30 170.30 314.60 170.06 316.89 C 168.74 316.59 167.02 316.75 166.62 315.09 Z" />
<path fill="#340b0f" opacity="1.00" d=" M 165.46 319.46 C 166.57 318.57 168.60 318.28 169.79 319.17 C 170.38 321.06 170.11 323.10 170.03 325.04 C 170.22 327.55 166.28 327.31 165.90 325.20 C 165.31 323.47 164.00 321.00 165.46 319.46 Z" />
<path fill="#340b0f" opacity="1.00" d=" M 289.36 365.71 C 288.93 362.34 292.93 361.12 295.15 359.56 C 295.94 360.50 296.81 361.40 297.50 362.44 C 297.47 364.81 296.94 367.14 296.69 369.49 C 294.06 368.94 290.43 368.63 289.36 365.71 Z" />
<path fill="#340b0f" opacity="1.00" d=" M 283.50 364.21 C 284.53 362.77 286.89 364.63 285.96 366.04 C 284.89 367.46 282.56 365.62 283.50 364.21 Z" />
</g>
<g id="#fefefdff">
<path fill="#fefefd" opacity="1.00" d=" M 237.79 87.71 C 240.53 82.99 245.94 80.32 251.34 80.58 L 250.62 80.84 C 248.67 81.60 246.39 82.12 245.26 84.06 C 243.54 86.66 241.11 88.67 239.34 91.22 C 238.98 94.68 238.80 98.22 237.02 101.31 C 235.27 96.97 235.01 91.69 237.79 87.71 Z" />
<path fill="#fefefd" opacity="1.00" d=" M 228.41 101.40 C 226.08 100.93 229.17 98.02 230.39 99.39 C 229.96 100.27 229.30 100.94 228.41 101.40 Z" />
<path fill="#fefefd" opacity="1.00" d=" M 220.56 107.02 C 221.42 104.42 223.99 103.12 226.15 101.76 C 226.01 102.04 225.73 102.61 225.59 102.90 C 224.26 104.30 222.74 105.50 221.16 106.60 L 220.56 107.02 Z" />
<path fill="#fefefd" opacity="1.00" d=" M 215.09 113.31 C 215.82 111.16 217.12 108.61 219.66 108.37 C 218.22 110.09 216.73 111.78 215.09 113.31 Z" />
<path fill="#fefefd" opacity="1.00" d=" M 210.12 125.76 C 210.79 125.95 212.11 126.31 212.77 126.50 L 212.52 127.21 C 211.60 129.97 210.14 132.70 210.64 135.71 L 210.67 137.42 C 208.37 134.02 210.13 129.56 210.12 125.76 Z" />
<path fill="#fefefd" opacity="1.00" d=" M 211.00 145.08 C 210.39 142.99 209.65 140.68 210.67 138.60 L 210.81 139.10 C 211.61 142.66 212.99 146.04 214.47 149.37 C 212.12 149.22 211.60 146.89 211.00 145.08 Z" />
<path fill="#fefefd" opacity="1.00" d=" M 132.06 222.09 C 139.37 207.54 149.90 194.61 162.23 184.01 C 161.24 186.08 160.70 188.42 159.28 190.26 C 156.66 192.66 153.32 194.19 151.09 197.02 C 147.25 201.63 143.36 206.19 139.46 210.75 C 136.43 214.18 135.59 219.04 132.06 222.09 Z" />
<path fill="#fefefd" opacity="1.00" d=" M 205.03 206.51 C 206.47 205.34 208.15 207.85 206.65 208.84 C 205.19 210.06 203.53 207.50 205.03 206.51 Z" />
<path fill="#fefefd" opacity="1.00" d=" M 189.04 219.06 C 188.39 215.18 192.32 213.09 194.95 211.18 C 195.28 211.60 195.93 212.43 196.25 212.85 C 193.42 214.43 191.93 217.75 189.04 219.06 Z" />
<path fill="#fefefd" opacity="1.00" d=" M 314.58 217.28 C 319.06 220.37 321.41 225.46 324.07 230.02 C 325.06 231.43 324.81 233.05 324.17 234.54 C 321.65 231.06 320.10 226.99 317.48 223.58 C 316.14 221.66 314.22 219.87 314.58 217.28 Z" />
<path fill="#fefefd" opacity="1.00" d=" M 126.54 232.77 C 127.75 230.53 128.88 228.25 130.09 226.01 C 129.57 228.72 128.95 231.42 128.07 234.05 C 127.69 233.73 126.92 233.09 126.54 232.77 Z" />
<path fill="#fefefd" opacity="1.00" d=" M 361.18 228.16 C 362.81 230.22 364.39 232.34 365.83 234.55 C 363.04 233.61 362.20 230.57 361.18 228.16 Z" />
<path fill="#fefefd" opacity="1.00" d=" M 328.20 244.05 C 329.94 243.43 330.77 246.34 328.96 246.72 C 327.21 247.34 326.40 244.45 328.20 244.05 Z" />
<path fill="#fefefd" opacity="1.00" d=" M 297.91 316.57 C 300.19 312.94 302.11 309.08 303.85 305.16 C 305.42 309.79 301.83 314.51 297.91 316.57 Z" />
<path fill="#fefefd" opacity="1.00" d=" M 308.30 307.92 C 310.17 307.25 311.17 310.44 309.14 310.81 C 307.30 311.39 306.40 308.38 308.30 307.92 Z" />
<path fill="#fefefd" opacity="1.00" d=" M 327.29 329.48 C 328.65 328.28 330.66 330.58 329.06 331.64 C 327.69 332.80 325.67 330.53 327.29 329.48 Z" />
<path fill="#fefefd" opacity="1.00" d=" M 368.86 344.42 C 371.08 341.85 371.08 338.34 371.75 335.19 C 372.02 335.76 372.56 336.90 372.83 337.47 C 370.62 342.12 368.93 347.15 365.59 351.16 C 366.17 348.68 367.24 346.39 368.86 344.42 Z" />
<path fill="#fefefd" opacity="1.00" d=" M 137.81 356.79 C 139.65 357.92 141.91 358.74 142.97 360.77 C 145.45 365.22 148.63 369.25 152.34 372.74 C 154.16 374.28 154.71 376.66 155.46 378.81 C 151.94 375.94 149.12 372.36 146.18 368.94 C 143.25 364.99 139.88 361.29 137.81 356.79 Z" />
<path fill="#fefefd" opacity="1.00" d=" M 185.04 356.72 C 188.54 359.87 192.96 362.27 195.42 366.39 C 191.10 365.64 187.62 362.36 185.16 358.94 C 185.13 358.38 185.07 357.27 185.04 356.72 Z" />
<path fill="#fefefd" opacity="1.00" d=" M 198.01 366.52 C 199.46 365.38 201.17 367.87 199.60 368.84 C 198.14 370.02 196.44 367.47 198.01 366.52 Z" />
<path fill="#fefefd" opacity="1.00" d=" M 204.32 369.22 C 206.00 369.13 205.98 371.91 204.31 371.82 C 202.63 371.90 202.65 369.14 204.32 369.22 Z" />
<path fill="#fefefd" opacity="1.00" d=" M 333.48 388.84 C 335.42 386.46 337.75 384.43 340.51 383.06 C 338.29 385.12 335.96 387.09 333.48 388.84 Z" />
</g>
<g id="#00a99eff">
<path fill="#00a99e" opacity="1.00" d=" M 245.26 84.06 C 246.39 82.12 248.67 81.60 250.62 80.84 C 257.94 80.71 264.43 87.74 264.32 94.97 C 264.47 102.86 256.95 110.00 249.05 109.25 C 243.88 109.12 239.71 105.43 237.02 101.31 C 238.80 98.22 238.98 94.68 239.34 91.22 C 241.11 88.67 243.54 86.66 245.26 84.06 M 247.14 90.69 C 250.01 93.52 248.79 97.75 249.03 101.34 C 247.53 101.46 245.86 102.29 244.46 101.42 C 243.58 100.44 242.87 99.32 242.04 98.30 C 239.78 98.29 241.16 101.17 241.70 102.27 C 243.66 104.88 247.26 104.29 250.00 103.49 C 252.16 103.91 254.51 104.80 256.61 103.61 C 258.61 102.88 259.17 100.60 259.17 98.70 C 257.38 97.39 256.96 100.26 255.86 101.05 C 254.64 102.51 252.54 101.45 250.97 101.34 C 250.99 98.53 250.99 95.71 251.05 92.90 C 252.88 91.41 254.85 88.54 252.36 86.65 C 249.87 84.00 244.57 87.64 247.14 90.69 Z" />
</g>
<g id="#340c0fff">
<path fill="#340c0f" opacity="1.00" d=" M 247.14 90.69 C 244.57 87.64 249.87 84.00 252.36 86.65 C 254.85 88.54 252.88 91.41 251.05 92.90 C 250.99 95.71 250.99 98.53 250.97 101.34 C 252.54 101.45 254.64 102.51 255.86 101.05 C 256.96 100.26 257.38 97.39 259.17 98.70 C 259.17 100.60 258.61 102.88 256.61 103.61 C 254.51 104.80 252.16 103.91 250.00 103.49 C 247.26 104.29 243.66 104.88 241.70 102.27 C 241.16 101.17 239.78 98.29 242.04 98.30 C 242.87 99.32 243.58 100.44 244.46 101.42 C 245.86 102.29 247.53 101.46 249.03 101.34 C 248.79 97.75 250.01 93.52 247.14 90.69 Z" />
<path fill="#340c0f" opacity="1.00" d=" M 244.79 172.38 C 247.53 174.50 250.01 176.91 252.44 179.38 C 252.49 177.25 252.51 175.13 252.55 173.00 C 253.24 173.00 254.60 173.00 255.29 173.00 C 255.36 177.29 255.41 181.59 255.18 185.88 C 252.50 183.60 250.12 181.02 247.58 178.59 C 247.08 181.15 249.00 185.95 244.78 185.53 C 244.67 181.15 244.59 176.76 244.79 172.38 Z" />
<path fill="#340c0f" opacity="1.00" d=" M 220.24 180.37 C 225.47 179.05 230.78 177.96 236.10 177.08 C 237.49 176.55 239.30 178.35 237.64 179.36 C 231.29 180.57 224.80 181.30 218.70 183.60 C 215.84 184.47 212.97 185.32 210.20 186.43 C 208.85 186.99 207.54 187.63 206.23 188.25 C 206.89 189.64 207.54 191.03 208.15 192.45 C 206.19 192.28 205.42 190.48 204.51 189.04 C 194.04 193.82 184.56 200.61 176.21 208.51 C 177.49 209.95 180.39 211.53 178.63 213.72 C 176.41 214.59 175.23 212.12 173.86 210.90 C 171.62 213.27 169.44 215.68 167.40 218.22 C 166.25 219.66 165.13 221.13 164.06 222.63 C 160.01 228.31 156.37 234.34 153.65 240.78 C 154.99 241.77 156.27 242.83 157.41 244.06 C 155.70 243.83 154.01 243.51 152.33 243.18 C 150.08 249.05 148.33 255.09 146.66 261.14 C 145.44 265.58 145.59 270.31 144.15 274.68 C 140.76 274.72 142.64 271.10 142.73 269.05 C 144.11 259.66 146.64 250.50 150.39 241.78 C 149.09 241.08 147.80 240.37 146.53 239.63 C 148.06 238.98 149.63 239.57 151.14 239.87 C 156.46 228.71 163.37 218.35 171.87 209.36 C 170.95 208.15 170.03 206.93 169.14 205.71 C 170.84 203.09 172.96 205.25 174.75 206.50 C 183.34 198.33 193.28 191.77 203.81 186.40 C 203.25 185.42 202.69 184.44 202.13 183.46 C 202.54 183.30 203.36 182.99 203.77 182.83 C 204.31 183.83 204.84 184.83 205.39 185.84 C 206.58 185.35 207.77 184.86 208.97 184.38 C 212.67 182.90 216.38 181.42 220.24 180.37 Z" />
<path fill="#340c0f" opacity="1.00" d=" M 261.36 179.39 C 259.40 179.27 260.02 176.18 261.89 176.80 C 272.56 178.33 283.16 180.75 293.03 185.18 C 293.49 184.07 293.94 182.97 294.40 181.87 C 294.78 181.98 295.53 182.18 295.91 182.28 C 295.49 183.44 295.07 184.59 294.65 185.75 C 305.78 191.17 316.41 197.78 325.26 206.52 C 326.73 205.41 329.63 202.72 330.54 205.88 C 329.83 207.11 329.01 208.27 328.20 209.43 C 336.25 218.07 343.05 227.85 348.16 238.51 C 349.29 237.85 350.44 237.20 351.59 236.57 C 352.22 238.57 350.38 239.28 348.99 240.12 C 353.19 250.28 356.58 260.87 357.48 271.87 L 356.87 272.85 C 356.52 272.79 355.82 272.66 355.47 272.60 C 353.62 261.82 351.22 250.98 346.49 241.04 C 344.98 241.40 343.06 243.28 342.04 241.29 C 343.24 240.57 344.49 239.95 345.74 239.32 C 340.87 228.83 334.14 219.25 326.16 210.90 C 324.75 212.09 323.57 214.65 321.36 213.71 C 319.66 211.50 322.48 209.94 323.79 208.52 C 322.37 207.21 320.95 205.91 319.49 204.65 C 316.57 202.12 313.51 199.75 310.36 197.53 C 305.15 194.03 299.74 190.79 293.95 188.36 C 292.89 189.66 291.82 190.96 290.50 192.01 C 290.81 190.81 291.42 188.42 291.73 187.23 C 282.00 183.32 271.82 180.46 261.36 179.39 Z" />
<path fill="#340c0f" opacity="1.00" d=" M 364.19 222.32 C 365.76 221.82 366.41 224.48 364.85 224.87 C 363.27 225.37 362.63 222.71 364.19 222.32 Z" />
<path fill="#340c0f" opacity="1.00" d=" M 171.73 243.97 C 173.94 243.55 175.21 246.10 177.20 246.70 C 177.64 248.20 178.05 249.70 178.47 251.21 C 177.89 251.37 176.72 251.70 176.14 251.86 C 175.86 250.24 175.60 248.62 175.40 247.00 C 173.35 246.95 171.51 246.46 171.73 243.97 Z" />
<path fill="#340c0f" opacity="1.00" d=" M 355.47 294.76 C 356.03 294.93 357.16 295.27 357.72 295.43 C 356.95 306.48 353.90 317.35 349.63 327.57 C 350.77 328.34 352.32 328.73 353.07 329.98 C 351.64 330.19 350.24 330.04 348.85 329.53 C 347.86 331.41 346.92 333.31 345.96 335.19 C 343.62 339.63 340.90 343.86 338.08 348.00 C 335.05 352.22 331.57 356.07 328.21 360.02 C 329.22 361.52 331.04 362.97 330.04 364.98 C 328.10 365.38 326.72 363.94 325.31 362.91 C 316.60 370.83 306.97 377.85 296.21 382.73 C 296.79 383.99 297.37 385.26 297.92 386.55 C 296.22 386.42 295.37 384.99 294.50 383.74 C 284.23 387.75 273.58 391.71 262.44 391.96 C 262.23 391.49 261.81 390.54 261.60 390.06 C 272.61 388.59 283.58 385.89 293.66 381.14 C 293.16 379.54 291.11 377.53 293.42 376.40 C 294.04 377.76 294.67 379.12 295.29 380.49 C 305.78 375.59 315.40 368.87 323.77 360.87 C 322.45 359.44 320.08 358.24 320.97 355.92 C 323.29 354.54 324.66 357.11 326.21 358.39 C 329.70 354.71 333.02 350.86 335.96 346.72 C 339.01 342.55 341.64 338.09 344.07 333.54 C 344.90 331.92 345.62 330.26 346.38 328.61 C 345.03 327.58 343.67 326.55 342.70 325.14 C 344.31 325.49 345.89 325.94 347.48 326.41 C 351.55 316.28 354.43 305.64 355.47 294.76 Z" />
<path fill="#340c0f" opacity="1.00" d=" M 142.46 297.83 C 142.87 297.31 143.70 296.28 144.11 295.77 C 145.69 300.36 145.72 305.29 147.11 309.93 C 149.03 316.21 150.52 322.70 153.67 328.52 C 154.90 327.79 156.15 327.07 157.40 326.38 C 158.56 328.76 155.75 329.18 154.29 330.14 C 159.16 340.56 165.82 350.12 173.80 358.40 C 175.30 357.09 176.69 354.58 178.99 355.92 C 179.96 358.25 177.55 359.43 176.23 360.87 C 185.00 369.16 195.01 376.33 206.17 381.02 C 207.15 379.68 208.17 378.33 209.56 377.38 C 209.19 378.94 208.76 380.51 208.32 382.06 C 218.31 386.50 229.10 388.78 239.87 390.36 C 239.68 390.89 239.31 391.94 239.13 392.47 C 228.15 391.51 217.43 388.67 207.28 384.41 C 206.35 385.59 205.40 386.76 204.42 387.90 C 204.60 386.81 204.97 384.63 205.15 383.54 C 194.02 378.26 183.75 371.32 174.72 362.93 C 173.27 363.96 171.85 365.38 169.89 364.95 C 169.03 362.95 170.79 361.51 171.78 360.01 C 163.89 351.37 157.03 341.77 152.02 331.17 C 150.56 331.50 149.09 331.80 147.62 332.06 C 148.71 331.09 149.84 330.15 150.96 329.22 C 146.82 319.16 143.56 308.70 142.46 297.83 Z" />
<path fill="#340c0f" opacity="1.00" d=" M 247.45 385.57 C 249.56 384.41 251.90 385.48 254.04 385.97 C 253.81 386.65 253.36 388.00 253.14 388.67 C 251.54 388.28 249.93 387.93 248.32 387.61 C 249.62 390.43 254.16 390.52 254.28 393.96 C 254.66 398.71 244.83 399.35 246.34 394.30 C 248.06 394.59 249.78 394.84 251.52 395.06 C 250.32 393.07 248.23 391.99 246.51 390.55 C 245.04 389.21 245.67 386.31 247.45 385.57 Z" />
</g>
<g id="#bc2e2aff">
<path fill="#bc2e2a" opacity="1.00" d=" M 230.39 99.39 C 232.32 100.24 230.30 104.19 228.48 102.51 C 228.46 102.23 228.43 101.68 228.41 101.40 C 229.30 100.94 229.96 100.27 230.39 99.39 Z" />
<path fill="#bc2e2a" opacity="1.00" d=" M 219.66 108.37 L 219.71 108.31 C 220.39 109.09 220.99 109.93 221.62 110.75 C 220.72 112.23 219.85 113.73 218.96 115.21 C 217.67 114.57 216.38 113.93 215.09 113.31 C 216.73 111.78 218.22 110.09 219.66 108.37 Z" />
<path fill="#bc2e2a" opacity="1.00" d=" M 228.72 125.58 C 232.07 125.13 235.46 124.80 238.64 123.62 C 238.61 124.08 238.53 124.99 238.49 125.44 C 235.24 125.52 231.98 125.62 228.72 125.58 Z" />
<path fill="#bc2e2a" opacity="1.00" d=" M 212.52 127.21 C 213.19 127.12 214.53 126.93 215.20 126.83 C 215.08 129.89 215.00 132.96 214.94 136.02 C 213.98 136.29 212.04 136.83 211.07 137.10 L 210.64 135.71 C 210.14 132.70 211.60 129.97 212.52 127.21 Z" />
<path fill="#bc2e2a" opacity="1.00" d=" M 335.37 172.88 C 343.32 176.78 350.52 181.96 357.10 187.87 C 384.65 209.52 401.75 243.33 404.44 278.11 C 405.83 289.34 404.57 300.66 403.49 311.86 C 398.29 342.26 382.18 370.68 358.77 390.76 C 349.94 399.02 339.30 404.98 328.71 410.65 C 312.40 419.36 293.70 421.93 275.48 422.96 C 283.20 421.02 291.08 419.54 298.48 416.51 C 322.53 407.91 343.61 392.10 359.84 372.51 C 356.35 379.63 349.37 384.13 345.59 391.06 C 353.37 388.95 359.25 382.54 363.47 375.96 C 367.13 371.27 369.36 365.72 372.54 360.74 C 374.23 357.99 375.11 354.87 375.88 351.77 C 376.45 350.49 377.02 349.21 377.58 347.93 C 377.18 347.70 376.38 347.26 375.98 347.03 C 376.82 345.44 377.30 343.32 379.36 342.85 C 380.29 335.66 383.80 329.20 385.37 322.18 C 394.60 288.96 391.10 252.35 375.52 221.57 C 366.06 202.53 351.85 186.18 335.37 172.88 Z" />
</g>
<g id="#ef4c36ff">
<path fill="#ef4c36" opacity="1.00" d=" M 221.16 106.60 C 222.74 105.50 224.26 104.30 225.59 102.90 C 228.45 105.02 224.43 106.91 223.34 108.75 C 222.80 108.22 221.71 107.14 221.16 106.60 Z" />
<path fill="#ef4c36" opacity="1.00" d=" M 214.48 115.71 C 215.59 116.28 216.72 116.84 217.84 117.41 C 216.98 119.81 216.20 122.23 215.50 124.67 C 213.88 124.32 212.27 123.98 210.63 123.75 C 214.87 123.85 213.99 118.55 214.48 115.71 Z" />
<path fill="#ef4c36" opacity="1.00" d=" M 199.85 283.47 C 212.04 283.22 224.11 281.48 236.28 280.91 C 236.19 281.66 235.99 283.17 235.90 283.92 C 223.88 283.80 211.85 284.25 199.85 283.47 Z" />
</g>
<g id="#feffffff">
<path fill="#feffff" opacity="1.00" d=" M 210.63 123.75 C 211.15 120.37 212.39 117.10 214.54 114.42 L 214.48 115.71 C 213.99 118.55 214.87 123.85 210.63 123.75 Z" />
<path fill="#feffff" opacity="1.00" d=" M 217.99 154.81 C 237.34 150.22 257.88 149.10 277.27 154.04 C 276.76 154.18 275.73 154.45 275.21 154.59 C 270.86 152.58 266.42 154.74 262.01 155.13 C 257.98 155.07 254.06 153.93 250.02 153.92 C 243.70 153.86 237.41 152.19 231.09 153.13 C 226.98 153.65 223.01 154.90 219.12 156.26 C 218.83 155.90 218.27 155.17 217.99 154.81 Z" />
</g>
<g id="#5f2314cc">
<path fill="#5f2314" opacity="0.80" d=" M 244.67 124.82 C 248.30 124.93 251.92 125.04 255.53 125.39 C 251.99 126.23 248.34 126.09 244.74 125.94 L 244.67 124.82 Z" />
</g>
<g id="#521414c2">
<path fill="#521414" opacity="0.76" d=" M 261.61 125.24 C 264.78 124.93 268.05 124.69 271.14 125.68 C 267.96 125.93 264.73 126.00 261.61 125.24 Z" />
</g>
<g id="#42130f85">
<path fill="#42130f" opacity="0.52" d=" M 205.76 139.37 C 204.61 135.25 204.67 130.88 205.88 126.79 C 205.76 130.98 205.73 135.17 205.76 139.37 Z" />
</g>
<g id="#ffe753ff">
<path fill="#ffe753" opacity="1.00" d=" M 236.61 131.21 C 245.54 131.18 254.46 131.18 263.38 131.21 C 262.89 132.34 262.41 133.47 261.93 134.60 C 253.97 134.57 246.02 134.57 238.07 134.60 C 237.58 133.47 237.09 132.34 236.61 131.21 Z" />
</g>
<g id="#da5e28ff">
<path fill="#da5e28" opacity="1.00" d=" M 238.87 137.01 C 246.29 136.99 253.70 137.00 261.12 137.00 C 260.32 139.49 259.53 141.97 258.80 144.48 C 252.95 144.32 247.09 144.29 241.24 144.50 C 240.47 141.99 239.68 139.50 238.87 137.01 Z" />
</g>
<g id="#f04b38ff">
<path fill="#f04b38" opacity="1.00" d=" M 213.74 138.55 C 216.08 139.17 215.74 141.72 216.13 143.57 C 214.89 144.46 213.82 147.38 216.31 147.19 L 218.08 147.33 C 216.87 148.01 215.66 148.68 214.47 149.37 C 212.99 146.04 211.61 142.66 210.81 139.10 C 211.52 139.43 212.93 140.08 213.63 140.41 C 213.66 139.94 213.71 139.01 213.74 138.55 Z" />
</g>
<g id="#84291ebf">
<path fill="#84291e" opacity="0.75" d=" M 216.13 143.57 C 217.50 144.02 217.33 146.40 216.31 147.19 C 213.82 147.38 214.89 144.46 216.13 143.57 Z" />
</g>
<g id="#de8527ff">
<path fill="#de8527" opacity="1.00" d=" M 219.12 156.26 C 223.01 154.90 226.98 153.65 231.09 153.13 C 237.41 152.19 243.70 153.86 250.02 153.92 C 254.06 153.93 257.98 155.07 262.01 155.13 C 266.42 154.74 270.86 152.58 275.21 154.59 C 275.73 154.45 276.76 154.18 277.27 154.04 C 281.21 153.35 282.91 157.66 285.25 159.92 C 287.35 159.66 289.17 158.45 291.03 157.51 C 303.02 161.14 314.34 166.82 324.71 173.83 C 322.77 176.15 320.90 178.53 319.07 180.94 C 298.43 167.34 273.77 159.82 249.03 160.17 C 229.86 160.24 210.71 164.91 193.65 173.64 C 190.94 174.89 187.66 173.59 185.03 175.07 C 182.00 178.86 178.79 183.10 174.12 184.88 C 172.19 187.68 169.50 189.76 166.92 191.93 C 152.20 205.19 140.45 221.90 133.59 240.52 C 131.64 238.46 129.81 236.29 128.07 234.05 C 128.95 231.42 129.57 228.72 130.09 226.01 C 130.33 224.53 131.01 223.16 132.06 222.09 C 135.59 219.04 136.43 214.18 139.46 210.75 C 143.36 206.19 147.25 201.63 151.09 197.02 C 153.32 194.19 156.66 192.66 159.28 190.26 C 160.70 188.42 161.24 186.08 162.23 184.01 C 165.39 180.85 169.08 178.27 172.64 175.60 C 174.14 174.11 176.20 174.77 178.03 174.92 C 178.34 174.61 178.95 173.99 179.26 173.67 C 180.59 172.31 182.13 171.18 183.68 170.08 C 183.84 170.70 184.17 171.93 184.33 172.54 L 185.41 171.76 C 185.16 170.33 184.92 168.90 184.73 167.47 C 191.15 165.23 196.83 161.10 203.47 159.49 C 207.92 159.31 212.38 158.96 216.67 157.70 C 217.56 158.25 218.46 158.81 219.35 159.36 C 219.29 158.58 219.18 157.03 219.12 156.26 Z" />
<path fill="#de8527" opacity="1.00" d=" M 328.02 187.63 C 330.54 185.76 333.12 183.97 335.63 182.09 C 346.08 190.74 355.15 201.06 362.52 212.45 C 365.04 216.16 367.15 220.15 368.70 224.37 C 368.63 226.04 368.10 228.17 370.11 228.91 C 373.39 230.74 374.02 234.69 375.27 237.89 C 382.96 258.36 385.58 280.71 382.72 302.40 C 382.07 302.68 380.75 303.25 380.10 303.53 C 380.93 304.61 381.72 305.71 382.48 306.86 C 381.38 306.74 379.17 306.52 378.07 306.40 C 378.12 308.32 380.01 308.94 381.25 309.96 C 380.03 317.48 377.88 324.82 375.02 331.88 C 373.85 332.86 371.83 333.40 371.75 335.19 C 371.08 338.34 371.08 341.85 368.86 344.42 C 367.24 346.39 366.17 348.68 365.59 351.16 C 365.29 352.05 364.97 352.94 364.64 353.84 C 361.58 354.85 356.97 355.21 356.27 359.13 C 355.29 363.05 353.98 367.09 350.81 369.83 C 346.88 373.43 343.36 377.49 341.09 382.35 L 340.79 382.89 L 340.51 383.06 C 337.75 384.43 335.42 386.46 333.48 388.84 C 325.58 395.81 316.31 401.10 306.90 405.75 C 305.29 403.12 303.66 400.51 301.89 397.99 C 331.55 384.32 355.70 358.71 366.75 327.91 C 367.82 324.94 369.75 322.25 370.03 319.04 C 370.93 312.67 373.03 306.52 373.67 300.12 C 374.23 295.96 374.11 291.75 374.71 287.60 C 375.38 284.45 376.44 281.30 376.22 278.04 C 376.02 274.97 374.55 272.12 374.36 269.06 C 374.73 266.35 375.96 263.80 375.95 261.04 C 375.02 258.75 373.23 256.94 372.10 254.76 C 371.57 251.57 373.12 248.27 372.10 245.10 C 371.15 241.24 368.63 238.09 366.21 235.06 C 366.11 234.93 365.92 234.68 365.83 234.55 C 364.39 232.34 362.81 230.22 361.18 228.16 C 352.88 212.67 341.79 198.61 328.02 187.63 M 364.19 222.32 C 362.63 222.71 363.27 225.37 364.85 224.87 C 366.41 224.48 365.76 221.82 364.19 222.32 Z" />
<path fill="#de8527" opacity="1.00" d=" M 210.20 186.43 C 212.97 185.32 215.84 184.47 218.70 183.60 C 218.79 186.37 219.90 189.58 218.16 192.07 C 216.91 193.99 213.73 194.57 212.18 192.71 C 211.11 190.77 210.79 188.54 210.20 186.43 Z" />
<path fill="#de8527" opacity="1.00" d=" M 206.39 196.22 C 208.26 197.77 209.06 200.31 209.61 202.61 C 208.51 205.47 203.93 204.42 203.51 201.58 C 202.54 199.26 204.62 197.34 206.39 196.22 Z" />
<path fill="#de8527" opacity="1.00" d=" M 305.97 203.99 C 305.70 201.03 308.62 199.42 310.36 197.53 C 313.51 199.75 316.57 202.12 319.49 204.65 C 317.03 204.39 314.53 203.82 312.07 204.25 C 310.45 204.95 309.06 206.06 307.61 207.04 C 307.02 206.05 306.06 205.20 305.97 203.99 Z" />
<path fill="#de8527" opacity="1.00" d=" M 164.06 222.63 C 165.13 221.13 166.25 219.66 167.40 218.22 C 169.61 220.09 174.49 221.15 173.25 224.92 C 171.84 227.03 169.35 229.55 166.57 228.53 C 164.43 227.46 164.74 224.61 164.06 222.63 Z" />
<path fill="#de8527" opacity="1.00" d=" M 118.96 258.22 C 121.98 258.66 125.00 259.10 128.03 259.54 C 121.42 290.74 127.58 324.41 144.74 351.30 C 156.65 370.02 173.58 385.58 193.38 395.62 C 197.59 397.41 201.32 400.10 205.48 401.97 C 208.56 403.57 212.14 403.28 215.39 404.35 C 234.99 409.90 256.01 411.07 275.92 406.41 C 280.64 405.49 285.29 404.24 289.92 402.91 C 290.96 405.68 292.04 408.44 293.23 411.15 C 283.25 415.10 272.53 416.53 261.98 418.02 C 235.08 420.43 207.47 414.38 184.01 401.00 C 182.09 400.00 180.22 398.86 178.77 397.23 C 176.65 394.71 173.00 394.57 170.64 392.34 C 165.40 388.08 159.72 384.07 155.46 378.81 C 154.71 376.66 154.16 374.28 152.34 372.74 C 148.63 369.25 145.45 365.22 142.97 360.77 C 141.91 358.74 139.65 357.92 137.81 356.79 C 136.84 356.22 136.34 355.16 135.74 354.26 C 127.49 340.31 121.11 324.99 118.61 308.91 C 119.02 304.70 119.45 300.45 119.05 296.21 C 118.22 295.51 117.36 294.84 116.47 294.22 C 115.61 282.17 116.38 270.03 118.96 258.22 M 120.18 299.82 C 119.66 301.45 120.21 302.01 121.83 301.50 C 122.36 299.86 121.81 299.30 120.18 299.82 M 180.26 395.18 C 179.77 396.81 180.34 397.36 181.96 396.81 C 182.44 395.17 181.88 394.62 180.26 395.18 Z" />
<path fill="#de8527" opacity="1.00" d=" M 246.27 276.36 C 251.73 273.70 258.72 278.06 259.05 283.99 C 259.78 290.25 252.54 295.78 246.71 293.20 C 243.70 291.59 240.83 288.69 240.94 285.04 C 240.54 281.31 243.26 278.14 246.27 276.36 Z" />
<path fill="#de8527" opacity="1.00" d=" M 186.23 308.32 C 189.11 307.64 190.22 311.00 191.01 313.09 C 191.69 315.61 193.78 319.05 191.04 321.06 C 190.63 321.00 189.80 320.89 189.39 320.84 C 187.81 318.35 186.26 315.86 184.43 313.54 C 182.87 311.87 183.98 308.69 186.23 308.32 Z" />
<path fill="#de8527" opacity="1.00" d=" M 341.38 334.00 C 342.06 333.88 343.40 333.65 344.07 333.54 C 341.64 338.09 339.01 342.55 335.96 346.72 C 334.37 344.77 332.79 341.96 334.66 339.62 C 336.23 338.61 338.23 338.74 340.01 338.34 C 340.47 336.89 340.93 335.44 341.38 334.00 Z" />
<path fill="#de8527" opacity="1.00" d=" M 207.65 356.40 C 212.75 356.62 217.91 357.44 222.67 359.34 C 224.60 360.01 223.99 362.41 224.48 363.97 C 224.60 367.09 226.97 369.93 226.10 373.07 C 222.68 375.14 220.98 370.48 219.78 368.14 C 217.90 363.23 211.67 363.81 208.23 360.72 C 206.97 359.61 207.76 357.81 207.65 356.40 Z" />
</g>
<g id="#ffffffff">
<path fill="#ffffff" opacity="1.00" d=" M 203.47 159.49 C 207.49 157.87 211.54 156.30 215.79 155.37 C 216.01 155.95 216.45 157.12 216.67 157.70 C 212.38 158.96 207.92 159.31 203.47 159.49 Z" />
<path fill="#ffffff" opacity="1.00" d=" M 183.46 168.48 C 183.52 168.88 183.63 169.68 183.68 170.08 C 182.13 171.18 180.59 172.31 179.26 173.67 C 179.46 172.77 179.65 171.86 179.83 170.96 C 181.03 170.12 182.24 169.29 183.46 168.48 Z" />
<path fill="#ffffff" opacity="1.00" d=" M 219.00 253.83 C 226.38 259.45 233.07 265.93 240.27 271.79 C 242.64 273.28 238.84 277.26 237.27 275.10 C 231.16 268.04 225.06 260.94 219.00 253.83 Z" />
<path fill="#ffffff" opacity="1.00" d=" M 356.27 359.13 C 356.97 355.21 361.58 354.85 364.64 353.84 C 357.83 364.13 350.41 374.18 341.09 382.35 C 343.36 377.49 346.88 373.43 350.81 369.83 C 353.98 367.09 355.29 363.05 356.27 359.13 Z" />
</g>
<g id="#fecf3bff">
<path fill="#fecf3b" opacity="1.00" d=" M 237.58 165.79 C 257.50 163.74 277.92 166.72 296.33 174.60 C 330.90 188.95 357.91 220.54 366.17 257.10 C 375.78 294.81 364.55 336.73 338.19 365.21 C 325.24 379.38 308.88 390.48 290.79 396.95 C 283.51 400.00 275.66 401.25 267.98 402.91 C 242.77 406.81 216.36 402.19 193.90 390.14 C 162.97 373.79 139.78 343.24 133.05 308.84 C 127.07 281.87 131.55 252.84 144.58 228.55 C 162.71 193.97 198.73 169.66 237.58 165.79 M 244.79 172.38 C 244.59 176.76 244.67 181.15 244.78 185.53 C 249.00 185.95 247.08 181.15 247.58 178.59 C 250.12 181.02 252.50 183.60 255.18 185.88 C 255.41 181.59 255.36 177.29 255.29 173.00 C 254.60 173.00 253.24 173.00 252.55 173.00 C 252.51 175.13 252.49 177.25 252.44 179.38 C 250.01 176.91 247.53 174.50 244.79 172.38 M 210.36 178.30 C 208.26 179.65 209.04 182.32 208.97 184.38 C 207.77 184.86 206.58 185.35 205.39 185.84 C 204.84 184.83 204.31 183.83 203.77 182.83 C 203.36 182.99 202.54 183.30 202.13 183.46 C 202.69 184.44 203.25 185.42 203.81 186.40 C 193.28 191.77 183.34 198.33 174.75 206.50 C 172.96 205.25 170.84 203.09 169.14 205.71 C 170.03 206.93 170.95 208.15 171.87 209.36 C 163.37 218.35 156.46 228.71 151.14 239.87 C 149.63 239.57 148.06 238.98 146.53 239.63 C 147.80 240.37 149.09 241.08 150.39 241.78 C 146.64 250.50 144.11 259.66 142.73 269.05 C 142.64 271.10 140.76 274.72 144.15 274.68 C 145.59 270.31 145.44 265.58 146.66 261.14 C 148.33 255.09 150.08 249.05 152.33 243.18 C 154.01 243.51 155.70 243.83 157.41 244.06 C 156.27 242.83 154.99 241.77 153.65 240.78 C 156.37 234.34 160.01 228.31 164.06 222.63 C 164.74 224.61 164.43 227.46 166.57 228.53 C 169.35 229.55 171.84 227.03 173.25 224.92 C 174.49 221.15 169.61 220.09 167.40 218.22 C 169.44 215.68 171.62 213.27 173.86 210.90 C 175.23 212.12 176.41 214.59 178.63 213.72 C 180.39 211.53 177.49 209.95 176.21 208.51 C 184.56 200.61 194.04 193.82 204.51 189.04 C 205.42 190.48 206.19 192.28 208.15 192.45 C 207.54 191.03 206.89 189.64 206.23 188.25 C 207.54 187.63 208.85 186.99 210.20 186.43 C 210.79 188.54 211.11 190.77 212.18 192.71 C 213.73 194.57 216.91 193.99 218.16 192.07 C 219.90 189.58 218.79 186.37 218.70 183.60 C 224.80 181.30 231.29 180.57 237.64 179.36 C 239.30 178.35 237.49 176.55 236.10 177.08 C 230.78 177.96 225.47 179.05 220.24 180.37 C 218.02 177.38 213.51 175.73 210.36 178.30 M 261.36 179.39 C 271.82 180.46 282.00 183.32 291.73 187.23 C 291.42 188.42 290.81 190.81 290.50 192.01 C 291.82 190.96 292.89 189.66 293.95 188.36 C 299.74 190.79 305.15 194.03 310.36 197.53 C 308.62 199.42 305.70 201.03 305.97 203.99 C 306.06 205.20 307.02 206.05 307.61 207.04 C 309.06 206.06 310.45 204.95 312.07 204.25 C 314.53 203.82 317.03 204.39 319.49 204.65 C 320.95 205.91 322.37 207.21 323.79 208.52 C 322.48 209.94 319.66 211.50 321.36 213.71 C 323.57 214.65 324.75 212.09 326.16 210.90 C 334.14 219.25 340.87 228.83 345.74 239.32 C 344.49 239.95 343.24 240.57 342.04 241.29 C 343.06 243.28 344.98 241.40 346.49 241.04 C 351.22 250.98 353.62 261.82 355.47 272.60 C 355.82 272.66 356.52 272.79 356.87 272.85 L 357.48 271.87 C 356.58 260.87 353.19 250.28 348.99 240.12 C 350.38 239.28 352.22 238.57 351.59 236.57 C 350.44 237.20 349.29 237.85 348.16 238.51 C 343.05 227.85 336.25 218.07 328.20 209.43 C 329.01 208.27 329.83 207.11 330.54 205.88 C 329.63 202.72 326.73 205.41 325.26 206.52 C 316.41 197.78 305.78 191.17 294.65 185.75 C 295.07 184.59 295.49 183.44 295.91 182.28 C 295.53 182.18 294.78 181.98 294.40 181.87 C 293.94 182.97 293.49 184.07 293.03 185.18 C 283.16 180.75 272.56 178.33 261.89 176.80 C 260.02 176.18 259.40 179.27 261.36 179.39 M 247.09 193.04 C 245.94 204.48 245.43 215.98 244.54 227.44 C 232.43 228.68 220.91 233.70 211.74 241.68 C 209.07 239.55 206.69 237.06 203.89 235.11 C 201.78 233.52 198.84 236.61 200.43 238.64 C 202.27 241.11 204.35 243.40 206.40 245.70 C 204.39 245.91 202.05 245.93 200.50 247.41 C 198.74 249.06 199.07 251.68 198.63 253.85 C 194.96 256.80 196.65 262.23 193.47 265.47 C 192.26 267.00 190.60 268.25 189.86 270.10 C 189.85 273.21 190.30 276.31 190.28 279.42 C 180.85 280.07 171.42 280.77 161.98 281.37 C 160.37 281.52 158.71 281.52 157.19 282.15 C 156.00 283.20 155.45 285.21 156.60 286.51 C 158.01 287.86 160.10 287.81 161.91 288.03 C 172.22 288.73 182.54 289.48 192.85 290.17 C 193.81 302.34 199.14 313.75 206.97 322.99 C 204.86 325.54 202.54 327.93 200.55 330.58 C 198.89 332.47 201.22 335.50 203.50 334.54 C 206.41 332.57 208.89 330.03 211.59 327.78 C 221.00 335.35 232.25 341.02 244.48 341.79 C 245.41 352.92 245.99 364.08 246.90 375.21 C 246.87 377.12 248.56 379.19 250.62 378.66 C 252.62 378.24 253.17 375.95 253.22 374.19 C 253.98 363.39 254.67 352.60 255.51 341.81 C 267.64 340.95 279.02 335.53 288.25 327.76 C 291.04 329.94 293.54 332.49 296.45 334.53 C 298.71 335.54 301.12 332.52 299.47 330.61 C 297.47 327.94 295.13 325.54 293.02 322.97 C 294.63 320.83 296.34 318.75 297.91 316.57 C 301.83 314.51 305.42 309.79 303.85 305.16 C 305.59 300.33 306.49 295.25 307.15 290.18 C 317.43 289.47 327.71 288.74 337.99 288.04 C 339.83 287.80 341.99 287.88 343.43 286.48 C 344.99 284.59 343.33 281.45 340.89 281.65 C 329.65 280.72 318.38 280.08 307.14 279.24 C 306.18 267.13 300.97 255.68 293.07 246.53 C 295.12 243.78 297.55 241.35 299.60 238.61 C 301.12 236.57 298.26 233.60 296.13 235.09 C 293.32 237.05 290.94 239.54 288.28 241.67 C 286.11 240.05 283.97 238.41 281.83 236.76 C 281.61 234.93 281.88 232.62 280.05 231.50 C 278.64 231.88 277.59 232.94 276.43 233.75 C 270.07 229.94 262.68 228.56 255.46 227.44 C 254.56 215.98 254.06 204.48 252.91 193.05 C 252.52 189.97 247.49 189.99 247.09 193.04 M 263.73 200.39 C 265.56 199.83 267.39 199.25 269.22 198.66 C 268.52 196.71 266.97 195.33 265.43 194.03 C 263.50 195.68 263.05 197.99 263.73 200.39 M 206.39 196.22 C 204.62 197.34 202.54 199.26 203.51 201.58 C 203.93 204.42 208.51 205.47 209.61 202.61 C 209.06 200.31 208.26 197.77 206.39 196.22 M 224.30 199.31 C 223.28 200.75 225.67 202.63 226.60 200.93 C 227.57 199.50 225.20 197.56 224.30 199.31 M 218.27 204.34 C 218.03 206.03 218.05 207.74 217.99 209.45 C 221.04 209.75 222.31 206.32 221.05 203.89 C 220.35 204.00 218.96 204.23 218.27 204.34 M 225.12 205.34 C 223.76 206.63 225.79 209.31 227.19 207.67 C 228.44 206.41 226.49 203.92 225.12 205.34 M 205.03 206.51 C 203.53 207.50 205.19 210.06 206.65 208.84 C 208.15 207.85 206.47 205.34 205.03 206.51 M 200.43 209.02 C 199.37 210.35 201.69 211.86 202.59 210.50 C 203.66 209.16 201.33 207.66 200.43 209.02 M 189.04 219.06 C 191.93 217.75 193.42 214.43 196.25 212.85 C 195.93 212.43 195.28 211.60 194.95 211.18 C 192.32 213.09 188.39 215.18 189.04 219.06 M 302.13 210.73 C 301.75 212.17 301.37 213.60 301.00 215.04 C 302.91 215.32 305.06 216.04 306.72 214.62 C 306.85 211.97 304.29 211.06 302.13 210.73 M 314.58 217.28 C 314.22 219.87 316.14 221.66 317.48 223.58 C 320.10 226.99 321.65 231.06 324.17 234.54 C 324.81 233.05 325.06 231.43 324.07 230.02 C 321.41 225.46 319.06 220.37 314.58 217.28 M 285.35 229.25 C 283.68 229.10 283.56 231.85 285.23 231.84 C 286.90 232.01 287.03 229.22 285.35 229.25 M 325.17 238.90 C 324.65 240.53 325.21 241.08 326.83 240.56 C 327.34 238.92 326.79 238.37 325.17 238.90 M 171.73 243.97 C 171.51 246.46 173.35 246.95 175.40 247.00 C 175.60 248.62 175.86 250.24 176.14 251.86 C 176.72 251.70 177.89 251.37 178.47 251.21 C 178.05 249.70 177.64 248.20 177.20 246.70 C 175.21 246.10 173.94 243.55 171.73 243.97 M 328.20 244.05 C 326.40 244.45 327.21 247.34 328.96 246.72 C 330.77 246.34 329.94 243.43 328.20 244.05 M 320.11 253.75 C 320.44 255.39 320.00 257.42 321.16 258.78 C 322.43 259.28 323.84 259.46 325.21 259.23 C 327.16 255.90 322.43 254.65 320.11 253.75 M 329.24 256.43 C 327.69 257.45 329.53 259.84 330.95 258.70 C 332.44 257.66 330.66 255.23 329.24 256.43 M 329.84 268.03 C 331.12 270.24 333.28 271.70 335.21 273.29 C 334.92 269.32 334.47 265.37 334.27 261.39 C 330.83 260.88 328.20 265.09 329.84 268.03 M 320.24 263.20 C 319.03 264.62 321.49 266.40 322.52 264.89 C 323.71 263.46 321.26 261.69 320.24 263.20 M 354.27 278.60 C 354.24 282.67 354.23 286.75 354.28 290.83 C 356.89 290.85 359.50 290.85 362.12 290.85 C 362.11 290.22 362.08 288.96 362.06 288.33 C 360.35 288.33 358.64 288.32 356.94 288.33 C 356.94 287.71 356.94 286.48 356.94 285.86 C 358.39 285.85 359.84 285.85 361.29 285.85 C 361.30 285.27 361.32 284.12 361.32 283.54 C 359.39 283.28 356.39 284.13 356.63 281.14 C 358.54 281.09 360.46 281.07 362.38 281.05 C 362.24 280.47 361.98 279.31 361.85 278.73 C 359.34 278.43 356.79 278.59 354.27 278.60 M 135.53 278.41 C 136.56 282.85 138.05 287.16 139.43 291.50 C 140.78 288.99 141.96 286.39 143.21 283.83 C 144.38 286.47 145.51 289.13 146.96 291.63 C 148.66 287.35 149.67 282.84 150.71 278.36 C 146.99 277.82 147.21 282.13 146.25 284.53 C 145.35 282.22 144.33 279.96 143.16 277.78 C 142.02 279.88 141.02 282.05 140.09 284.25 C 139.13 281.77 139.36 277.54 135.53 278.41 M 355.47 294.76 C 354.43 305.64 351.55 316.28 347.48 326.41 C 345.89 325.94 344.31 325.49 342.70 325.14 C 343.67 326.55 345.03 327.58 346.38 328.61 C 345.62 330.26 344.90 331.92 344.07 333.54 C 343.40 333.65 342.06 333.88 341.38 334.00 C 340.93 335.44 340.47 336.89 340.01 338.34 C 338.23 338.74 336.23 338.61 334.66 339.62 C 332.79 341.96 334.37 344.77 335.96 346.72 C 333.02 350.86 329.70 354.71 326.21 358.39 C 324.66 357.11 323.29 354.54 320.97 355.92 C 320.08 358.24 322.45 359.44 323.77 360.87 C 315.40 368.87 305.78 375.59 295.29 380.49 C 294.67 379.12 294.04 377.76 293.42 376.40 C 291.11 377.53 293.16 379.54 293.66 381.14 C 283.58 385.89 272.61 388.59 261.60 390.06 C 261.81 390.54 262.23 391.49 262.44 391.96 C 273.58 391.71 284.23 387.75 294.50 383.74 C 295.37 384.99 296.22 386.42 297.92 386.55 C 297.37 385.26 296.79 383.99 296.21 382.73 C 306.97 377.85 316.60 370.83 325.31 362.91 C 326.72 363.94 328.10 365.38 330.04 364.98 C 331.04 362.97 329.22 361.52 328.21 360.02 C 331.57 356.07 335.05 352.22 338.08 348.00 C 340.04 348.31 342.99 349.65 344.24 347.28 C 345.76 343.47 346.28 339.27 345.96 335.19 C 346.92 333.31 347.86 331.41 348.85 329.53 C 350.24 330.04 351.64 330.19 353.07 329.98 C 352.32 328.73 350.77 328.34 349.63 327.57 C 353.90 317.35 356.95 306.48 357.72 295.43 C 357.16 295.27 356.03 294.93 355.47 294.76 M 167.08 296.20 C 165.19 296.64 166.01 299.79 167.89 299.18 C 169.76 298.72 168.93 295.61 167.08 296.20 M 142.46 297.83 C 143.56 308.70 146.82 319.16 150.96 329.22 C 149.84 330.15 148.71 331.09 147.62 332.06 C 149.09 331.80 150.56 331.50 152.02 331.17 C 157.03 341.77 163.89 351.37 171.78 360.01 C 170.79 361.51 169.03 362.95 169.89 364.95 C 171.85 365.38 173.27 363.96 174.72 362.93 C 183.75 371.32 194.02 378.26 205.15 383.54 C 204.97 384.63 204.60 386.81 204.42 387.90 C 205.40 386.76 206.35 385.59 207.28 384.41 C 217.43 388.67 228.15 391.51 239.13 392.47 C 239.31 391.94 239.68 390.89 239.87 390.36 C 229.10 388.78 218.31 386.50 208.32 382.06 C 208.76 380.51 209.19 378.94 209.56 377.38 C 208.17 378.33 207.15 379.68 206.17 381.02 C 195.01 376.33 185.00 369.16 176.23 360.87 C 177.55 359.43 179.96 358.25 178.99 355.92 C 176.69 354.58 175.30 357.09 173.80 358.40 C 165.82 350.12 159.16 340.56 154.29 330.14 C 155.75 329.18 158.56 328.76 157.40 326.38 C 156.15 327.07 154.90 327.79 153.67 328.52 C 150.52 322.70 149.03 316.21 147.11 309.93 C 145.72 305.29 145.69 300.36 144.11 295.77 C 143.70 296.28 142.87 297.31 142.46 297.83 M 186.23 308.32 C 183.98 308.69 182.87 311.87 184.43 313.54 C 186.26 315.86 187.81 318.35 189.39 320.84 C 189.80 320.89 190.63 321.00 191.04 321.06 C 193.78 319.05 191.69 315.61 191.01 313.09 C 190.22 311.00 189.11 307.64 186.23 308.32 M 308.30 307.92 C 306.40 308.38 307.30 311.39 309.14 310.81 C 311.17 310.44 310.17 307.25 308.30 307.92 M 166.62 315.09 C 167.02 316.75 168.74 316.59 170.06 316.89 C 170.30 314.60 168.39 313.30 166.62 315.09 M 165.46 319.46 C 164.00 321.00 165.31 323.47 165.90 325.20 C 166.28 327.31 170.22 327.55 170.03 325.04 C 170.11 323.10 170.38 321.06 169.79 319.17 C 168.60 318.28 166.57 318.57 165.46 319.46 M 323.90 328.18 C 323.38 329.80 323.94 330.35 325.58 329.83 C 326.08 328.20 325.52 327.65 323.90 328.18 M 334.30 328.22 C 332.70 328.91 332.94 331.01 333.91 332.14 C 337.18 333.82 338.08 325.86 334.30 328.22 M 327.29 329.48 C 325.67 330.53 327.69 332.80 329.06 331.64 C 330.66 330.58 328.65 328.28 327.29 329.48 M 324.06 332.17 C 323.61 333.83 324.18 334.36 325.78 333.77 C 326.22 332.10 325.65 331.57 324.06 332.17 M 185.04 356.72 C 185.07 357.27 185.13 358.38 185.16 358.94 C 187.62 362.36 191.10 365.64 195.42 366.39 C 192.96 362.27 188.54 359.87 185.04 356.72 M 207.65 356.40 C 207.76 357.81 206.97 359.61 208.23 360.72 C 211.67 363.81 217.90 363.23 219.78 368.14 C 220.98 370.48 222.68 375.14 226.10 373.07 C 226.97 369.93 224.60 367.09 224.48 363.97 C 223.99 362.41 224.60 360.01 222.67 359.34 C 217.91 357.44 212.75 356.62 207.65 356.40 M 286.18 360.02 C 285.65 360.76 285.46 361.60 285.60 362.54 C 287.01 363.99 288.87 361.94 288.81 360.37 C 288.16 360.28 286.84 360.11 286.18 360.02 M 289.36 365.71 C 290.43 368.63 294.06 368.94 296.69 369.49 C 296.94 367.14 297.47 364.81 297.50 362.44 C 296.81 361.40 295.94 360.50 295.15 359.56 C 292.93 361.12 288.93 362.34 289.36 365.71 M 229.14 363.10 C 228.64 364.73 229.20 365.28 230.82 364.76 C 231.32 363.12 230.76 362.57 229.14 363.10 M 283.50 364.21 C 282.56 365.62 284.89 367.46 285.96 366.04 C 286.89 364.63 284.53 362.77 283.50 364.21 M 198.01 366.52 C 196.44 367.47 198.14 370.02 199.60 368.84 C 201.17 367.87 199.46 365.38 198.01 366.52 M 204.32 369.22 C 202.65 369.14 202.63 371.90 204.31 371.82 C 205.98 371.91 206.00 369.13 204.32 369.22 M 247.45 385.57 C 245.67 386.31 245.04 389.21 246.51 390.55 C 248.23 391.99 250.32 393.07 251.52 395.06 C 249.78 394.84 248.06 394.59 246.34 394.30 C 244.83 399.35 254.66 398.71 254.28 393.96 C 254.16 390.52 249.62 390.43 248.32 387.61 C 249.93 387.93 251.54 388.28 253.14 388.67 C 253.36 388.00 253.81 386.65 254.04 385.97 C 251.90 385.48 249.56 384.41 247.45 385.57 Z" />
<path fill="#fecf3b" opacity="1.00" d=" M 320.95 182.37 C 323.13 180.13 325.04 177.66 326.84 175.11 C 329.08 176.84 331.28 178.64 333.56 180.35 C 331.03 182.21 328.55 184.14 325.96 185.92 C 324.28 184.74 322.61 183.56 320.95 182.37 Z" />
<path fill="#fecf3b" opacity="1.00" d=" M 125.57 235.38 C 127.90 237.95 130.19 240.57 132.39 243.26 C 131.69 245.37 131.04 247.50 130.39 249.63 C 127.78 247.92 125.18 246.18 122.51 244.56 C 123.51 241.49 124.54 238.43 125.57 235.38 Z" />
<path fill="#fecf3b" opacity="1.00" d=" M 119.47 255.50 C 120.04 252.98 120.64 250.48 121.32 247.99 C 124.11 249.60 126.88 251.25 129.59 252.98 C 129.27 254.29 128.95 255.60 128.64 256.91 C 125.58 256.44 122.52 255.97 119.47 255.50 Z" />
<path fill="#fecf3b" opacity="1.00" d=" M 292.39 401.78 C 294.40 401.02 296.41 400.26 298.42 399.51 C 300.05 402.18 301.70 404.83 303.59 407.33 C 300.96 408.43 298.30 409.47 295.61 410.44 C 294.58 407.53 293.53 404.64 292.39 401.78 Z" />
</g>
<g id="#dd8526ff">
<path fill="#dd8526" opacity="1.00" d=" M 210.36 178.30 C 213.51 175.73 218.02 177.38 220.24 180.37 C 216.38 181.42 212.67 182.90 208.97 184.38 C 209.04 182.32 208.26 179.65 210.36 178.30 Z" />
<path fill="#dd8526" opacity="1.00" d=" M 302.13 210.73 C 304.29 211.06 306.85 211.97 306.72 214.62 C 305.06 216.04 302.91 215.32 301.00 215.04 C 301.37 213.60 301.75 212.17 302.13 210.73 Z" />
</g>
<g id="#dd8627ff">
<path fill="#dd8627" opacity="1.00" d=" M 263.73 200.39 C 263.05 197.99 263.50 195.68 265.43 194.03 C 266.97 195.33 268.52 196.71 269.22 198.66 C 267.39 199.25 265.56 199.83 263.73 200.39 Z" />
</g>
<g id="#340c10ff">
<path fill="#340c10" opacity="1.00" d=" M 218.27 204.34 C 218.96 204.23 220.35 204.00 221.05 203.89 C 222.31 206.32 221.04 209.75 217.99 209.45 C 218.05 207.74 218.03 206.03 218.27 204.34 Z" />
<path fill="#340c10" opacity="1.00" d=" M 135.53 278.41 C 139.36 277.54 139.13 281.77 140.09 284.25 C 141.02 282.05 142.02 279.88 143.16 277.78 C 144.33 279.96 145.35 282.22 146.25 284.53 C 147.21 282.13 146.99 277.82 150.71 278.36 C 149.67 282.84 148.66 287.35 146.96 291.63 C 145.51 289.13 144.38 286.47 143.21 283.83 C 141.96 286.39 140.78 288.99 139.43 291.50 C 138.05 287.16 136.56 282.85 135.53 278.41 Z" />
<path fill="#340c10" opacity="1.00" d=" M 206.56 302.58 C 207.36 302.02 208.17 301.45 208.97 300.89 C 209.40 301.90 209.35 303.02 209.42 304.10 C 208.71 303.72 207.27 302.96 206.56 302.58 Z" />
</g>
<g id="#4a2013ff">
<path fill="#4a2013" opacity="1.00" d=" M 225.12 205.34 C 226.49 203.92 228.44 206.41 227.19 207.67 C 225.79 209.31 223.76 206.63 225.12 205.34 Z" />
</g>
<g id="#fdebaeff">
<path fill="#fdebae" opacity="1.00" d=" M 200.43 209.02 C 201.33 207.66 203.66 209.16 202.59 210.50 C 201.69 211.86 199.37 210.35 200.43 209.02 Z" />
</g>
<g id="#340c0eff">
<path fill="#340c0e" opacity="1.00" d=" M 285.35 229.25 C 287.03 229.22 286.90 232.01 285.23 231.84 C 283.56 231.85 283.68 229.10 285.35 229.25 Z" />
<path fill="#340c0e" opacity="1.00" d=" M 354.27 278.60 C 356.79 278.59 359.34 278.43 361.85 278.73 C 361.98 279.31 362.24 280.47 362.38 281.05 C 360.46 281.07 358.54 281.09 356.63 281.14 C 356.39 284.13 359.39 283.28 361.32 283.54 C 361.32 284.12 361.30 285.27 361.29 285.85 C 359.84 285.85 358.39 285.85 356.94 285.86 C 356.94 286.48 356.94 287.71 356.94 288.33 C 358.64 288.32 360.35 288.33 362.06 288.33 C 362.08 288.96 362.11 290.22 362.12 290.85 C 359.50 290.85 356.89 290.85 354.28 290.83 C 354.23 286.75 354.24 282.67 354.27 278.60 Z" />
</g>
<g id="#f19b36ff">
<path fill="#f19b36" opacity="1.00" d=" M 213.81 243.55 C 222.18 235.92 233.13 231.26 244.35 230.00 C 243.70 242.39 242.33 254.72 241.42 267.09 C 232.05 259.44 223.10 251.29 213.81 243.55 Z" />
<path fill="#f19b36" opacity="1.00" d=" M 255.65 230.01 C 266.87 231.25 277.81 235.93 286.19 243.54 C 276.91 251.30 267.94 259.43 258.58 267.09 C 257.67 254.72 256.30 242.40 255.65 230.01 Z" />
<path fill="#f19b36" opacity="1.00" d=" M 195.29 279.06 C 196.63 267.90 201.11 256.83 208.89 248.60 C 216.67 257.83 224.77 266.79 232.41 276.13 C 220.02 276.86 207.69 278.44 195.29 279.06 Z" />
<path fill="#f19b36" opacity="1.00" d=" M 267.67 276.13 C 275.22 266.71 283.37 257.79 291.16 248.57 C 298.84 256.89 303.40 267.88 304.71 279.07 C 292.33 278.43 280.03 276.89 267.67 276.13 M 290.76 267.96 C 289.57 268.08 288.39 268.22 287.20 268.36 C 286.94 268.77 286.43 269.61 286.17 270.02 C 287.15 270.41 288.14 270.80 289.13 271.19 C 290.37 270.19 291.65 269.24 292.92 268.28 C 292.24 267.88 290.88 267.09 290.20 266.69 L 290.76 267.96 Z" />
<path fill="#f19b36" opacity="1.00" d=" M 195.29 290.37 C 207.71 291.13 220.11 292.12 232.50 293.31 C 224.62 302.53 216.68 311.71 208.77 320.91 C 201.30 312.42 196.57 301.59 195.29 290.37 M 204.06 299.00 C 203.50 300.62 204.04 301.18 205.68 300.66 C 206.24 299.03 205.70 298.48 204.06 299.00 M 206.56 302.58 C 207.27 302.96 208.71 303.72 209.42 304.10 C 209.35 303.02 209.40 301.90 208.97 300.89 C 208.17 301.45 207.36 302.02 206.56 302.58 Z" />
<path fill="#f19b36" opacity="1.00" d=" M 267.51 293.31 C 279.89 292.12 292.29 291.13 304.71 290.37 C 303.43 301.60 298.69 312.42 291.23 320.91 C 283.32 311.71 275.39 302.54 267.51 293.31 Z" />
<path fill="#f19b36" opacity="1.00" d=" M 241.45 302.14 C 242.26 314.58 243.72 326.97 244.36 339.42 C 233.15 338.11 222.31 333.43 213.82 325.96 C 222.98 317.96 232.22 310.05 241.45 302.14 Z" />
<path fill="#f19b36" opacity="1.00" d=" M 258.54 302.14 C 267.79 309.95 276.83 317.99 286.12 325.76 C 277.92 333.60 266.80 338.01 255.64 339.42 C 256.27 326.97 257.75 314.58 258.54 302.14 Z" />
</g>
<g id="#fefefeff">
<path fill="#fefefe" opacity="1.00" d=" M 366.21 235.06 C 368.63 238.09 371.15 241.24 372.10 245.10 C 373.12 248.27 371.57 251.57 372.10 254.76 C 373.23 256.94 375.02 258.75 375.95 261.04 C 375.96 263.80 374.73 266.35 374.36 269.06 C 374.55 272.12 376.02 274.97 376.22 278.04 C 376.44 281.30 375.38 284.45 374.71 287.60 C 374.68 271.59 372.33 255.42 366.36 240.50 C 365.42 238.77 365.83 236.87 366.21 235.06 Z" />
<path fill="#fefefe" opacity="1.00" d=" M 200.50 247.41 C 202.05 245.93 204.39 245.91 206.40 245.70 L 207.00 246.27 C 199.21 255.62 193.80 267.02 192.84 279.25 C 192.20 279.29 190.92 279.38 190.28 279.42 C 190.30 276.31 189.85 273.21 189.86 270.10 C 190.60 268.25 192.26 267.00 193.47 265.47 C 196.65 262.23 194.96 256.80 198.63 253.85 C 199.07 251.68 198.74 249.06 200.50 247.41 Z" />
<path fill="#fefefe" opacity="1.00" d=" M 231.71 300.72 C 234.11 298.20 235.95 295.12 238.92 293.20 C 239.71 294.12 240.46 295.08 241.17 296.07 C 240.38 297.89 238.64 298.99 237.18 300.23 C 231.01 305.47 224.94 310.83 218.72 316.02 C 222.84 310.74 227.44 305.87 231.71 300.72 Z" />
<path fill="#fefefe" opacity="1.00" d=" M 258.85 296.06 C 259.54 295.07 260.28 294.12 261.06 293.20 C 262.55 294.24 263.93 295.44 265.03 296.90 C 270.28 303.34 276.06 309.33 281.11 315.92 C 275.21 310.88 269.32 305.83 263.45 300.74 C 261.83 299.29 259.72 298.15 258.85 296.06 Z" />
</g>
<g id="#01aa9dff">
<path fill="#01aa9d" opacity="1.00" d=" M 248.39 238.68 C 249.78 249.29 248.94 260.04 249.05 270.72 C 248.33 270.77 246.90 270.87 246.19 270.92 C 246.63 260.15 248.59 249.48 248.39 238.68 Z" />
</g>
<g id="#fdf1c9ff">
<path fill="#fdf1c9" opacity="1.00" d=" M 325.17 238.90 C 326.79 238.37 327.34 238.92 326.83 240.56 C 325.21 241.08 324.65 240.53 325.17 238.90 Z" />
</g>
<g id="#f14b36ff">
<path fill="#f14b36" opacity="1.00" d=" M 250.94 270.72 C 251.08 260.56 250.14 250.30 251.56 240.20 C 251.68 250.50 253.37 260.68 253.82 270.96 C 253.10 270.90 251.66 270.78 250.94 270.72 Z" />
</g>
<g id="#fffeffff">
<path fill="#fffeff" opacity="1.00" d=" M 259.74 271.78 C 266.92 265.86 273.73 259.49 281.02 253.71 C 275.06 260.94 268.84 267.96 262.75 275.09 C 261.16 277.30 257.34 273.27 259.74 271.78 Z" />
</g>
<g id="#340d10ff">
<path fill="#340d10" opacity="1.00" d=" M 320.11 253.75 C 322.43 254.65 327.16 255.90 325.21 259.23 C 323.84 259.46 322.43 259.28 321.16 258.78 C 320.00 257.42 320.44 255.39 320.11 253.75 Z" />
<path fill="#340d10" opacity="1.00" d=" M 290.76 267.96 L 290.20 266.69 C 290.88 267.09 292.24 267.88 292.92 268.28 C 291.65 269.24 290.37 270.19 289.13 271.19 C 288.14 270.80 287.15 270.41 286.17 270.02 C 286.43 269.61 286.94 268.77 287.20 268.36 C 288.39 268.22 289.57 268.08 290.76 267.96 Z" />
<path fill="#340d10" opacity="1.00" d=" M 286.18 360.02 C 286.84 360.11 288.16 360.28 288.81 360.37 C 288.87 361.94 287.01 363.99 285.60 362.54 C 285.46 361.60 285.65 360.76 286.18 360.02 Z" />
</g>
<g id="#de8525ff">
<path fill="#de8525" opacity="1.00" d=" M 329.84 268.03 C 328.20 265.09 330.83 260.88 334.27 261.39 C 334.47 265.37 334.92 269.32 335.21 273.29 C 333.28 271.70 331.12 270.24 329.84 268.03 Z" />
</g>
<g id="#e4922aff">
<path fill="#e4922a" opacity="1.00" d=" M 320.24 263.20 C 321.26 261.69 323.71 263.46 322.52 264.89 C 321.49 266.40 319.03 264.62 320.24 263.20 Z" />
</g>
<g id="#02aa9dff">
<path fill="#02aa9d" opacity="1.00" d=" M 263.72 280.91 C 275.89 281.51 287.98 283.22 300.16 283.53 C 288.16 284.21 276.13 283.80 264.11 283.92 C 264.01 283.17 263.82 281.66 263.72 280.91 Z" />
<path fill="#02aa9d" opacity="1.00" d=" M 251.02 299.04 C 251.70 298.82 253.07 298.39 253.75 298.17 C 253.42 308.92 251.55 319.55 251.50 330.32 C 250.40 319.94 250.88 309.45 251.02 299.04 Z" />
</g>
<g id="#02a99eff">
<path fill="#02a99e" opacity="1.00" d=" M 201.70 285.38 C 213.06 285.65 224.43 285.53 235.80 285.50 C 235.93 286.25 236.20 287.75 236.34 288.50 C 224.79 287.48 213.19 286.82 201.70 285.38 Z" />
</g>
<g id="#f04b36ff">
<path fill="#f04b36" opacity="1.00" d=" M 264.30 285.41 C 275.93 285.62 287.57 285.51 299.21 285.42 C 287.37 286.67 275.48 287.52 263.61 288.52 C 263.78 287.75 264.13 286.19 264.30 285.41 Z" />
<path fill="#f04b36" opacity="1.00" d=" M 248.38 330.47 C 248.62 319.60 246.39 308.88 246.30 298.02 C 246.98 298.30 248.32 298.86 248.99 299.13 C 249.08 309.56 249.78 320.10 248.38 330.47 Z" />
</g>
<g id="#e9a12dff">
<path fill="#e9a12d" opacity="1.00" d=" M 167.08 296.20 C 168.93 295.61 169.76 298.72 167.89 299.18 C 166.01 299.79 165.19 296.64 167.08 296.20 Z" />
</g>
<g id="#612c18ff">
<path fill="#612c18" opacity="1.00" d=" M 204.06 299.00 C 205.70 298.48 206.24 299.03 205.68 300.66 C 204.04 301.18 203.50 300.62 204.06 299.00 Z" />
</g>
<g id="#6c3318ff">
<path fill="#6c3318" opacity="1.00" d=" M 120.18 299.82 C 121.81 299.30 122.36 299.86 121.83 301.50 C 120.21 302.01 119.66 301.45 120.18 299.82 Z" />
</g>
<g id="#fef1caff">
<path fill="#fef1ca" opacity="1.00" d=" M 323.90 328.18 C 325.52 327.65 326.08 328.20 325.58 329.83 C 323.94 330.35 323.38 329.80 323.90 328.18 Z" />
</g>
<g id="#e3942aff">
<path fill="#e3942a" opacity="1.00" d=" M 334.30 328.22 C 338.08 325.86 337.18 333.82 333.91 332.14 C 332.94 331.01 332.70 328.91 334.30 328.22 Z" />
</g>
<g id="#fdf8e5ff">
<path fill="#fdf8e5" opacity="1.00" d=" M 324.06 332.17 C 325.65 331.57 326.22 332.10 325.78 333.77 C 324.18 334.36 323.61 333.83 324.06 332.17 Z" />
</g>
<g id="#dd8527ff">
<path fill="#dd8527" opacity="1.00" d=" M 338.08 348.00 C 340.90 343.86 343.62 339.63 345.96 335.19 C 346.28 339.27 345.76 343.47 344.24 347.28 C 342.99 349.65 340.04 348.31 338.08 348.00 Z" />
</g>
<g id="#711b1ae0">
<path fill="#711b1a" opacity="0.88" d=" M 375.28 348.83 C 375.45 348.38 375.81 347.48 375.98 347.03 C 375.81 347.48 375.45 348.38 375.28 348.83 Z" />
</g>
<g id="#1204031a">
<path fill="#120403" opacity="0.10" d=" M 375.98 347.03 C 376.38 347.26 377.18 347.70 377.58 347.93 C 377.02 349.21 376.45 350.49 375.88 351.77 C 375.11 354.87 374.23 357.99 372.54 360.74 C 369.36 365.72 367.13 371.27 363.47 375.96 C 362.23 375.11 361.31 373.90 360.45 372.70 C 360.89 372.00 361.77 370.59 362.21 369.89 C 366.91 363.11 371.99 356.44 375.28 348.83 C 375.45 348.38 375.81 347.48 375.98 347.03 Z" />
</g>
<g id="#df8a27ff">
<path fill="#df8a27" opacity="1.00" d=" M 229.14 363.10 C 230.76 362.57 231.32 363.12 230.82 364.76 C 229.20 365.28 228.64 364.73 229.14 363.10 Z" />
</g>
<g id="#5916158f">
<path fill="#591615" opacity="0.56" d=" M 360.03 372.15 C 360.31 370.97 361.04 370.22 362.21 369.89 C 361.77 370.59 360.89 372.00 360.45 372.70 L 360.03 372.15 Z" />
</g>
<g id="#370e0c4b">
<path fill="#370e0c" opacity="0.29" d=" M 360.03 372.15 L 360.45 372.70 C 361.31 373.90 362.23 375.11 363.47 375.96 C 359.25 382.54 353.37 388.95 345.59 391.06 C 349.37 384.13 356.35 379.63 359.84 372.51 L 360.03 372.15 Z" />
</g>
<g id="#5c2715ff">
<path fill="#5c2715" opacity="1.00" d=" M 180.26 395.18 C 181.88 394.62 182.44 395.17 181.96 396.81 C 180.34 397.36 179.77 396.81 180.26 395.18 Z" />
</g>
</svg>
