<?xml version="1.0" encoding="UTF-8" ?>
<!DOCTYPE svg PUBLIC "-//W3C//DTD SVG 1.1//EN" "http://www.w3.org/Graphics/SVG/1.1/DTD/svg11.dtd">
<svg width="500" height="500" viewBox="0 0 500 500" version="1.1" xmlns="http://www.w3.org/2000/svg">
<g id="#379addff">
<path fill="#379add" opacity="1.00" d=" M 136.45 140.51 C 164.37 129.42 194.14 123.68 223.98 121.09 C 234.31 120.91 244.62 119.81 254.96 120.23 C 266.05 120.72 277.15 121.07 288.17 122.45 C 298.82 124.11 309.57 125.23 320.06 127.77 C 348.22 134.00 375.94 143.86 400.09 159.87 C 420.68 173.34 439.47 191.91 447.10 215.86 C 450.66 225.70 450.40 236.34 450.14 246.65 C 447.95 257.15 444.27 267.40 438.46 276.45 C 426.76 294.88 409.19 308.79 390.41 319.48 C 362.29 335.36 330.77 344.31 298.98 349.10 C 252.70 355.17 204.99 353.01 160.05 339.95 C 145.27 335.60 130.82 330.03 117.10 323.00 C 95.56 311.78 75.12 296.80 61.85 276.10 C 55.69 266.66 51.95 255.86 49.75 244.85 C 49.72 234.83 49.44 224.48 53.04 214.94 C 56.88 202.53 64.15 191.42 72.82 181.84 C 90.17 163.01 112.92 150.03 136.45 140.51 M 229.94 133.08 C 216.86 134.00 203.70 135.10 190.90 138.09 C 164.30 143.22 138.25 152.54 115.40 167.26 C 96.81 179.48 79.66 196.34 73.25 218.21 C 69.89 227.04 71.34 236.68 71.26 245.89 C 71.74 250.72 74.05 255.12 75.32 259.77 C 82.89 278.03 97.41 292.56 113.60 303.48 C 147.11 325.90 187.35 335.91 227.10 339.41 C 249.04 340.47 271.20 340.74 292.94 337.17 C 322.98 333.08 352.66 324.17 378.92 308.82 C 398.02 297.32 415.87 281.69 424.63 260.72 C 425.90 256.09 428.27 251.72 428.73 246.91 C 430.53 236.03 429.44 224.72 425.39 214.44 C 417.92 194.51 401.89 179.07 384.40 167.61 C 357.85 150.35 327.02 140.82 295.96 135.79 C 274.11 132.89 251.96 131.26 229.94 133.08 Z" />
</g>
<g id="#1e1b6aff">
<path fill="#1e1b6a" opacity="1.00" d=" M 229.94 133.08 C 251.96 131.26 274.11 132.89 295.96 135.79 C 327.02 140.82 357.85 150.35 384.40 167.61 C 401.89 179.07 417.92 194.51 425.39 214.44 C 429.44 224.72 430.53 236.03 428.73 246.91 C 428.35 247.65 427.96 248.39 427.56 249.12 C 423.22 231.51 411.58 216.65 397.92 205.14 C 386.73 195.82 374.15 188.14 360.80 182.34 C 362.66 181.20 364.54 180.12 366.40 178.97 C 363.13 176.75 360.16 180.04 357.21 181.19 C 356.82 180.89 356.03 180.28 355.64 179.98 C 356.54 178.13 357.37 176.26 358.24 174.41 C 357.04 173.79 355.84 173.17 354.65 172.54 C 352.23 173.87 349.80 175.19 347.39 176.55 C 330.55 170.48 313.17 165.69 295.39 163.38 C 284.93 161.39 274.29 160.45 263.65 160.21 C 257.96 154.84 250.31 149.37 242.07 151.31 C 238.07 152.99 234.47 155.49 230.68 157.58 C 228.93 158.65 227.16 159.69 225.48 160.87 C 216.56 160.96 207.78 162.61 199.00 164.03 C 188.46 165.40 178.24 168.32 167.99 171.01 C 162.28 172.67 156.82 175.20 150.90 176.13 C 153.21 174.33 149.38 173.12 148.14 173.79 C 144.56 174.73 141.10 176.04 137.58 177.19 C 139.98 174.95 142.37 172.72 144.68 170.39 C 143.95 170.03 142.51 169.31 141.79 168.94 C 138.52 172.21 135.06 175.31 132.04 178.84 C 136.87 181.55 141.75 177.72 146.37 176.38 C 144.94 178.17 143.32 179.80 141.49 181.17 C 136.39 182.76 131.65 185.27 126.97 187.81 C 113.95 194.91 101.67 203.61 91.55 214.51 C 82.77 224.04 75.61 235.38 72.49 248.06 C 72.07 247.34 71.66 246.62 71.26 245.89 C 71.34 236.68 69.89 227.04 73.25 218.21 C 79.66 196.34 96.81 179.48 115.40 167.26 C 138.25 152.54 164.30 143.22 190.90 138.09 C 203.70 135.10 216.86 134.00 229.94 133.08 Z" />
<path fill="#1e1b6a" opacity="1.00" d=" M 350.59 178.00 C 351.23 176.84 352.43 176.13 353.75 176.08 C 353.51 177.24 352.89 178.27 352.07 179.12 C 351.70 178.84 350.96 178.28 350.59 178.00 Z" />
<path fill="#1e1b6a" opacity="1.00" d=" M 49.75 244.85 C 51.95 255.86 55.69 266.66 61.85 276.10 C 75.12 296.80 95.56 311.78 117.10 323.00 C 130.82 330.03 145.27 335.60 160.05 339.95 C 204.99 353.01 252.70 355.17 298.98 349.10 C 330.77 344.31 362.29 335.36 390.41 319.48 C 409.19 308.79 426.76 294.88 438.46 276.45 C 444.27 267.40 447.95 257.15 450.14 246.65 C 450.14 259.69 451.26 273.23 446.59 285.69 C 439.35 307.59 422.60 324.91 404.01 337.85 C 371.22 360.30 332.13 371.81 293.03 376.82 C 272.16 379.77 251.00 379.50 229.97 378.93 C 194.69 376.62 159.40 369.49 127.05 354.90 C 105.47 345.03 84.87 331.88 69.50 313.54 C 58.00 299.67 49.66 282.27 49.76 263.97 C 49.63 257.60 49.59 251.22 49.75 244.85 Z" />
</g>
<g id="#ffb500ff">
<path fill="#ffb500" opacity="1.00" d=" M 230.68 157.58 C 234.47 155.49 238.07 152.99 242.07 151.31 C 250.31 149.37 257.96 154.84 263.65 160.21 C 268.72 165.46 272.78 171.70 275.43 178.50 C 275.95 179.96 276.39 181.45 276.86 182.93 C 277.13 183.85 277.40 184.76 277.66 185.69 C 278.77 190.52 279.23 195.74 277.69 200.53 C 275.44 206.08 271.55 210.74 268.75 216.00 C 266.42 219.04 264.72 222.48 262.59 225.65 C 261.88 226.75 261.19 227.85 260.53 228.97 C 258.22 235.00 251.83 237.09 246.77 240.22 C 249.82 233.15 254.76 227.15 258.43 220.42 C 261.26 215.24 265.86 210.81 266.60 204.71 C 268.08 192.63 263.19 180.58 255.79 171.22 C 249.96 163.29 240.88 157.08 230.68 157.58 Z" />
<path fill="#ffb500" opacity="1.00" d=" M 236.01 172.95 C 238.47 171.34 241.75 172.35 244.01 173.83 C 244.62 177.04 245.20 180.30 246.59 183.29 C 248.66 186.70 250.94 190.12 254.33 192.35 C 254.66 192.60 255.31 193.10 255.64 193.34 C 255.08 195.88 254.95 198.96 252.62 200.59 C 249.71 202.39 246.08 201.22 243.38 199.62 C 237.09 195.21 232.94 187.80 232.74 180.09 C 232.81 177.45 233.47 174.32 236.01 172.95 Z" />
</g>
<g id="#ffe001ff">
<path fill="#ffe001" opacity="1.00" d=" M 225.48 160.87 C 227.16 159.69 228.93 158.65 230.68 157.58 C 240.88 157.08 249.96 163.29 255.79 171.22 C 263.19 180.58 268.08 192.63 266.60 204.71 C 265.86 210.81 261.26 215.24 258.43 220.42 C 254.76 227.15 249.82 233.15 246.77 240.22 C 246.26 240.52 245.24 241.10 244.72 241.39 C 240.62 238.70 240.54 233.33 238.73 229.22 C 238.29 227.97 237.80 226.74 237.32 225.52 C 236.33 223.02 235.48 220.48 234.66 217.94 C 230.73 207.12 226.72 196.33 223.03 185.42 C 222.64 184.36 222.23 183.31 221.84 182.26 C 221.45 179.83 221.15 177.38 221.01 174.92 C 220.81 169.84 222.35 164.87 225.48 160.87 M 236.01 172.95 C 233.47 174.32 232.81 177.45 232.74 180.09 C 232.94 187.80 237.09 195.21 243.38 199.62 C 246.08 201.22 249.71 202.39 252.62 200.59 C 254.95 198.96 255.08 195.88 255.64 193.34 C 255.31 193.10 254.66 192.60 254.33 192.35 L 255.55 193.25 C 255.36 187.33 252.54 181.95 248.73 177.55 L 248.86 177.21 C 247.28 176.04 245.68 174.88 244.01 173.83 C 241.75 172.35 238.47 171.34 236.01 172.95 Z" />
</g>
<g id="#1b67b3ff">
<path fill="#1b67b3" opacity="1.00" d=" M 263.65 160.21 C 274.29 160.45 284.93 161.39 295.39 163.38 C 313.17 165.69 330.55 170.48 347.39 176.55 C 345.71 177.82 343.04 178.45 342.20 180.46 C 345.13 182.20 347.89 178.98 350.59 178.00 C 350.96 178.28 351.70 178.84 352.07 179.12 C 351.24 180.96 350.51 182.84 349.77 184.72 C 350.88 185.34 352.00 185.97 353.12 186.61 C 355.73 185.29 358.31 183.89 360.80 182.34 C 374.15 188.14 386.73 195.82 397.92 205.14 C 411.58 216.65 423.22 231.51 427.56 249.12 C 427.96 248.39 428.35 247.65 428.73 246.91 C 428.27 251.72 425.90 256.09 424.63 260.72 C 415.87 281.69 398.02 297.32 378.92 308.82 C 352.66 324.17 322.98 333.08 292.94 337.17 C 271.20 340.74 249.04 340.47 227.10 339.41 C 187.35 335.91 147.11 325.90 113.60 303.48 C 97.41 292.56 82.89 278.03 75.32 259.77 C 74.05 255.12 71.74 250.72 71.26 245.89 C 71.66 246.62 72.07 247.34 72.49 248.06 C 75.61 235.38 82.77 224.04 91.55 214.51 C 101.67 203.61 113.95 194.91 126.97 187.81 C 131.65 185.27 136.39 182.76 141.49 181.17 C 141.07 181.62 140.24 182.53 139.82 182.98 C 140.95 183.61 142.08 184.23 143.21 184.86 C 148.66 183.09 153.97 180.91 159.44 179.20 C 158.81 178.80 157.55 178.01 156.92 177.61 C 152.92 178.98 148.90 180.31 144.91 181.73 C 146.93 179.88 148.89 177.98 150.90 176.13 C 156.82 175.20 162.28 172.67 167.99 171.01 C 178.24 168.32 188.46 165.40 199.00 164.03 C 207.78 162.61 216.56 160.96 225.48 160.87 C 222.35 164.87 220.81 169.84 221.01 174.92 C 220.48 175.08 219.43 175.41 218.90 175.57 C 219.86 177.81 220.88 180.02 221.84 182.26 C 222.23 183.31 222.64 184.36 223.03 185.42 C 210.19 187.60 197.55 191.32 185.90 197.19 C 176.62 193.37 167.46 189.26 158.15 185.52 C 156.04 184.57 153.90 183.70 151.74 182.90 C 159.93 189.58 168.37 195.96 176.63 202.56 C 164.50 210.55 153.63 222.81 152.91 237.99 C 147.58 238.60 142.22 238.85 136.91 239.55 C 142.23 240.44 147.61 240.81 152.99 241.22 C 153.82 256.44 164.84 268.74 177.11 276.60 C 168.99 283.38 160.16 289.33 152.50 296.63 C 155.17 295.86 157.48 294.21 160.04 293.16 C 168.83 289.46 177.63 285.75 186.37 281.93 C 205.19 291.23 226.39 295.90 247.36 295.50 C 248.34 299.02 249.33 302.55 250.49 306.02 C 251.57 302.01 252.65 298.00 253.73 294.00 C 253.81 294.44 253.97 295.31 254.05 295.74 C 274.69 295.46 295.64 291.41 314.08 281.90 C 325.49 286.65 336.73 291.86 348.30 296.22 C 346.54 294.76 344.75 293.33 342.90 291.98 C 336.47 286.81 329.93 281.79 323.48 276.66 C 335.51 268.60 346.49 256.42 347.09 241.22 C 352.44 240.77 357.79 240.33 363.11 239.58 C 357.80 238.81 352.45 238.61 347.13 238.00 C 346.20 222.79 335.32 210.40 322.94 202.60 C 331.59 195.85 340.06 188.86 348.84 182.28 C 345.91 183.56 342.95 184.76 340.00 185.99 C 331.25 189.70 322.54 193.50 313.77 197.17 C 302.37 191.63 290.17 187.72 277.66 185.69 C 277.40 184.76 277.13 183.85 276.86 182.93 C 278.36 180.58 279.57 178.06 280.65 175.49 C 280.04 175.41 278.83 175.24 278.23 175.15 C 277.46 176.67 276.69 178.18 275.93 179.71 L 275.43 178.50 C 272.78 171.70 268.72 165.46 263.65 160.21 M 190.94 182.19 C 193.07 184.09 194.98 186.20 197.06 188.15 C 197.67 188.10 198.89 188.00 199.49 187.96 C 197.60 185.66 195.33 183.73 193.38 181.49 C 192.56 181.72 191.75 181.95 190.94 182.19 M 306.01 181.55 C 304.15 183.75 302.02 185.69 299.98 187.71 C 300.52 187.84 301.61 188.11 302.16 188.24 C 304.46 186.41 306.35 184.12 308.46 182.09 C 307.64 181.90 306.82 181.73 306.01 181.55 M 149.64 205.82 C 152.42 209.02 157.29 209.62 161.32 210.05 C 158.06 207.46 153.72 206.30 149.64 205.82 M 342.75 207.66 C 341.32 208.35 339.34 208.54 338.71 210.26 C 342.71 209.46 347.04 208.75 350.29 206.11 C 347.64 205.43 345.17 206.83 342.75 207.66 M 139.32 221.61 C 139.18 221.97 138.90 222.67 138.75 223.02 C 142.38 223.92 146.13 224.40 149.85 224.65 C 150.12 224.41 150.67 223.92 150.94 223.68 C 147.05 223.06 143.24 222.00 139.32 221.61 M 348.98 223.67 C 349.25 223.92 349.78 224.41 350.04 224.66 C 353.71 224.38 357.42 223.96 361.00 223.07 C 360.93 222.71 360.81 221.98 360.75 221.61 C 356.78 221.98 352.91 223.04 348.98 223.67 M 139.40 256.17 L 138.72 257.36 C 142.92 256.95 147.11 256.34 151.24 255.48 C 150.91 255.25 150.25 254.81 149.93 254.58 C 146.40 254.84 142.81 255.20 139.40 256.17 M 350.21 254.40 C 349.96 254.71 349.46 255.32 349.21 255.62 C 352.99 256.13 356.73 256.96 360.52 257.34 C 360.80 257.04 361.35 256.45 361.63 256.16 C 357.84 255.43 354.01 254.99 350.21 254.40 M 150.29 272.15 C 149.84 274.13 152.95 273.30 153.90 272.70 C 156.35 271.35 159.83 271.52 161.53 269.04 C 157.65 269.46 153.91 270.74 150.29 272.15 M 338.83 269.21 C 341.48 271.75 345.67 272.04 349.01 273.43 C 349.39 273.12 350.17 272.49 350.55 272.17 C 346.67 271.13 342.93 269.19 338.83 269.21 M 197.26 291.06 C 195.59 293.18 193.70 295.12 191.76 297.00 C 192.72 297.07 193.94 297.91 194.64 296.78 C 196.61 295.15 198.44 293.34 199.95 291.27 C 199.28 291.21 197.93 291.11 197.26 291.06 M 300.75 291.14 C 302.40 293.67 304.80 295.55 306.91 297.66 C 307.42 297.45 308.44 297.03 308.95 296.81 C 306.08 295.08 304.59 290.37 300.75 291.14 M 343.15 300.11 C 346.31 301.54 349.11 305.41 352.91 303.80 C 351.53 302.40 349.96 301.23 348.36 300.12 C 350.82 297.99 353.52 299.54 355.86 300.95 C 356.41 300.66 357.52 300.09 358.07 299.81 C 356.61 298.90 355.16 297.98 353.75 297.02 C 355.87 294.74 358.31 296.35 360.30 297.75 C 361.16 298.83 363.29 297.84 362.85 296.47 C 360.62 295.08 358.24 293.94 355.93 292.71 C 351.57 295.01 347.31 297.47 343.15 300.11 M 141.47 297.34 C 140.42 299.45 142.49 301.30 143.18 303.18 C 141.85 303.39 140.16 304.15 139.10 302.88 C 137.51 301.73 136.10 299.14 134.04 301.18 C 134.01 303.00 135.77 303.98 137.21 304.64 C 140.11 305.93 144.02 306.38 146.45 303.92 C 146.90 301.88 145.47 300.00 144.99 298.06 C 147.66 297.54 149.68 299.18 151.57 300.79 C 151.64 299.59 151.71 298.39 151.78 297.20 C 148.63 295.55 144.32 294.61 141.47 297.34 M 222.31 297.08 C 221.31 299.41 220.32 301.75 219.49 304.15 C 223.28 304.45 223.47 299.75 224.96 297.26 C 224.30 297.22 222.97 297.12 222.31 297.08 M 275.80 297.06 C 277.20 299.56 277.55 304.47 281.25 304.08 C 279.80 301.61 279.81 296.14 275.80 297.06 Z" />
</g>
<g id="#fdfdfdff">
<path fill="#fdfdfd" opacity="1.00" d=" M 132.04 178.84 C 135.06 175.31 138.52 172.21 141.79 168.94 C 142.51 169.31 143.95 170.03 144.68 170.39 C 142.37 172.72 139.98 174.95 137.58 177.19 C 141.10 176.04 144.56 174.73 148.14 173.79 C 149.38 173.12 153.21 174.33 150.90 176.13 C 148.89 177.98 146.93 179.88 144.91 181.73 C 148.90 180.31 152.92 178.98 156.92 177.61 C 157.55 178.01 158.81 178.80 159.44 179.20 C 153.97 180.91 148.66 183.09 143.21 184.86 C 142.08 184.23 140.95 183.61 139.82 182.98 C 140.24 182.53 141.07 181.62 141.49 181.17 C 143.32 179.80 144.94 178.17 146.37 176.38 C 141.75 177.72 136.87 181.55 132.04 178.84 Z" />
<path fill="#fdfdfd" opacity="1.00" d=" M 278.23 175.15 C 278.83 175.24 280.04 175.41 280.65 175.49 C 279.57 178.06 278.36 180.58 276.86 182.93 C 276.39 181.45 275.95 179.96 275.43 178.50 L 275.93 179.71 C 276.69 178.18 277.46 176.67 278.23 175.15 Z" />
<path fill="#fdfdfd" opacity="1.00" d=" M 190.94 182.19 C 191.75 181.95 192.56 181.72 193.38 181.49 C 195.33 183.73 197.60 185.66 199.49 187.96 C 198.89 188.00 197.67 188.10 197.06 188.15 C 194.98 186.20 193.07 184.09 190.94 182.19 Z" />
<path fill="#fdfdfd" opacity="1.00" d=" M 306.01 181.55 C 306.82 181.73 307.64 181.90 308.46 182.09 C 306.35 184.12 304.46 186.41 302.16 188.24 C 301.61 188.11 300.52 187.84 299.98 187.71 C 302.02 185.69 304.15 183.75 306.01 181.55 Z" />
<path fill="#fdfdfd" opacity="1.00" d=" M 149.64 205.82 C 153.72 206.30 158.06 207.46 161.32 210.05 C 157.29 209.62 152.42 209.02 149.64 205.82 Z" />
<path fill="#fdfdfd" opacity="1.00" d=" M 342.75 207.66 C 345.17 206.83 347.64 205.43 350.29 206.11 C 347.04 208.75 342.71 209.46 338.71 210.26 C 339.34 208.54 341.32 208.35 342.75 207.66 Z" />
<path fill="#fdfdfd" opacity="1.00" d=" M 139.32 221.61 C 143.24 222.00 147.05 223.06 150.94 223.68 C 150.67 223.92 150.12 224.41 149.85 224.65 C 146.13 224.40 142.38 223.92 138.75 223.02 C 138.90 222.67 139.18 221.97 139.32 221.61 Z" />
<path fill="#fdfdfd" opacity="1.00" d=" M 348.98 223.67 C 352.91 223.04 356.78 221.98 360.75 221.61 C 360.81 221.98 360.93 222.71 361.00 223.07 C 357.42 223.96 353.71 224.38 350.04 224.66 C 349.78 224.41 349.25 223.92 348.98 223.67 Z" />
<path fill="#fdfdfd" opacity="1.00" d=" M 139.40 256.17 C 142.81 255.20 146.40 254.84 149.93 254.58 C 150.25 254.81 150.91 255.25 151.24 255.48 C 147.11 256.34 142.92 256.95 138.72 257.36 L 139.40 256.17 Z" />
<path fill="#fdfdfd" opacity="1.00" d=" M 350.21 254.40 C 354.01 254.99 357.84 255.43 361.63 256.16 C 361.35 256.45 360.80 257.04 360.52 257.34 C 356.73 256.96 352.99 256.13 349.21 255.62 C 349.46 255.32 349.96 254.71 350.21 254.40 Z" />
<path fill="#fdfdfd" opacity="1.00" d=" M 150.29 272.15 C 153.91 270.74 157.65 269.46 161.53 269.04 C 159.83 271.52 156.35 271.35 153.90 272.70 C 152.95 273.30 149.84 274.13 150.29 272.15 Z" />
<path fill="#fdfdfd" opacity="1.00" d=" M 338.83 269.21 C 342.93 269.19 346.67 271.13 350.55 272.17 C 350.17 272.49 349.39 273.12 349.01 273.43 C 345.67 272.04 341.48 271.75 338.83 269.21 Z" />
<path fill="#fdfdfd" opacity="1.00" d=" M 197.26 291.06 C 197.93 291.11 199.28 291.21 199.95 291.27 C 198.44 293.34 196.61 295.15 194.64 296.78 C 193.94 297.91 192.72 297.07 191.76 297.00 C 193.70 295.12 195.59 293.18 197.26 291.06 Z" />
<path fill="#fdfdfd" opacity="1.00" d=" M 275.80 297.06 C 279.81 296.14 279.80 301.61 281.25 304.08 C 277.55 304.47 277.20 299.56 275.80 297.06 Z" />
</g>
<g id="#fefefeff">
<path fill="#fefefe" opacity="1.00" d=" M 347.39 176.55 C 349.80 175.19 352.23 173.87 354.65 172.54 C 355.84 173.17 357.04 173.79 358.24 174.41 C 357.37 176.26 356.54 178.13 355.64 179.98 C 354.90 180.85 354.34 181.89 354.27 183.05 C 355.53 183.05 356.62 182.29 357.21 181.19 C 360.16 180.04 363.13 176.75 366.40 178.97 C 364.54 180.12 362.66 181.20 360.80 182.34 C 358.31 183.89 355.73 185.29 353.12 186.61 C 352.00 185.97 350.88 185.34 349.77 184.72 C 350.51 182.84 351.24 180.96 352.07 179.12 C 352.89 178.27 353.51 177.24 353.75 176.08 C 352.43 176.13 351.23 176.84 350.59 178.00 C 347.89 178.98 345.13 182.20 342.20 180.46 C 343.04 178.45 345.71 177.82 347.39 176.55 Z" />
<path fill="#fefefe" opacity="1.00" d=" M 231.14 228.54 C 233.13 227.40 235.22 226.44 237.32 225.52 C 237.80 226.74 238.29 227.97 238.73 229.22 C 235.76 230.53 232.73 232.08 230.75 234.75 C 228.28 237.82 228.74 242.71 231.58 245.39 C 236.34 250.27 243.48 251.57 250.02 251.65 C 256.56 251.59 263.74 250.33 268.49 245.45 C 271.37 242.75 271.79 237.85 269.30 234.77 C 267.15 231.86 263.79 230.29 260.53 228.97 C 261.19 227.85 261.88 226.75 262.59 225.65 C 264.83 226.68 267.09 227.69 269.29 228.82 C 273.31 230.81 276.31 234.59 276.89 239.09 C 276.99 239.46 277.18 240.22 277.28 240.60 L 276.91 240.53 C 275.85 244.85 273.01 248.51 269.03 250.51 C 263.65 253.66 257.45 254.92 251.28 255.11 C 250.48 255.11 249.69 255.11 248.90 255.13 C 242.53 254.95 236.20 253.47 230.66 250.27 C 227.91 248.45 225.02 246.20 224.04 242.92 C 223.71 240.87 223.73 238.80 223.60 236.75 C 225.11 233.22 227.82 230.43 231.14 228.54 Z" />
</g>
<g id="#1c67b3ff">
<path fill="#1c67b3" opacity="1.00" d=" M 244.01 173.83 C 245.68 174.88 247.28 176.04 248.86 177.21 L 248.73 177.55 C 248.02 179.46 247.30 181.38 246.59 183.29 C 245.20 180.30 244.62 177.04 244.01 173.83 Z" />
</g>
<g id="#fdfefdff">
<path fill="#fdfefd" opacity="1.00" d=" M 218.90 175.57 C 219.43 175.41 220.48 175.08 221.01 174.92 C 221.15 177.38 221.45 179.83 221.84 182.26 C 220.88 180.02 219.86 177.81 218.90 175.57 Z" />
<path fill="#fdfefd" opacity="1.00" d=" M 300.75 291.14 C 304.59 290.37 306.08 295.08 308.95 296.81 C 308.44 297.03 307.42 297.45 306.91 297.66 C 304.80 295.55 302.40 293.67 300.75 291.14 Z" />
<path fill="#fdfefd" opacity="1.00" d=" M 343.15 300.11 C 347.31 297.47 351.57 295.01 355.93 292.71 C 358.24 293.94 360.62 295.08 362.85 296.47 C 363.29 297.84 361.16 298.83 360.30 297.75 C 358.31 296.35 355.87 294.74 353.75 297.02 C 355.16 297.98 356.61 298.90 358.07 299.81 C 357.52 300.09 356.41 300.66 355.86 300.95 C 353.52 299.54 350.82 297.99 348.36 300.12 C 349.96 301.23 351.53 302.40 352.91 303.80 C 349.11 305.41 346.31 301.54 343.15 300.11 Z" />
<path fill="#fdfefd" opacity="1.00" d=" M 222.31 297.08 C 222.97 297.12 224.30 297.22 224.96 297.26 C 223.47 299.75 223.28 304.45 219.49 304.15 C 220.32 301.75 221.31 299.41 222.31 297.08 Z" />
</g>
<g id="#13558eff">
<path fill="#13558e" opacity="1.00" d=" M 246.59 183.29 C 247.30 181.38 248.02 179.46 248.73 177.55 C 252.54 181.95 255.36 187.33 255.55 193.25 L 254.33 192.35 C 250.94 190.12 248.66 186.70 246.59 183.29 Z" />
</g>
<g id="#75a2d0ff">
<path fill="#75a2d0" opacity="1.00" d=" M 354.27 183.05 C 354.34 181.89 354.90 180.85 355.64 179.98 C 356.03 180.28 356.82 180.89 357.21 181.19 C 356.62 182.29 355.53 183.05 354.27 183.05 Z" />
</g>
<g id="#f74a06ff">
<path fill="#f74a06" opacity="1.00" d=" M 340.00 185.99 C 342.95 184.76 345.91 183.56 348.84 182.28 C 340.06 188.86 331.59 195.85 322.94 202.60 C 310.39 212.48 297.93 222.48 285.31 232.29 C 282.45 234.48 279.47 236.55 276.89 239.09 C 276.31 234.59 273.31 230.81 269.29 228.82 C 274.37 225.20 279.94 222.39 285.29 219.22 C 301.27 209.87 317.28 200.57 333.29 191.28 C 336.14 189.73 338.97 188.12 341.47 186.03 L 340.00 185.99 Z" />
<path fill="#f74a06" opacity="1.00" d=" M 160.84 188.13 C 159.75 187.47 158.97 186.46 158.15 185.52 C 167.46 189.26 176.62 193.37 185.90 197.19 C 202.14 204.14 218.40 211.03 234.66 217.94 C 235.48 220.48 236.33 223.02 237.32 225.52 C 235.22 226.44 233.13 227.40 231.14 228.54 C 207.65 215.16 184.36 201.44 160.84 188.13 Z" />
<path fill="#f74a06" opacity="1.00" d=" M 222.37 238.34 C 222.68 237.94 223.29 237.15 223.60 236.75 C 223.73 238.80 223.71 240.87 224.04 242.92 C 225.02 246.20 227.91 248.45 230.66 250.27 C 228.47 251.96 226.17 253.50 223.74 254.82 C 205.59 265.31 187.49 275.90 169.36 286.44 C 165.72 288.59 161.86 290.39 158.52 293.01 L 160.04 293.16 C 157.48 294.21 155.17 295.86 152.50 296.63 C 160.16 289.33 168.99 283.38 177.11 276.60 C 189.63 266.68 202.20 256.80 214.69 246.84 C 217.23 244.78 220.07 243.04 222.26 240.58 C 222.64 239.87 222.50 239.09 222.37 238.34 Z" />
<path fill="#f74a06" opacity="1.00" d=" M 251.28 255.11 C 257.45 254.92 263.65 253.66 269.03 250.51 C 289.52 262.19 309.85 274.15 330.35 285.83 C 334.40 288.13 338.22 291.07 342.90 291.98 C 344.75 293.33 346.54 294.76 348.30 296.22 C 336.73 291.86 325.49 286.65 314.08 281.90 C 296.80 274.63 279.58 267.22 262.31 259.92 C 258.55 258.50 254.99 256.64 251.28 255.11 Z" />
</g>
<g id="#ff9101ff">
<path fill="#ff9101" opacity="1.00" d=" M 151.74 182.90 C 153.90 183.70 156.04 184.57 158.15 185.52 C 158.97 186.46 159.75 187.47 160.84 188.13 C 184.36 201.44 207.65 215.16 231.14 228.54 C 227.82 230.43 225.11 233.22 223.60 236.75 C 223.29 237.15 222.68 237.94 222.37 238.34 C 219.93 236.36 217.39 234.50 214.94 232.53 C 202.15 222.57 189.42 212.52 176.63 202.56 C 168.37 195.96 159.93 189.58 151.74 182.90 Z" />
<path fill="#ff9101" opacity="1.00" d=" M 313.77 197.17 C 322.54 193.50 331.25 189.70 340.00 185.99 L 341.47 186.03 C 338.97 188.12 336.14 189.73 333.29 191.28 C 317.28 200.57 301.27 209.87 285.29 219.22 C 279.94 222.39 274.37 225.20 269.29 228.82 C 267.09 227.69 264.83 226.68 262.59 225.65 C 264.72 222.48 266.42 219.04 268.75 216.00 C 274.41 214.63 279.41 211.50 284.87 209.57 C 294.47 205.36 304.16 201.36 313.77 197.17 Z" />
<path fill="#ff9101" opacity="1.00" d=" M 276.91 240.53 L 277.28 240.60 C 280.01 242.59 282.69 244.68 285.35 246.78 C 298.05 256.75 310.74 266.73 323.48 276.66 C 329.93 281.79 336.47 286.81 342.90 291.98 C 338.22 291.07 334.40 288.13 330.35 285.83 C 309.85 274.15 289.52 262.19 269.03 250.51 C 273.01 248.51 275.85 244.85 276.91 240.53 Z" />
<path fill="#ff9101" opacity="1.00" d=" M 230.66 250.27 C 236.20 253.47 242.53 254.95 248.90 255.13 C 245.23 256.68 241.70 258.52 237.97 259.93 C 220.76 267.24 203.60 274.66 186.37 281.93 C 177.63 285.75 168.83 289.46 160.04 293.16 L 158.52 293.01 C 161.86 290.39 165.72 288.59 169.36 286.44 C 187.49 275.90 205.59 265.31 223.74 254.82 C 226.17 253.50 228.47 251.96 230.66 250.27 Z" />
</g>
<g id="#10bcfaff">
<path fill="#10bcfa" opacity="1.00" d=" M 185.90 197.19 C 197.55 191.32 210.19 187.60 223.03 185.42 C 226.72 196.33 230.73 207.12 234.66 217.94 C 218.40 211.03 202.14 204.14 185.90 197.19 Z" />
<path fill="#10bcfa" opacity="1.00" d=" M 277.66 185.69 C 290.17 187.72 302.37 191.63 313.77 197.17 C 304.16 201.36 294.47 205.36 284.87 209.57 C 279.41 211.50 274.41 214.63 268.75 216.00 C 271.55 210.74 275.44 206.08 277.69 200.53 C 279.23 195.74 278.77 190.52 277.66 185.69 Z" />
<path fill="#10bcfa" opacity="1.00" d=" M 152.91 237.99 C 153.63 222.81 164.50 210.55 176.63 202.56 C 189.42 212.52 202.15 222.57 214.94 232.53 C 194.28 234.51 173.54 235.68 152.91 237.99 Z" />
<path fill="#10bcfa" opacity="1.00" d=" M 285.31 232.29 C 297.93 222.48 310.39 212.48 322.94 202.60 C 335.32 210.40 346.20 222.79 347.13 238.00 C 326.58 235.50 305.85 234.86 285.31 232.29 Z" />
<path fill="#10bcfa" opacity="1.00" d=" M 246.77 240.22 C 251.83 237.09 258.22 235.00 260.53 228.97 C 263.79 230.29 267.15 231.86 269.30 234.77 C 271.79 237.85 271.37 242.75 268.49 245.45 C 263.74 250.33 256.56 251.59 250.02 251.65 C 243.48 251.57 236.34 250.27 231.58 245.39 C 228.74 242.71 228.28 237.82 230.75 234.75 C 232.73 232.08 235.76 230.53 238.73 229.22 C 240.54 233.33 240.62 238.70 244.72 241.39 C 245.24 241.10 246.26 240.52 246.77 240.22 Z" />
<path fill="#10bcfa" opacity="1.00" d=" M 152.99 241.22 C 162.66 241.81 172.25 243.33 181.92 243.92 C 192.84 244.94 203.81 245.44 214.69 246.84 C 202.20 256.80 189.63 266.68 177.11 276.60 C 164.84 268.74 153.82 256.44 152.99 241.22 Z" />
<path fill="#10bcfa" opacity="1.00" d=" M 320.10 243.76 C 329.12 243.18 338.07 241.77 347.09 241.22 C 346.49 256.42 335.51 268.60 323.48 276.66 C 310.74 266.73 298.05 256.75 285.35 246.78 C 296.91 245.49 308.52 244.79 320.10 243.76 Z" />
<path fill="#10bcfa" opacity="1.00" d=" M 186.37 281.93 C 203.60 274.66 220.76 267.24 237.97 259.93 C 240.84 271.85 244.30 283.62 247.36 295.50 C 226.39 295.90 205.19 291.23 186.37 281.93 Z" />
<path fill="#10bcfa" opacity="1.00" d=" M 262.31 259.92 C 279.58 267.22 296.80 274.63 314.08 281.90 C 295.64 291.41 274.69 295.46 254.05 295.74 C 253.97 295.31 253.81 294.44 253.73 294.00 C 256.45 282.60 259.79 271.37 262.31 259.92 Z" />
</g>
<g id="#13548eff">
<path fill="#13548e" opacity="1.00" d=" M 276.89 239.09 C 279.47 236.55 282.45 234.48 285.31 232.29 C 305.85 234.86 326.58 235.50 347.13 238.00 C 352.45 238.61 357.80 238.81 363.11 239.58 C 357.79 240.33 352.44 240.77 347.09 241.22 C 338.07 241.77 329.12 243.18 320.10 243.76 C 308.52 244.79 296.91 245.49 285.35 246.78 C 282.69 244.68 280.01 242.59 277.28 240.60 C 277.18 240.22 276.99 239.46 276.89 239.09 Z" />
<path fill="#13548e" opacity="1.00" d=" M 152.91 237.99 C 173.54 235.68 194.28 234.51 214.94 232.53 C 217.39 234.50 219.93 236.36 222.37 238.34 C 222.50 239.09 222.64 239.87 222.26 240.58 C 220.07 243.04 217.23 244.78 214.69 246.84 C 203.81 245.44 192.84 244.94 181.92 243.92 C 172.25 243.33 162.66 241.81 152.99 241.22 C 147.61 240.81 142.23 240.44 136.91 239.55 C 142.22 238.85 147.58 238.60 152.91 237.99 Z" />
<path fill="#13548e" opacity="1.00" d=" M 248.90 255.13 C 249.69 255.11 250.48 255.11 251.28 255.11 C 254.99 256.64 258.55 258.50 262.31 259.92 C 259.79 271.37 256.45 282.60 253.73 294.00 C 252.65 298.00 251.57 302.01 250.49 306.02 C 249.33 302.55 248.34 299.02 247.36 295.50 C 244.30 283.62 240.84 271.85 237.97 259.93 C 241.70 258.52 245.23 256.68 248.90 255.13 Z" />
</g>
<g id="#fefffeff">
<path fill="#fefffe" opacity="1.00" d=" M 141.47 297.34 C 144.32 294.61 148.63 295.55 151.78 297.20 C 151.71 298.39 151.64 299.59 151.57 300.79 C 149.68 299.18 147.66 297.54 144.99 298.06 C 145.47 300.00 146.90 301.88 146.45 303.92 C 144.02 306.38 140.11 305.93 137.21 304.64 C 135.77 303.98 134.01 303.00 134.04 301.18 C 136.10 299.14 137.51 301.73 139.10 302.88 C 140.16 304.15 141.85 303.39 143.18 303.18 C 142.49 301.30 140.42 299.45 141.47 297.34 Z" />
</g>
</svg>
