<?xml version="1.0" encoding="UTF-8" ?>
<!DOCTYPE svg PUBLIC "-//W3C//DTD SVG 1.1//EN" "http://www.w3.org/Graphics/SVG/1.1/DTD/svg11.dtd">
<svg width="500" height="500" viewBox="0 0 500 500" version="1.1" xmlns="http://www.w3.org/2000/svg">
<g id="#ffffffff">
<path fill="#ffffff" opacity="1.00" d=" M 0.00 0.00 L 500.00 0.00 L 500.00 500.00 L 0.00 500.00 L 0.00 0.00 M 336.23 64.16 C 333.82 65.33 332.21 67.55 330.35 69.39 C 241.04 162.05 151.74 254.70 62.41 347.34 C 59.69 350.65 59.88 356.02 63.09 358.96 C 80.96 375.44 98.87 391.87 116.80 408.29 C 119.02 410.29 122.21 410.55 125.01 409.84 C 128.54 408.30 130.60 404.89 133.36 402.38 C 221.73 310.73 310.09 219.08 398.43 127.40 C 401.33 124.97 402.16 120.61 400.64 117.21 C 399.41 114.67 396.99 113.07 395.00 111.16 C 378.47 95.98 361.96 80.78 345.40 65.63 C 342.98 63.35 339.26 62.90 336.23 64.16 M 433.20 144.18 C 432.42 144.73 431.69 145.33 431.00 145.98 C 413.03 163.98 395.04 181.96 377.05 199.95 C 375.33 200.98 373.97 202.37 372.93 204.07 C 298.79 278.23 224.64 352.37 150.50 426.52 C 149.09 428.16 146.62 429.57 146.90 432.04 C 146.64 434.70 149.46 436.76 151.95 436.56 C 246.30 436.57 340.65 436.59 435.00 436.54 C 437.95 436.64 439.91 433.77 439.53 431.00 C 439.52 336.99 439.57 242.97 439.53 148.95 C 439.87 145.66 436.34 142.76 433.20 144.18 Z" />
<path fill="#ffffff" opacity="1.00" d=" M 306.65 119.71 C 308.73 117.02 312.57 115.51 315.71 117.33 C 320.78 121.84 325.39 126.87 330.56 131.27 C 327.62 131.61 325.44 133.69 325.23 136.69 C 321.10 132.65 317.00 128.59 312.81 124.61 L 312.15 124.62 C 248.52 190.74 184.75 256.74 121.12 322.86 C 124.94 326.74 129.17 330.23 132.68 334.40 C 130.55 335.70 130.14 338.61 131.24 340.72 C 134.19 343.92 137.70 346.63 140.38 350.06 C 136.59 349.25 134.39 345.77 131.57 343.44 C 126.14 337.84 120.35 332.59 114.82 327.09 C 112.21 324.43 113.11 320.04 115.74 317.74 C 179.36 251.71 242.99 185.70 306.65 119.71 Z" />
<path fill="#ffffff" opacity="1.00" d=" M 305.95 171.45 C 314.85 162.70 323.30 153.49 332.02 144.57 C 333.99 146.06 335.65 147.92 337.38 149.69 C 328.78 158.77 319.93 167.61 311.39 176.74 C 309.46 175.09 307.65 173.32 305.95 171.45 Z" />
<path fill="#ffffff" opacity="1.00" d=" M 273.52 205.12 C 282.35 196.28 290.94 187.20 299.62 178.22 C 301.47 179.90 303.31 181.60 304.98 183.48 C 296.22 192.38 287.39 201.25 279.04 210.53 C 277.09 208.85 275.19 207.08 273.52 205.12 Z" />
<path fill="#ffffff" opacity="1.00" d=" M 241.01 238.82 C 249.74 230.12 258.15 221.02 266.84 212.33 L 267.65 212.18 C 269.19 213.89 271.04 215.31 272.46 217.13 C 263.74 226.09 254.99 235.01 246.54 244.21 C 244.59 242.52 242.74 240.73 241.01 238.82 Z" />
<path fill="#ffffff" opacity="1.00" d=" M 410.11 213.25 C 412.39 212.40 414.97 214.60 414.88 216.91 C 414.91 281.60 414.88 346.28 414.90 410.97 C 415.26 413.25 413.34 415.56 410.97 415.45 C 346.30 415.50 281.63 415.44 216.96 415.47 C 213.64 416.03 211.28 411.98 213.37 409.36 C 278.03 344.70 342.68 280.03 407.36 215.39 C 408.17 214.57 408.98 213.66 410.11 213.25 M 397.61 235.65 C 340.21 293.11 282.66 350.43 225.38 408.01 C 286.04 408.07 346.71 408.04 407.37 408.03 C 407.54 347.35 407.25 286.67 407.50 226.00 C 403.95 228.95 400.92 232.46 397.61 235.65 Z" />
<path fill="#ffffff" opacity="1.00" d=" M 234.52 245.59 C 236.50 246.99 238.09 248.85 239.86 250.50 C 231.60 259.91 222.51 268.61 213.99 277.81 C 212.08 276.19 210.27 274.47 208.60 272.61 C 217.26 263.62 225.96 254.67 234.52 245.59 Z" />
<path fill="#ffffff" opacity="1.00" d=" M 299.44 358.49 C 327.31 330.69 355.08 302.79 382.97 275.01 C 383.34 311.59 383.15 348.24 383.09 384.85 C 346.56 384.82 310.04 384.91 273.52 384.80 C 281.77 375.69 290.88 367.33 299.44 358.49 Z" />
<path fill="#ffffff" opacity="1.00" d=" M 176.11 306.27 C 184.88 297.37 193.43 288.27 202.12 279.29 C 203.96 280.97 205.87 282.60 207.49 284.50 C 198.84 293.49 190.07 302.38 181.52 311.46 C 179.62 309.87 177.62 308.23 176.11 306.27 Z" />
<path fill="#ffffff" opacity="1.00" d=" M 169.59 312.88 C 171.44 314.65 173.38 316.33 175.07 318.25 C 166.32 326.98 157.89 336.04 149.20 344.81 L 148.39 344.81 C 146.84 343.15 144.97 341.76 143.64 339.91 C 152.35 330.97 161.13 322.07 169.59 312.88 Z" />
</g>
<g id="#2a2319ff">
<path fill="#2a2319" opacity="1.00" d=" M 336.23 64.16 C 339.26 62.90 342.98 63.35 345.40 65.63 C 361.96 80.78 378.47 95.98 395.00 111.16 C 396.99 113.07 399.41 114.67 400.64 117.21 C 402.16 120.61 401.33 124.97 398.43 127.40 C 310.09 219.08 221.73 310.73 133.36 402.38 C 130.60 404.89 128.54 408.30 125.01 409.84 C 122.21 410.55 119.02 410.29 116.80 408.29 C 98.87 391.87 80.96 375.44 63.09 358.96 C 59.88 356.02 59.69 350.65 62.41 347.34 C 151.74 254.70 241.04 162.05 330.35 69.39 C 332.21 67.55 333.82 65.33 336.23 64.16 M 339.45 73.10 C 339.19 73.41 338.67 74.01 338.41 74.32 C 249.04 167.25 159.33 259.89 70.06 352.90 C 87.47 368.76 104.75 384.76 122.12 400.65 C 133.47 389.05 144.68 377.30 155.94 365.61 L 155.95 364.94 C 150.79 359.96 145.73 354.79 140.38 350.06 C 137.70 346.63 134.19 343.92 131.24 340.72 C 130.14 338.61 130.55 335.70 132.68 334.40 C 137.36 331.59 140.50 337.42 143.64 339.91 C 144.97 341.76 146.84 343.15 148.39 344.81 C 153.60 348.88 157.77 354.21 163.00 358.23 C 171.70 349.44 180.15 340.40 188.82 331.58 C 184.27 327.10 179.59 322.77 175.07 318.25 C 173.38 316.33 171.44 314.65 169.59 312.88 C 167.48 310.87 165.07 309.08 163.39 306.67 C 161.24 302.91 165.94 298.23 169.72 300.34 C 172.09 302.01 174.01 304.27 176.11 306.27 C 177.62 308.23 179.62 309.87 181.52 311.46 C 186.10 315.85 190.69 320.24 195.22 324.68 C 204.01 316.03 212.46 306.93 221.06 298.04 C 217.04 293.17 211.87 289.14 207.49 284.50 C 205.87 282.60 203.96 280.97 202.12 279.29 C 200.03 277.20 197.56 275.41 195.88 272.95 C 193.81 269.20 198.46 264.50 202.21 266.66 C 204.53 268.41 206.53 270.56 208.60 272.61 C 210.27 274.47 212.08 276.19 213.99 277.81 C 218.55 282.11 223.12 286.41 227.51 290.89 C 227.74 290.78 228.18 290.56 228.40 290.45 C 236.88 281.71 245.31 272.91 253.77 264.15 C 249.14 259.60 244.25 255.28 239.86 250.50 C 238.09 248.85 236.50 246.99 234.52 245.59 C 232.45 243.41 229.85 241.66 228.24 239.08 C 226.29 235.20 231.23 230.78 234.89 233.06 C 237.10 234.79 238.96 236.91 241.01 238.82 C 242.74 240.73 244.59 242.52 246.54 244.21 C 251.39 248.34 255.53 253.47 260.61 257.21 C 268.93 248.22 277.59 239.55 286.04 230.68 C 282.01 225.80 276.85 221.76 272.46 217.13 C 271.04 215.31 269.19 213.89 267.65 212.18 C 265.30 210.65 263.48 208.44 261.46 206.52 C 258.90 203.73 261.20 198.67 265.02 198.82 C 268.83 199.07 270.77 202.97 273.52 205.12 C 275.19 207.08 277.09 208.85 279.04 210.53 C 283.71 214.83 288.21 219.31 292.79 223.70 C 301.42 214.72 310.06 205.75 318.71 196.80 C 314.18 192.31 309.50 187.97 304.98 183.48 C 303.31 181.60 301.47 179.90 299.62 178.22 C 297.45 176.18 295.07 174.27 293.27 171.89 C 291.24 168.16 295.68 163.60 299.46 165.48 C 301.93 167.07 303.78 169.48 305.95 171.45 C 307.65 173.32 309.46 175.09 311.39 176.74 C 316.30 180.87 320.45 186.05 325.59 189.82 C 333.84 180.67 342.92 172.19 351.02 162.97 C 346.54 158.48 341.87 154.18 337.38 149.69 C 335.65 147.92 333.99 146.06 332.02 144.57 C 329.65 142.05 326.37 140.10 325.23 136.69 C 325.44 133.69 327.62 131.61 330.56 131.27 C 331.45 131.77 332.54 131.96 333.28 132.72 C 341.33 140.46 349.35 148.23 357.40 155.96 L 357.99 155.97 C 369.37 144.34 380.59 132.55 391.91 120.86 C 374.70 105.09 357.53 89.29 340.34 73.50 C 340.12 73.40 339.67 73.20 339.45 73.10 Z" />
<path fill="#2a2319" opacity="1.00" d=" M 433.20 144.18 C 436.34 142.76 439.87 145.66 439.53 148.95 C 439.57 242.97 439.52 336.99 439.53 431.00 C 439.91 433.77 437.95 436.64 435.00 436.54 C 340.65 436.59 246.30 436.57 151.95 436.56 C 149.46 436.76 146.64 434.70 146.90 432.04 C 146.62 429.57 149.09 428.16 150.50 426.52 C 224.64 352.37 298.79 278.23 372.93 204.07 C 373.97 202.37 375.33 200.98 377.05 199.95 C 395.04 181.96 413.03 163.98 431.00 145.98 C 431.69 145.33 432.42 144.73 433.20 144.18 M 400.34 189.83 C 404.06 193.40 407.78 196.98 411.49 200.57 C 413.37 202.15 413.72 205.22 412.05 207.09 C 410.35 209.37 406.64 209.34 404.80 207.23 C 401.19 203.68 397.52 200.20 393.91 196.66 C 391.58 197.89 390.06 200.39 388.02 202.10 C 387.15 203.26 385.35 203.98 385.21 205.54 C 389.06 209.09 392.96 212.64 396.49 216.51 C 398.88 220.45 393.90 225.38 389.98 222.97 C 386.09 219.45 382.33 215.76 378.63 212.05 C 374.42 214.94 371.07 219.39 367.24 222.92 C 370.90 226.54 374.74 230.00 378.27 233.75 C 381.23 237.45 376.39 243.06 372.29 240.64 C 367.96 237.43 364.66 232.74 360.26 229.73 C 357.39 232.84 354.31 235.74 351.37 238.78 C 354.98 242.41 358.86 245.80 362.37 249.53 C 365.15 253.43 360.07 258.88 356.02 256.20 C 352.14 252.84 348.58 249.13 344.89 245.57 C 341.04 248.64 337.73 252.53 334.17 255.99 C 337.51 259.29 340.92 262.52 344.30 265.77 C 346.11 267.25 346.49 270.08 345.19 272.02 C 343.70 274.29 340.12 274.80 338.13 272.90 C 334.63 269.61 331.19 266.26 327.75 262.90 C 324.11 265.36 321.26 269.11 318.02 272.16 L 318.05 272.84 C 321.32 276.33 325.12 279.35 328.24 282.98 C 330.96 286.71 326.06 291.98 322.10 289.64 C 318.10 286.51 314.79 282.56 310.94 279.24 C 307.61 282.48 304.30 285.74 301.08 289.09 C 304.44 292.66 308.40 295.72 311.49 299.51 C 313.86 303.37 308.91 308.30 305.07 305.86 C 301.38 302.80 298.13 299.23 294.62 295.97 C 291.05 298.44 288.32 302.08 285.10 305.03 C 288.21 308.17 291.60 311.05 294.57 314.32 C 297.28 317.92 292.87 323.18 288.85 321.30 C 284.81 318.81 282.15 314.23 278.10 311.98 C 274.94 315.60 270.73 318.57 268.16 322.54 C 271.39 325.38 274.40 328.47 277.52 331.43 C 279.52 333.01 279.91 336.26 278.14 338.17 C 276.48 340.14 273.22 340.46 271.38 338.55 C 268.07 335.45 264.81 332.30 261.61 329.09 C 259.68 329.72 258.56 331.80 257.03 333.08 C 255.48 334.97 253.09 336.34 252.08 338.58 C 255.52 341.92 259.17 345.10 262.40 348.64 C 264.99 352.30 260.47 357.58 256.49 355.45 C 252.23 352.62 249.15 347.79 244.94 345.24 C 241.54 348.43 238.35 351.85 234.99 355.09 C 238.20 359.04 242.42 362.25 245.92 366.02 C 247.14 367.69 247.10 370.09 245.87 371.75 C 244.30 373.94 240.71 374.17 238.85 372.25 C 235.42 368.87 231.84 365.64 228.54 362.15 C 226.28 363.04 224.95 365.54 223.07 367.06 C 221.90 368.65 219.58 369.66 219.14 371.62 C 222.92 374.90 226.43 378.48 229.99 381.98 C 233.11 385.73 228.28 391.59 224.02 389.03 C 219.76 385.71 216.36 381.22 212.06 378.06 C 208.83 381.68 204.65 384.68 202.00 388.67 C 205.46 392.03 209.08 395.25 212.37 398.78 C 215.37 402.50 210.32 408.10 206.27 405.59 C 202.32 402.35 198.86 398.53 195.10 395.06 C 185.36 404.67 175.74 414.41 166.05 424.07 C 165.07 425.14 163.71 425.94 163.20 427.38 C 252.22 427.22 341.25 427.39 430.27 427.29 C 430.33 338.23 430.25 249.17 430.31 160.11 C 420.06 169.71 410.30 179.91 400.34 189.83 Z" />
<path fill="#2a2319" opacity="1.00" d=" M 385.45 259.64 C 388.51 257.78 392.84 260.49 392.43 264.07 C 392.44 305.71 392.44 347.35 392.43 389.00 C 392.78 391.96 389.90 394.46 387.04 394.09 C 346.35 394.09 305.66 394.08 264.97 394.10 C 262.98 394.04 260.68 394.44 259.11 392.92 C 256.91 391.30 256.87 387.67 258.93 385.92 C 295.62 349.25 332.29 312.56 368.98 275.88 C 374.50 270.50 379.74 264.79 385.45 259.64 M 299.44 358.49 C 290.88 367.33 281.77 375.69 273.52 384.80 C 310.04 384.91 346.56 384.82 383.09 384.85 C 383.15 348.24 383.34 311.59 382.97 275.01 C 355.08 302.79 327.31 330.69 299.44 358.49 Z" />
</g>
<g id="#c4d65eff">
<path fill="#c4d65e" opacity="1.00" d=" M 339.45 73.10 C 339.67 73.20 340.12 73.40 340.34 73.50 C 357.53 89.29 374.70 105.09 391.91 120.86 C 380.59 132.55 369.37 144.34 357.99 155.97 L 357.40 155.96 C 349.35 148.23 341.33 140.46 333.28 132.72 C 332.54 131.96 331.45 131.77 330.56 131.27 C 325.39 126.87 320.78 121.84 315.71 117.33 C 312.57 115.51 308.73 117.02 306.65 119.71 C 242.99 185.70 179.36 251.71 115.74 317.74 C 113.11 320.04 112.21 324.43 114.82 327.09 C 120.35 332.59 126.14 337.84 131.57 343.44 C 134.39 345.77 136.59 349.25 140.38 350.06 C 145.73 354.79 150.79 359.96 155.95 364.94 L 155.94 365.61 C 144.68 377.30 133.47 389.05 122.12 400.65 C 104.75 384.76 87.47 368.76 70.06 352.90 C 159.33 259.89 249.04 167.25 338.41 74.32 C 338.67 74.01 339.19 73.41 339.45 73.10 Z" />
<path fill="#c4d65e" opacity="1.00" d=" M 121.12 322.86 C 184.75 256.74 248.52 190.74 312.15 124.62 L 312.81 124.61 C 317.00 128.59 321.10 132.65 325.23 136.69 C 326.37 140.10 329.65 142.05 332.02 144.57 C 323.30 153.49 314.85 162.70 305.95 171.45 C 303.78 169.48 301.93 167.07 299.46 165.48 C 295.68 163.60 291.24 168.16 293.27 171.89 C 295.07 174.27 297.45 176.18 299.62 178.22 C 290.94 187.20 282.35 196.28 273.52 205.12 C 270.77 202.97 268.83 199.07 265.02 198.82 C 261.20 198.67 258.90 203.73 261.46 206.52 C 263.48 208.44 265.30 210.65 267.65 212.18 L 266.84 212.33 C 258.15 221.02 249.74 230.12 241.01 238.82 C 238.96 236.91 237.10 234.79 234.89 233.06 C 231.23 230.78 226.29 235.20 228.24 239.08 C 229.85 241.66 232.45 243.41 234.52 245.59 C 225.96 254.67 217.26 263.62 208.60 272.61 C 206.53 270.56 204.53 268.41 202.21 266.66 C 198.46 264.50 193.81 269.20 195.88 272.95 C 197.56 275.41 200.03 277.20 202.12 279.29 C 193.43 288.27 184.88 297.37 176.11 306.27 C 174.01 304.27 172.09 302.01 169.72 300.34 C 165.94 298.23 161.24 302.91 163.39 306.67 C 165.07 309.08 167.48 310.87 169.59 312.88 C 161.13 322.07 152.35 330.97 143.64 339.91 C 140.50 337.42 137.36 331.59 132.68 334.40 C 129.17 330.23 124.94 326.74 121.12 322.86 Z" />
<path fill="#c4d65e" opacity="1.00" d=" M 337.38 149.69 C 341.87 154.18 346.54 158.48 351.02 162.97 C 342.92 172.19 333.84 180.67 325.59 189.82 C 320.45 186.05 316.30 180.87 311.39 176.74 C 319.93 167.61 328.78 158.77 337.38 149.69 Z" />
<path fill="#c4d65e" opacity="1.00" d=" M 279.04 210.53 C 287.39 201.25 296.22 192.38 304.98 183.48 C 309.50 187.97 314.18 192.31 318.71 196.80 C 310.06 205.75 301.42 214.72 292.79 223.70 C 288.21 219.31 283.71 214.83 279.04 210.53 Z" />
<path fill="#c4d65e" opacity="1.00" d=" M 272.46 217.13 C 276.85 221.76 282.01 225.80 286.04 230.68 C 277.59 239.55 268.93 248.22 260.61 257.21 C 255.53 253.47 251.39 248.34 246.54 244.21 C 254.99 235.01 263.74 226.09 272.46 217.13 Z" />
<path fill="#c4d65e" opacity="1.00" d=" M 239.86 250.50 C 244.25 255.28 249.14 259.60 253.77 264.15 C 245.31 272.91 236.88 281.71 228.40 290.45 C 228.18 290.56 227.74 290.78 227.51 290.89 C 223.12 286.41 218.55 282.11 213.99 277.81 C 222.51 268.61 231.60 259.91 239.86 250.50 Z" />
<path fill="#c4d65e" opacity="1.00" d=" M 181.52 311.46 C 190.07 302.38 198.84 293.49 207.49 284.50 C 211.87 289.14 217.04 293.17 221.06 298.04 C 212.46 306.93 204.01 316.03 195.22 324.68 C 190.69 320.24 186.10 315.85 181.52 311.46 Z" />
<path fill="#c4d65e" opacity="1.00" d=" M 149.20 344.81 C 157.89 336.04 166.32 326.98 175.07 318.25 C 179.59 322.77 184.27 327.10 188.82 331.58 C 180.15 340.40 171.70 349.44 163.00 358.23 C 157.77 354.21 153.60 348.88 148.39 344.81 L 149.20 344.81 Z" />
</g>
<g id="#e6584cff">
<path fill="#e6584c" opacity="1.00" d=" M 400.34 189.83 C 410.30 179.91 420.06 169.71 430.31 160.11 C 430.25 249.17 430.33 338.23 430.27 427.29 C 341.25 427.39 252.22 427.22 163.20 427.38 C 163.71 425.94 165.07 425.14 166.05 424.07 C 175.74 414.41 185.36 404.67 195.10 395.06 C 198.86 398.53 202.32 402.35 206.27 405.59 C 210.32 408.10 215.37 402.50 212.37 398.78 C 209.08 395.25 205.46 392.03 202.00 388.67 C 204.65 384.68 208.83 381.68 212.06 378.06 C 216.36 381.22 219.76 385.71 224.02 389.03 C 228.28 391.59 233.11 385.73 229.99 381.98 C 226.43 378.48 222.92 374.90 219.14 371.62 C 219.58 369.66 221.90 368.65 223.07 367.06 C 224.95 365.54 226.28 363.04 228.54 362.15 C 231.84 365.64 235.42 368.87 238.85 372.25 C 240.71 374.17 244.30 373.94 245.87 371.75 C 247.10 370.09 247.14 367.69 245.92 366.02 C 242.42 362.25 238.20 359.04 234.99 355.09 C 238.35 351.85 241.54 348.43 244.94 345.24 C 249.15 347.79 252.23 352.62 256.49 355.45 C 260.47 357.58 264.99 352.30 262.40 348.64 C 259.17 345.10 255.52 341.92 252.08 338.58 C 253.09 336.34 255.48 334.97 257.03 333.08 C 258.56 331.80 259.68 329.72 261.61 329.09 C 264.81 332.30 268.07 335.45 271.38 338.55 C 273.22 340.46 276.48 340.14 278.14 338.17 C 279.91 336.26 279.52 333.01 277.52 331.43 C 274.40 328.47 271.39 325.38 268.16 322.54 C 270.73 318.57 274.94 315.60 278.10 311.98 C 282.15 314.23 284.81 318.81 288.85 321.30 C 292.87 323.18 297.28 317.92 294.57 314.32 C 291.60 311.05 288.21 308.17 285.10 305.03 C 288.32 302.08 291.05 298.44 294.62 295.97 C 298.13 299.23 301.38 302.80 305.07 305.86 C 308.91 308.30 313.86 303.37 311.49 299.51 C 308.40 295.72 304.44 292.66 301.08 289.09 C 304.30 285.74 307.61 282.48 310.94 279.24 C 314.79 282.56 318.10 286.51 322.10 289.64 C 326.06 291.98 330.96 286.71 328.24 282.98 C 325.12 279.35 321.32 276.33 318.05 272.84 L 318.02 272.16 C 321.26 269.11 324.11 265.36 327.75 262.90 C 331.19 266.26 334.63 269.61 338.13 272.90 C 340.12 274.80 343.70 274.29 345.19 272.02 C 346.49 270.08 346.11 267.25 344.30 265.77 C 340.92 262.52 337.51 259.29 334.17 255.99 C 337.73 252.53 341.04 248.64 344.89 245.57 C 348.58 249.13 352.14 252.84 356.02 256.20 C 360.07 258.88 365.15 253.43 362.37 249.53 C 358.86 245.80 354.98 242.41 351.37 238.78 C 354.31 235.74 357.39 232.84 360.26 229.73 C 364.66 232.74 367.96 237.43 372.29 240.64 C 376.39 243.06 381.23 237.45 378.27 233.75 C 374.74 230.00 370.90 226.54 367.24 222.92 C 371.07 219.39 374.42 214.94 378.63 212.05 C 382.33 215.76 386.09 219.45 389.98 222.97 C 393.90 225.38 398.88 220.45 396.49 216.51 C 392.96 212.64 389.06 209.09 385.21 205.54 C 385.35 203.98 387.15 203.26 388.02 202.10 C 390.06 200.39 391.58 197.89 393.91 196.66 C 397.52 200.20 401.19 203.68 404.80 207.23 C 406.64 209.34 410.35 209.37 412.05 207.09 C 413.72 205.22 413.37 202.15 411.49 200.57 C 407.78 196.98 404.06 193.40 400.34 189.83 M 410.11 213.25 C 408.98 213.66 408.17 214.57 407.36 215.39 C 342.68 280.03 278.03 344.70 213.37 409.36 C 211.28 411.98 213.64 416.03 216.96 415.47 C 281.63 415.44 346.30 415.50 410.97 415.45 C 413.34 415.56 415.26 413.25 414.90 410.97 C 414.88 346.28 414.91 281.60 414.88 216.91 C 414.97 214.60 412.39 212.40 410.11 213.25 Z" />
<path fill="#e6584c" opacity="1.00" d=" M 397.61 235.65 C 400.92 232.46 403.95 228.95 407.50 226.00 C 407.25 286.67 407.54 347.35 407.37 408.03 C 346.71 408.04 286.04 408.07 225.38 408.01 C 282.66 350.43 340.21 293.11 397.61 235.65 M 385.45 259.64 C 379.74 264.79 374.50 270.50 368.98 275.88 C 332.29 312.56 295.62 349.25 258.93 385.92 C 256.87 387.67 256.91 391.30 259.11 392.92 C 260.68 394.44 262.98 394.04 264.97 394.10 C 305.66 394.08 346.35 394.09 387.04 394.09 C 389.90 394.46 392.78 391.96 392.43 389.00 C 392.44 347.35 392.44 305.71 392.43 264.07 C 392.84 260.49 388.51 257.78 385.45 259.64 Z" />
</g>
</svg>
